<?xml version="1.0" encoding="iso-8859-1"?>
<!-- Generator: Adobe Illustrator 18.0.0, SVG Export Plug-In . SVG Version: 6.00 Build 0)  -->
<!DOCTYPE svg PUBLIC "-//W3C//DTD SVG 1.1//EN" "http://www.w3.org/Graphics/SVG/1.1/DTD/svg11.dtd">
<svg version="1.1" id="Capa_1" xmlns="http://www.w3.org/2000/svg" xmlns:xlink="http://www.w3.org/1999/xlink" x="0px" y="0px"
	 viewBox="0 0 489.544 489.544" style="enable-background:new 0 0 489.544 489.544;" xml:space="preserve">
<g>
	<path d="M488.237,170.625c-0.845-2.071-2.087-3.944-3.649-5.499l-17.896-17.894c-6.596-6.597-17.273-6.597-23.869,0
		c-3.555,3.562-5.02,8.302-4.747,12.956H329.361V51.746c4.279-0.078,9.734-1.81,12.959-5.034c6.596-6.588,6.596-17.273,0-23.861
		L324.438,4.963c-1.575-1.57-3.441-2.806-5.512-3.667C316.869,0.446,314.671,0,312.49,0H16.871c-2.178,0-4.383,0.446-6.436,1.297
		C6.295,3.02,3.008,6.301,1.307,10.436C0.445,12.491,0,14.676,0,16.881v295.592c0,2.198,0.445,4.39,1.307,6.445
		c0.86,2.071,2.084,3.944,3.644,5.498l17.897,17.895c3.301,3.3,7.621,4.948,11.934,4.948c4.321,0,8.641-1.648,11.939-4.948
		c3.551-3.561,5.021-8.302,4.748-12.956h108.727v108.727c-4.67-0.296-9.404,1.188-12.959,4.749c-6.594,6.589-6.594,17.273,0,23.862
		l17.884,17.888c1.575,1.57,3.44,2.806,5.511,3.666c2.06,0.851,4.258,1.297,6.438,1.297h295.598c2.187,0,4.385-0.446,6.441-1.297
		c4.142-1.721,7.424-5.004,9.13-9.14c0.86-2.055,1.307-4.247,1.307-6.444V177.07C489.544,174.872,489.098,172.68,488.237,170.625z
		 M171.109,147.232c-6.594-6.597-17.273-6.597-23.873,0c-6.594,6.598-6.594,17.273,0,23.871l12.959,12.956v111.538H33.764V51.462
		c0.337,0.015,0.669,0.2,1.018,0.2c4.321,0,8.641-1.65,11.939-4.95c3.551-3.552,5.021-8.293,4.748-12.954h244.127v126.43H184.064
		L171.109,147.232z M295.596,193.947v101.649H193.964V193.947H295.596z M455.777,438.082c-4.653-0.296-9.387,1.188-12.955,4.749
		c-3.555,3.553-5.02,8.294-4.747,12.954H193.964v-126.43h111.53l12.953,12.956c3.3,3.3,7.619,4.948,11.934,4.948
		c4.32,0,8.64-1.648,11.94-4.948c6.596-6.597,6.596-17.273,0-23.871l-12.959-12.956V193.947h126.416V438.082z"/>
	<path d="M88.167,64.306c-6.581-6.598-17.271-6.598-23.854,0c-6.6,6.597-6.6,17.272,0,23.87l41.445,41.456
		c3.301,3.298,7.621,4.948,11.937,4.948c4.318,0,8.638-1.65,11.938-4.948c6.596-6.588,6.596-17.273,0-23.871L88.167,64.306z"/>
	<path d="M401.377,129.641c3.279,3.297,7.615,4.947,11.934,4.947c4.318,0,8.634-1.65,11.934-4.947
		c6.582-6.582,6.582-17.275,0-23.864l-41.465-41.471c-6.594-6.598-17.271-6.598-23.867,0c-6.6,6.588-6.6,17.272,0,23.87
		L401.377,129.641z"/>
	<path d="M88.167,359.905c-6.581-6.597-17.271-6.597-23.854,0c-6.6,6.589-6.6,17.273,0,23.861l41.445,41.465
		c3.301,3.297,7.621,4.947,11.937,4.947c4.318,0,8.638-1.65,11.938-4.947c6.596-6.598,6.596-17.275,0-23.871L88.167,359.905z"/>
	<path d="M383.779,359.905c-6.594-6.597-17.271-6.597-23.867,0c-6.6,6.579-6.6,17.273,0,23.861l41.465,41.471
		c3.279,3.3,7.615,4.948,11.934,4.948c4.318,0,8.634-1.647,11.934-4.948c6.582-6.588,6.582-17.273,0-23.87L383.779,359.905z"/>
</g>
<g>
</g>
<g>
</g>
<g>
</g>
<g>
</g>
<g>
</g>
<g>
</g>
<g>
</g>
<g>
</g>
<g>
</g>
<g>
</g>
<g>
</g>
<g>
</g>
<g>
</g>
<g>
</g>
<g>
</g>
</svg>
