<?xml version="1.0" encoding="iso-8859-1"?>
<!-- Generator: Adobe Illustrator 18.0.0, SVG Export Plug-In . SVG Version: 6.00 Build 0)  -->
<!DOCTYPE svg PUBLIC "-//W3C//DTD SVG 1.1//EN" "http://www.w3.org/Graphics/SVG/1.1/DTD/svg11.dtd">
<svg version="1.1" id="Capa_1" xmlns="http://www.w3.org/2000/svg" xmlns:xlink="http://www.w3.org/1999/xlink" x="0px" y="0px"
	 viewBox="0 0 483.809 483.809" style="enable-background:new 0 0 483.809 483.809;" xml:space="preserve">
<g>
	<path d="M194.905,93.725c-4.907-8.332-13.982-13.54-23.861-13.714c-0.109-0.016-0.189-0.063-0.285-0.063
		c-0.063,0-0.127,0.033-0.203,0.048c-9.704,0.063-18.828,5.271-23.861,13.715L45.849,264.273
		c-9.622,16.191-8.992,36.818,1.659,52.567l33.644,49.286c-2.507,0.82-4.873,2.051-6.752,3.99c-3.078,3.19-4.733,7.513-4.545,11.949
		l3.265,86.025c0.333,8.773,7.546,15.717,16.317,15.717l162.66-0.016c8.775,0,15.988-6.945,16.316-15.719l3.281-86.008
		c0.176-4.436-1.463-8.759-4.543-11.949c-1.88-1.939-4.246-3.17-6.77-3.99l33.582-49.207c10.72-15.606,11.381-36.249,1.703-52.583
		L194.905,93.725z M236.362,451.125l-131.207,0.015l-2.018-53.357h135.281L236.362,451.125z M267.008,298.474l-40.617,59.511
		c-2.984,4.4-7.956,7.023-13.447,7.023c-0.017,0-0.017,0-0.017,0l-84.319,0.047c-5.477-0.017-10.418-2.637-13.51-7.134
		l-40.558-59.417c-3.565-5.286-3.8-12.168-0.601-17.58l80.488-136.114l0.013,98.239c-11.075,5.887-18.696,17.374-18.696,30.773
		c0,19.378,15.699,35.082,35.014,35.034c19.352,0.016,35.006-15.639,35.006-35.034c0.033-13.399-7.592-24.887-18.652-30.773
		l-0.018-98.303l80.455,136.224C270.783,286.432,270.579,293.264,267.008,298.474z"/>
	<path d="M420.249,64.846h-40.352V24.508C379.897,10.97,368.924,0,355.403,0c-13.541,0-24.508,10.97-24.508,24.508v40.338h-40.338
		c-13.523,0-24.508,10.967-24.508,24.491c0,13.54,10.984,24.511,24.508,24.511h40.338v40.352c0,13.524,10.967,24.508,24.508,24.508
		c13.522,0,24.494-10.983,24.494-24.508v-40.352h40.352c13.539,0,24.508-10.971,24.508-24.511
		C444.757,75.813,433.788,64.846,420.249,64.846z"/>
</g>
<g>
</g>
<g>
</g>
<g>
</g>
<g>
</g>
<g>
</g>
<g>
</g>
<g>
</g>
<g>
</g>
<g>
</g>
<g>
</g>
<g>
</g>
<g>
</g>
<g>
</g>
<g>
</g>
<g>
</g>
</svg>
