<?xml version="1.0" encoding="iso-8859-1"?>
<!-- Generator: Adobe Illustrator 18.0.0, SVG Export Plug-In . SVG Version: 6.00 Build 0)  -->
<!DOCTYPE svg PUBLIC "-//W3C//DTD SVG 1.1//EN" "http://www.w3.org/Graphics/SVG/1.1/DTD/svg11.dtd">
<svg version="1.1" id="Capa_1" xmlns="http://www.w3.org/2000/svg" xmlns:xlink="http://www.w3.org/1999/xlink" x="0px" y="0px"
	 viewBox="0 0 495.011 495.011" style="enable-background:new 0 0 495.011 495.011;" xml:space="preserve">
<g>
	<path d="M433.876,63.513h-38.817V24.728C395.058,11.073,383.982,0,370.335,0c-13.656,0-24.731,11.073-24.731,24.728v38.799H306.82
		c-13.668,0-24.732,11.076-24.732,24.73c0,13.664,11.078,24.728,24.732,24.728h38.783v38.769c0,13.649,11.075,24.729,24.731,24.729
		c13.647,0,24.724-11.08,24.724-24.729V112.97h38.817c13.67,0,24.729-11.08,24.729-24.728
		C458.605,74.569,447.527,63.513,433.876,63.513z"/>
	<path d="M274.863,302.01l58.682-32.362c5.23-2.881,8.209-8.611,7.568-14.552c-0.66-5.942-4.816-10.901-10.55-12.591L55.356,161.623
		c-5.179-1.532-10.798-0.098-14.615,3.732c-3.829,3.818-5.261,9.435-3.734,14.62l80.884,275.219
		c1.674,5.734,6.634,9.887,12.574,10.529c5.941,0.662,11.675-2.318,14.554-7.55l32.344-58.636l89.581,89.58
		c7.852,7.857,20.571,7.857,28.429,0l69.084-69.084c7.855-7.854,7.855-20.572,0-28.432L274.863,302.01z"/>
</g>
<g>
</g>
<g>
</g>
<g>
</g>
<g>
</g>
<g>
</g>
<g>
</g>
<g>
</g>
<g>
</g>
<g>
</g>
<g>
</g>
<g>
</g>
<g>
</g>
<g>
</g>
<g>
</g>
<g>
</g>
</svg>
