<?xml version="1.0" encoding="iso-8859-1"?>
<!-- Generator: Adobe Illustrator 18.0.0, SVG Export Plug-In . SVG Version: 6.00 Build 0)  -->
<!DOCTYPE svg PUBLIC "-//W3C//DTD SVG 1.1//EN" "http://www.w3.org/Graphics/SVG/1.1/DTD/svg11.dtd">
<svg version="1.1" id="Capa_1" xmlns="http://www.w3.org/2000/svg" xmlns:xlink="http://www.w3.org/1999/xlink" x="0px" y="0px"
	 viewBox="0 0 491.354 491.354" style="enable-background:new 0 0 491.354 491.354;" xml:space="preserve">
<g>
	<path d="M407.297,24.125h-27.429C377.601,10.472,365.791,0,351.508,0c-14.279,0-26.097,10.472-28.357,24.125H84.054
		c-7.038,0-12.74,5.704-12.74,12.742v371.367c0,7.038,5.702,12.74,12.74,12.74h239.159c2.526,13.339,14.233,23.466,28.294,23.466
		c14.063,0,25.768-10.126,28.298-23.466h27.491c7.039,0,12.743-5.702,12.743-12.74V36.867
		C420.04,29.829,414.336,24.125,407.297,24.125z M364.252,415.609c0,7.039-5.705,12.742-12.744,12.742
		c-7.038,0-12.74-5.704-12.74-12.742V28.831c0-7.039,5.702-12.74,12.74-12.74c7.039,0,12.744,5.701,12.744,12.74V415.609z"/>
	<path d="M108.174,465.665c0,3.942,1.823,7.667,4.945,10.079l16.753,12.947c4.585,3.549,10.993,3.549,15.584,0.006l16.763-12.953
		c3.128-2.413,4.948-6.137,4.948-10.088v-28.592h-58.993V465.665z"/>
</g>
<g>
</g>
<g>
</g>
<g>
</g>
<g>
</g>
<g>
</g>
<g>
</g>
<g>
</g>
<g>
</g>
<g>
</g>
<g>
</g>
<g>
</g>
<g>
</g>
<g>
</g>
<g>
</g>
<g>
</g>
</svg>
