<?xml version="1.0" encoding="iso-8859-1"?>
<!-- Generator: Adobe Illustrator 18.0.0, SVG Export Plug-In . SVG Version: 6.00 Build 0)  -->
<!DOCTYPE svg PUBLIC "-//W3C//DTD SVG 1.1//EN" "http://www.w3.org/Graphics/SVG/1.1/DTD/svg11.dtd">
<svg version="1.1" id="Capa_1" xmlns="http://www.w3.org/2000/svg" xmlns:xlink="http://www.w3.org/1999/xlink" x="0px" y="0px"
	 viewBox="0 0 493.022 493.022" style="enable-background:new 0 0 493.022 493.022;" xml:space="preserve">
<path d="M393.407,250.871H270.894v-21.174h45.564c13.452,0,24.369-10.92,24.369-24.387V65.432c0-13.467-10.917-24.385-24.369-24.385
	h-45.564V24.385C270.894,10.92,259.976,0,246.511,0c-13.47,0-24.369,10.92-24.369,24.385v16.662h-45.564
	c-13.465,0-24.369,10.918-24.369,24.385v139.879c0,13.467,10.904,24.387,24.369,24.387h45.564v21.174H99.633
	c-13.484,0-24.388,10.922-24.388,24.389v139.877c0,13.469,10.904,24.389,24.388,24.389h122.509v29.125
	c0,13.451,10.899,24.371,24.369,24.371c13.465,0,24.383-10.92,24.383-24.371v-29.125h122.513c13.465,0,24.369-10.92,24.369-24.389
	V275.26C417.776,261.793,406.872,250.871,393.407,250.871z M369.02,390.752H124.016v-91.123H369.02V390.752z"/>
<g>
</g>
<g>
</g>
<g>
</g>
<g>
</g>
<g>
</g>
<g>
</g>
<g>
</g>
<g>
</g>
<g>
</g>
<g>
</g>
<g>
</g>
<g>
</g>
<g>
</g>
<g>
</g>
<g>
</g>
</svg>
