<?xml version="1.0" encoding="iso-8859-1"?>
<!-- Generator: Adobe Illustrator 18.0.0, SVG Export Plug-In . SVG Version: 6.00 Build 0)  -->
<!DOCTYPE svg PUBLIC "-//W3C//DTD SVG 1.1//EN" "http://www.w3.org/Graphics/SVG/1.1/DTD/svg11.dtd">
<svg version="1.1" id="Capa_1" xmlns="http://www.w3.org/2000/svg" xmlns:xlink="http://www.w3.org/1999/xlink" x="0px" y="0px"
	 viewBox="0 0 485.251 485.251" style="enable-background:new 0 0 485.251 485.251;" xml:space="preserve">
<g>
	<path d="M24.48,0.559C10.966,0.559,0,11.524,0,25.04v429.738c0,13.516,10.966,24.482,24.48,24.482
		c13.516,0,24.477-10.967,24.477-24.482V25.04C48.957,11.524,37.996,0.559,24.48,0.559z"/>
	<path d="M95.192,223.581h174.065c13.528,0,24.476-10.965,24.476-24.479V25.04c0-13.516-10.948-24.481-24.476-24.481H95.192
		c-13.529,0-24.481,10.966-24.481,24.481v174.063C70.711,212.616,81.663,223.581,95.192,223.581z"/>
	<path d="M460.77,261.671H95.192c-13.529,0-24.481,10.966-24.481,24.48v174.063c0,13.516,10.952,24.479,24.481,24.479H460.77
		c13.515,0,24.481-10.964,24.481-24.479V286.15C485.251,272.637,474.285,261.671,460.77,261.671z M436.289,435.735H119.673V310.63
		h316.616V435.735z"/>
</g>
<g>
</g>
<g>
</g>
<g>
</g>
<g>
</g>
<g>
</g>
<g>
</g>
<g>
</g>
<g>
</g>
<g>
</g>
<g>
</g>
<g>
</g>
<g>
</g>
<g>
</g>
<g>
</g>
<g>
</g>
</svg>
