<?xml version="1.0" encoding="iso-8859-1"?>
<!-- Generator: Adobe Illustrator 18.0.0, SVG Export Plug-In . SVG Version: 6.00 Build 0)  -->
<!DOCTYPE svg PUBLIC "-//W3C//DTD SVG 1.1//EN" "http://www.w3.org/Graphics/SVG/1.1/DTD/svg11.dtd">
<svg version="1.1" id="Capa_1" xmlns="http://www.w3.org/2000/svg" xmlns:xlink="http://www.w3.org/1999/xlink" x="0px" y="0px"
	 viewBox="0 0 491.072 491.072" style="enable-background:new 0 0 491.072 491.072;" xml:space="preserve">
<g>
	<path d="M25.341,49.547h434.893c13.678,0,24.775-11.098,24.775-24.772C485.009,11.098,473.912,0,460.234,0H25.341
		C11.645,0,0.567,11.098,0.567,24.775C0.567,38.449,11.645,49.547,25.341,49.547z"/>
	<path d="M201.49,71.563H25.341c-13.696,0-24.774,11.094-24.774,24.771v176.15c0,13.678,11.078,24.775,24.774,24.775H201.49
		c13.695,0,24.773-11.098,24.773-24.775V96.334C226.263,82.656,215.185,71.563,201.49,71.563z"/>
	<path d="M465.734,71.563H289.582c-13.691,0-24.775,11.094-24.775,24.771v369.963c0,13.678,11.084,24.775,24.775,24.775h176.152
		c13.691,0,24.771-11.098,24.771-24.775V96.334C490.506,82.656,479.426,71.563,465.734,71.563z M440.961,441.525H314.355v-320.42
		h126.605V441.525z"/>
</g>
<g>
</g>
<g>
</g>
<g>
</g>
<g>
</g>
<g>
</g>
<g>
</g>
<g>
</g>
<g>
</g>
<g>
</g>
<g>
</g>
<g>
</g>
<g>
</g>
<g>
</g>
<g>
</g>
<g>
</g>
</svg>
