<?xml version="1.0" encoding="iso-8859-1"?>
<!-- Generator: Adobe Illustrator 18.0.0, SVG Export Plug-In . SVG Version: 6.00 Build 0)  -->
<!DOCTYPE svg PUBLIC "-//W3C//DTD SVG 1.1//EN" "http://www.w3.org/Graphics/SVG/1.1/DTD/svg11.dtd">
<svg version="1.1" id="Capa_1" xmlns="http://www.w3.org/2000/svg" xmlns:xlink="http://www.w3.org/1999/xlink" x="0px" y="0px"
	 viewBox="0 0 484.781 484.781" style="enable-background:new 0 0 484.781 484.781;" xml:space="preserve">
<g>
	<path d="M468.462,155.855H328.024c-9.02,0-16.32,7.299-16.32,16.318v140.435c0,9.021,7.301,16.319,16.32,16.319h140.438
		c9.018,0,16.319-7.299,16.319-16.319V172.173C484.781,163.153,477.479,155.855,468.462,155.855z"/>
	<path d="M156.784,78.593H16.317C7.297,78.593,0,85.892,0,94.913v294.958c0,9.018,7.297,16.317,16.317,16.317h140.467
		c9.021,0,16.316-7.299,16.316-16.317V94.913C173.101,85.892,165.806,78.593,156.784,78.593z M140.464,373.55H32.638V111.23h107.826
		V373.55z"/>
	<path d="M274.416,166.243c-9.022,0-16.319,7.3-16.319,16.322v43.507h-32.642v-43.507c0-9.023-7.298-16.322-16.319-16.322
		c-9.018,0-16.32,7.3-16.32,16.322v115.589c0,9.018,7.303,16.317,16.32,16.317c9.021,0,16.319-7.299,16.319-16.317V258.71h32.642
		v39.444c0,9.018,7.297,16.317,16.319,16.317c9.017,0,16.317-7.299,16.317-16.317V182.565
		C290.733,173.543,283.433,166.243,274.416,166.243z"/>
</g>
<g>
</g>
<g>
</g>
<g>
</g>
<g>
</g>
<g>
</g>
<g>
</g>
<g>
</g>
<g>
</g>
<g>
</g>
<g>
</g>
<g>
</g>
<g>
</g>
<g>
</g>
<g>
</g>
<g>
</g>
</svg>
