<?xml version="1.0" encoding="iso-8859-1"?>
<!-- Generator: Adobe Illustrator 18.0.0, SVG Export Plug-In . SVG Version: 6.00 Build 0)  -->
<!DOCTYPE svg PUBLIC "-//W3C//DTD SVG 1.1//EN" "http://www.w3.org/Graphics/SVG/1.1/DTD/svg11.dtd">
<svg version="1.1" id="Capa_1" xmlns="http://www.w3.org/2000/svg" xmlns:xlink="http://www.w3.org/1999/xlink" x="0px" y="0px"
	 viewBox="0 0 488.109 488.109" style="enable-background:new 0 0 488.109 488.109;" xml:space="preserve">
<g>
	<path d="M441.307,150.66H315.666V24.139C315.666,10.813,304.858,0,291.531,0c-13.328,0-24.141,10.813-24.141,24.139v439.832
		c0,13.325,10.813,24.139,24.141,24.139c13.327,0,24.135-10.814,24.135-24.139V337.416h125.641c13.327,0,24.141-10.81,24.141-24.137
		V174.797C465.447,161.472,454.634,150.66,441.307,150.66z"/>
	<path d="M185.311,74.472H70.938V24.139C70.938,10.813,60.124,0,46.797,0C33.476,0,22.662,10.813,22.662,24.139v74.474v290.853
		v74.506c0,13.325,10.814,24.139,24.135,24.139c13.327,0,24.141-10.814,24.141-24.139v-50.365h114.374
		c13.327,0,24.142-10.815,24.142-24.141V98.612C209.453,85.285,198.639,74.472,185.311,74.472z M161.173,365.327H70.938V122.75
		h90.235V365.327z"/>
</g>
<g>
</g>
<g>
</g>
<g>
</g>
<g>
</g>
<g>
</g>
<g>
</g>
<g>
</g>
<g>
</g>
<g>
</g>
<g>
</g>
<g>
</g>
<g>
</g>
<g>
</g>
<g>
</g>
<g>
</g>
</svg>
