<?xml version="1.0" encoding="iso-8859-1"?>
<!-- Generator: Adobe Illustrator 18.0.0, SVG Export Plug-In . SVG Version: 6.00 Build 0)  -->
<!DOCTYPE svg PUBLIC "-//W3C//DTD SVG 1.1//EN" "http://www.w3.org/Graphics/SVG/1.1/DTD/svg11.dtd">
<svg version="1.1" id="Capa_1" xmlns="http://www.w3.org/2000/svg" xmlns:xlink="http://www.w3.org/1999/xlink" x="0px" y="0px"
	 viewBox="0 0 493.097 493.097" style="enable-background:new 0 0 493.097 493.097;" xml:space="preserve">
<g>
	<path d="M470.474,329.633h-56.338c-12.492,0-22.625,10.127-22.625,22.626v56.37c0,12.489,10.133,22.616,22.625,22.616h56.338
		c12.486,0,22.623-10.127,22.623-22.616v-56.37C493.097,339.76,482.96,329.633,470.474,329.633z"/>
	<path d="M260.656,227.8l52.71-29.068c11.053-6.09,17.296-18.116,15.904-30.595c-1.354-12.531-10.036-22.921-22.133-26.482
		L39.878,63.09c-10.84-3.177-22.809-0.123-30.738,7.831c-8.074,8.058-11.102,19.863-7.861,30.776l78.536,267.27
		c3.532,12.08,13.913,20.777,26.45,22.161l3.389,0.179c11.326,0,21.774-6.165,27.233-16.078l29.067-52.714l74.675,74.676
		c3.665,3.661,8.62,5.714,13.802,5.714c5.183,0,10.132-2.053,13.797-5.714l67.113-67.109c7.617-7.619,7.617-19.978,0-27.597
		L260.656,227.8z M174.979,236.823l-64.657,117.233L34.632,96.44l257.581,75.726L174.979,236.823z"/>
</g>
<g>
</g>
<g>
</g>
<g>
</g>
<g>
</g>
<g>
</g>
<g>
</g>
<g>
</g>
<g>
</g>
<g>
</g>
<g>
</g>
<g>
</g>
<g>
</g>
<g>
</g>
<g>
</g>
<g>
</g>
</svg>
