<?xml version="1.0" encoding="iso-8859-1"?>
<!-- Generator: Adobe Illustrator 18.0.0, SVG Export Plug-In . SVG Version: 6.00 Build 0)  -->
<!DOCTYPE svg PUBLIC "-//W3C//DTD SVG 1.1//EN" "http://www.w3.org/Graphics/SVG/1.1/DTD/svg11.dtd">
<svg version="1.1" id="Capa_1" xmlns="http://www.w3.org/2000/svg" xmlns:xlink="http://www.w3.org/1999/xlink" x="0px" y="0px"
	 viewBox="0 0 484.438 484.438" style="enable-background:new 0 0 484.438 484.438;" xml:space="preserve">
<g>
	<path d="M356.273,36.73h-82.018v-4.691C274.256,14.345,259.913,0,242.219,0c-17.694,0-32.037,14.345-32.037,32.039v4.691h-82.018
		c-14.392,0-26.112,11.718-26.112,26.119v262.119c0,14.401,11.72,26.119,26.112,26.119h52.778l-46.898,99.031
		c-5.692,11.99-0.564,26.319,11.42,31.999c3.316,1.58,6.818,2.321,10.264,2.321c9.008,0,17.627-5.076,21.742-13.751l56.629-119.6
		h16.238l56.643,119.6c5.679,11.993,20.008,17.084,31.992,11.43c11.997-5.679,17.113-20.008,11.434-31.999l-46.897-99.031h52.764
		c14.393,0,26.112-11.718,26.112-26.119V62.85C382.385,48.449,370.666,36.73,356.273,36.73z M350.344,319.048h-216.25V68.77h216.25
		V319.048z"/>
	<path d="M176.366,208.331l0.011,0.008c5.389,3.909,12.868,3.085,17.291-1.891c14.839-16.694,46.848-50.74,57.037-45.887
		c8.391,3.996-17.581,51.544-8.391,68.326c9.19,16.782,55.141,11.987,59.136,49.146c15.982-44.751-32.366-48.346-37.96-60.334
		c-4.697-10.067,55.541-87.906,7.592-97.495c-37.316-7.463-80.441,45.336-97.731,69.117c-2.123,2.92-2.998,6.563-2.433,10.129
		C171.485,203.017,173.445,206.211,176.366,208.331z"/>
</g>
<g>
</g>
<g>
</g>
<g>
</g>
<g>
</g>
<g>
</g>
<g>
</g>
<g>
</g>
<g>
</g>
<g>
</g>
<g>
</g>
<g>
</g>
<g>
</g>
<g>
</g>
<g>
</g>
<g>
</g>
</svg>
