<?xml version="1.0" encoding="iso-8859-1"?>
<!-- Generator: Adobe Illustrator 18.0.0, SVG Export Plug-In . SVG Version: 6.00 Build 0)  -->
<!DOCTYPE svg PUBLIC "-//W3C//DTD SVG 1.1//EN" "http://www.w3.org/Graphics/SVG/1.1/DTD/svg11.dtd">
<svg version="1.1" id="Capa_1" xmlns="http://www.w3.org/2000/svg" xmlns:xlink="http://www.w3.org/1999/xlink" x="0px" y="0px"
	 viewBox="0 0 490.213 490.213" style="enable-background:new 0 0 490.213 490.213;" xml:space="preserve">
<g>
	<path d="M434.476,41.392h-23.295v365.296c0,25.609-20.828,46.444-46.436,46.444H55.737c-4.842,0-9.417-0.948-13.8-2.336v25.61
		c0,7.624,6.186,13.807,13.8,13.807H398.16c27.682,0,50.116-22.436,50.116-50.108V55.199
		C448.276,47.575,442.095,41.392,434.476,41.392z"/>
	<path d="M55.737,420.497h309.008c7.614,0,13.8-6.183,13.8-13.81V13.807c0-7.625-6.185-13.807-13.8-13.807H55.737
		c-7.614,0-13.8,6.181-13.8,13.807v27.585v12.221h32.799c5.354,0,9.686,4.335,9.686,9.69v49.885c0,5.355-4.332,9.688-9.686,9.688
		H41.937v52.746h32.799c5.354,0,9.686,4.336,9.686,9.69v49.886c0,5.352-4.332,9.688-9.686,9.688H41.937v52.746h32.799
		c5.354,0,9.686,4.336,9.686,9.688v49.888c0,5.352-4.332,9.688-9.686,9.688H41.937v39.79
		C41.937,414.314,48.123,420.497,55.737,420.497z M190.614,285.394h54.487c6.755,0,12.235,5.482,12.235,12.239
		c0,6.757-5.481,12.239-12.235,12.239h-54.487c-6.754,0-12.234-5.482-12.234-12.239C178.38,290.876,183.86,285.394,190.614,285.394z
		 M190.614,342.676h129.194c6.754,0,12.234,5.48,12.234,12.237c0,6.757-5.48,12.239-12.234,12.239H190.614
		c-6.754,0-12.234-5.482-12.234-12.239C178.38,348.156,183.86,342.676,190.614,342.676z"/>
</g>
<g>
</g>
<g>
</g>
<g>
</g>
<g>
</g>
<g>
</g>
<g>
</g>
<g>
</g>
<g>
</g>
<g>
</g>
<g>
</g>
<g>
</g>
<g>
</g>
<g>
</g>
<g>
</g>
<g>
</g>
</svg>
