<?xml version="1.0" encoding="iso-8859-1"?>
<!-- Generator: Adobe Illustrator 18.0.0, SVG Export Plug-In . SVG Version: 6.00 Build 0)  -->
<!DOCTYPE svg PUBLIC "-//W3C//DTD SVG 1.1//EN" "http://www.w3.org/Graphics/SVG/1.1/DTD/svg11.dtd">
<svg version="1.1" id="Capa_1" xmlns="http://www.w3.org/2000/svg" xmlns:xlink="http://www.w3.org/1999/xlink" x="0px" y="0px"
	 viewBox="0 0 494.398 494.398" style="enable-background:new 0 0 494.398 494.398;" xml:space="preserve">
<path d="M247.199,0C173.289,0,113.14,60.131,113.14,134.061v253.806c0,9.06,7.331,16.392,16.393,16.392
	c9.056,0,16.387-7.331,16.387-16.392V134.061c0-55.844,45.424-101.28,101.279-101.28c55.861,0,101.284,45.436,101.284,101.28
	v261.668c0,36.325-29.562,65.89-65.896,65.89c-0.27,0-0.513,0.145-0.782,0.159c-0.288-0.015-0.513-0.159-0.8-0.159
	c-36.331,0-65.893-29.564-65.893-65.89V238.766c0-17.703,14.387-32.091,32.087-32.091c17.704,0,32.092,14.388,32.092,32.091v149.101
	c0,9.06,7.344,16.392,16.388,16.392c9.042,0,16.392-7.331,16.392-16.392V238.766c0-35.773-29.099-64.871-64.872-64.871
	c-35.768,0-64.867,29.099-64.867,64.871v156.963c0,54.398,44.255,98.67,98.672,98.67c0.287,0,0.512-0.145,0.8-0.161
	c0.27,0.017,0.513,0.161,0.782,0.161c54.404,0,98.671-44.271,98.671-98.67V134.061C381.258,60.131,321.11,0,247.199,0z"/>
<g>
</g>
<g>
</g>
<g>
</g>
<g>
</g>
<g>
</g>
<g>
</g>
<g>
</g>
<g>
</g>
<g>
</g>
<g>
</g>
<g>
</g>
<g>
</g>
<g>
</g>
<g>
</g>
<g>
</g>
</svg>
