<?xml version="1.0" encoding="iso-8859-1"?>
<!-- Generator: Adobe Illustrator 18.0.0, SVG Export Plug-In . SVG Version: 6.00 Build 0)  -->
<!DOCTYPE svg PUBLIC "-//W3C//DTD SVG 1.1//EN" "http://www.w3.org/Graphics/SVG/1.1/DTD/svg11.dtd">
<svg version="1.1" id="Capa_1" xmlns="http://www.w3.org/2000/svg" xmlns:xlink="http://www.w3.org/1999/xlink" x="0px" y="0px"
	 viewBox="0 0 484.245 484.245" style="enable-background:new 0 0 484.245 484.245;" xml:space="preserve">
<g>
	<path d="M256.433,188.126c-19.244,5.238-39.209,4.441-58.521,3.727c-6.24-0.257-12.4-0.494-18.372-0.494
		c-2.552,0-5.776-0.208-9.347-0.477c-3.407-0.241-9.821-0.719-14.74-0.479c1.797,1.242,4.215,2.674,7.387,4.154
		c32.287,15.172,56.182,21.924,88.615,24.105c4.52-7.246,11.699-12.578,20.218-14.553c10.903-2.58,22.462,0.73,30.407,8.709
		l37.766,37.766V72.256H59.606v200.698H231.87l7.701-22.527c-31.965-3.141-57.709-10.908-90.603-26.352
		c-11.351-5.334-25.647-14.68-29.261-28.959c-2.104-8.279-0.238-16.91,5.221-24.295c11.146-15.076,33.066-13.549,47.621-12.451
		c2.674,0.193,5.079,0.383,6.989,0.383c6.368,0,12.96,0.258,19.632,0.506c16.873,0.672,34.271,1.357,48.667-2.59
		c5.382-1.469,7.466-3.314,7.767-3.838c-0.048-1.275-3.356-6.769-11.46-10.334c-22.068-9.727-50.756-7.673-78.473-5.715
		c-13.438,0.939-27.402,1.893-40.504,1.594c-8.996-0.242-16.114-7.738-15.869-16.734c0.234-8.851,7.477-15.874,16.282-15.874
		c0.16,0,0.304,0,0.445,0c11.591,0.321,24.103-0.572,37.331-1.509c31.721-2.246,64.516-4.571,93.941,8.402
		c19.642,8.662,31.996,25.902,30.739,42.891C287.48,162.905,283.31,180.786,256.433,188.126z"/>
	<path d="M228.587,297.407H47.379c-6.746,0-12.224-5.479-12.224-12.225V60.026c0-6.748,5.478-12.226,12.224-12.226h304.694
		c6.748,0,12.225,5.477,12.225,12.226V275.04l34.678,34.69c0.189-1.451,0.447-2.867,0.447-4.363V39.843
		c0-18.359-14.891-33.245-33.243-33.245H33.241C14.889,6.598,0,21.483,0,39.843v265.523c0,18.355,14.889,33.243,33.241,33.243
		h229.32l-25.233-25.235C232.856,308.899,229.912,303.345,228.587,297.407z"/>
	<path d="M476.331,415.905L295.077,234.632l-7.404-7.404c-2.996-2.994-7.353-4.25-11.4-3.264c-4.121,0.955-7.449,3.95-8.822,7.944
		l-6.826,19.951l-11.813,34.501c-1.516,4.422-0.367,9.311,2.928,12.608l170.779,170.779c5.097,5.097,11.849,7.9,19.029,7.9h0.061
		c7.244,0,14.027-2.82,19.088-7.914l15.653-15.65c5.093-5.096,7.913-11.876,7.895-19.105
		C484.245,427.764,481.429,420.983,476.331,415.905z M459.06,436.792l-15.684,15.682c-0.459,0.461-1.081,0.719-1.767,0.719h-0.061
		c-0.641,0-1.273-0.271-1.737-0.732L274.428,287.073l9.821-28.688L459.06,433.211c0.604,0.603,0.734,1.304,0.734,1.782
		C459.794,435.487,459.664,436.189,459.06,436.792z"/>
</g>
<g>
</g>
<g>
</g>
<g>
</g>
<g>
</g>
<g>
</g>
<g>
</g>
<g>
</g>
<g>
</g>
<g>
</g>
<g>
</g>
<g>
</g>
<g>
</g>
<g>
</g>
<g>
</g>
<g>
</g>
</svg>
