<?xml version="1.0" encoding="iso-8859-1"?>
<!-- Generator: Adobe Illustrator 18.0.0, SVG Export Plug-In . SVG Version: 6.00 Build 0)  -->
<!DOCTYPE svg PUBLIC "-//W3C//DTD SVG 1.1//EN" "http://www.w3.org/Graphics/SVG/1.1/DTD/svg11.dtd">
<svg version="1.1" id="Capa_1" xmlns="http://www.w3.org/2000/svg" xmlns:xlink="http://www.w3.org/1999/xlink" x="0px" y="0px"
	 viewBox="0 0 479.457 479.457" style="enable-background:new 0 0 479.457 479.457;" xml:space="preserve">
<g>
	<path d="M464.605,172.74h-59.287c0.207,4.082,0.613,8.098,0.613,12.227c0,125.219-101.867,227.084-227.084,227.084v46.416
		c0,8.195,6.66,14.853,14.852,14.853h270.906c8.209,0,14.852-6.658,14.852-14.853V187.594
		C479.457,179.385,472.815,172.74,464.605,172.74z"/>
	<path d="M357.69,184.967c0-98.607-80.238-178.83-178.842-178.83C80.238,6.137,0,86.359,0,184.967s80.238,178.828,178.848,178.828
		C277.451,363.795,357.69,283.574,357.69,184.967z M49.549,184.967c0-71.285,57.992-129.283,129.299-129.283
		c71.301,0,129.299,57.998,129.299,129.283c0,71.287-57.998,129.281-129.299,129.281C107.541,314.248,49.549,256.254,49.549,184.967
		z"/>
</g>
<g>
</g>
<g>
</g>
<g>
</g>
<g>
</g>
<g>
</g>
<g>
</g>
<g>
</g>
<g>
</g>
<g>
</g>
<g>
</g>
<g>
</g>
<g>
</g>
<g>
</g>
<g>
</g>
<g>
</g>
</svg>
