<?xml version="1.0" encoding="iso-8859-1"?>
<!-- Generator: Adobe Illustrator 18.0.0, SVG Export Plug-In . SVG Version: 6.00 Build 0)  -->
<!DOCTYPE svg PUBLIC "-//W3C//DTD SVG 1.1//EN" "http://www.w3.org/Graphics/SVG/1.1/DTD/svg11.dtd">
<svg version="1.1" id="Capa_1" xmlns="http://www.w3.org/2000/svg" xmlns:xlink="http://www.w3.org/1999/xlink" x="0px" y="0px"
	 viewBox="0 0 495.133 495.133" style="enable-background:new 0 0 495.133 495.133;" xml:space="preserve">
<path d="M469.21,44.227H25.924C11.6,44.227,0,55.828,0,70.153v354.828c0,14.326,11.6,25.926,25.924,25.926H469.21
	c14.305,0,25.923-11.6,25.923-25.926V70.153C495.133,55.828,483.515,44.227,469.21,44.227z M34.342,108.324
	c0-12.036,9.766-21.797,21.798-21.797c12.037,0,21.798,9.761,21.798,21.797c0,12.017-9.761,21.78-21.798,21.78
	C44.108,130.104,34.342,120.34,34.342,108.324z M129.232,397.135c0,4.514-3.667,8.177-8.179,8.177H79.075
	c-4.512,0-8.179-3.663-8.179-8.177V177.909c0-4.514,3.667-8.179,8.179-8.179h41.979c4.512,0,8.179,3.665,8.179,8.179V397.135z
	 M114.46,130.104c-12.018,0-21.78-9.764-21.78-21.78c0-12.036,9.762-21.797,21.78-21.797c12.036,0,21.798,9.761,21.798,21.797
	C136.258,120.34,126.496,130.104,114.46,130.104z M151.013,108.324c0-12.036,9.762-21.797,21.785-21.797
	c12.032,0,21.798,9.761,21.798,21.797c0,12.017-9.766,21.78-21.798,21.78C160.775,130.104,151.013,120.34,151.013,108.324z
	 M227.563,397.135c0,4.514-3.664,8.177-8.18,8.177h-41.979c-4.512,0-8.175-3.663-8.175-8.177V177.909
	c0-4.514,3.663-8.179,8.175-8.179h41.979c4.517,0,8.18,3.665,8.18,8.179V397.135z M325.891,397.135c0,4.514-3.663,8.177-8.18,8.177
	h-41.978c-4.512,0-8.176-3.663-8.176-8.177V177.909c0-4.514,3.664-8.179,8.176-8.179h41.978c4.517,0,8.18,3.665,8.18,8.179V397.135z
	 M424.221,397.135c0,4.514-3.664,8.177-8.181,8.177h-41.978c-4.513,0-8.175-3.663-8.175-8.177V177.909
	c0-4.514,3.663-8.179,8.175-8.179h41.978c4.517,0,8.181,3.665,8.181,8.179V397.135z"/>
<g>
</g>
<g>
</g>
<g>
</g>
<g>
</g>
<g>
</g>
<g>
</g>
<g>
</g>
<g>
</g>
<g>
</g>
<g>
</g>
<g>
</g>
<g>
</g>
<g>
</g>
<g>
</g>
<g>
</g>
</svg>
