<?xml version="1.0" encoding="iso-8859-1"?>
<!-- Generator: Adobe Illustrator 18.0.0, SVG Export Plug-In . SVG Version: 6.00 Build 0)  -->
<!DOCTYPE svg PUBLIC "-//W3C//DTD SVG 1.1//EN" "http://www.w3.org/Graphics/SVG/1.1/DTD/svg11.dtd">
<svg version="1.1" id="Capa_1" xmlns="http://www.w3.org/2000/svg" xmlns:xlink="http://www.w3.org/1999/xlink" x="0px" y="0px"
	 viewBox="0 0 489.769 489.769" style="enable-background:new 0 0 489.769 489.769;" xml:space="preserve">
<g>
	<path d="M205.398,70.259c-26.721-29.337-64.749-49.049-94.606-49.055c-13.079,0-17.868,7.165-19.542,11.44
		c-4.562,11.556,4.129,19.685,9.324,24.54c13.435,12.559,25.774,26.989,16.55,52.975c-2.749,7.755-10.506,13.98-19.492,21.188
		c-13.775,11.049-30.887,24.808-36.623,50.336c-5.371,23.862-0.677,46.564,13.209,63.924c4.524,5.663,10.005,10.542,16.21,14.725
		c-1.89,0-3.699,0.77-5.01,2.132c-1.311,1.362-2.011,3.199-1.939,5.088L91.507,477.9c0.258,6.628,5.705,11.869,12.326,11.869h86.424
		c6.657,0,12.086-5.247,12.344-11.869l8.045-211.124c0.064-1.686-0.561-3.326-1.731-4.542c-1.17-1.216-2.785-1.903-4.473-1.903
		c22.011-15.996,37.145-42.107,40.088-73.49C249.675,131.616,226.081,92.965,205.398,70.259z M178.383,465.086h-62.659
		l-5.145-134.536l72.931,0.024L178.383,465.086z M211.748,183.778c-2.799,30.101-24.041,60.584-59.17,60.609
		c-24.009-0.008-42.716-6.877-52.662-19.333c-7.637-9.528-9.983-22.032-6.802-36.15c3.218-14.303,13.373-22.453,25.138-31.891
		c7.983-6.424,16.649-13.564,23.138-23.022c4.933,2.065,10.479,5.874,16.555,13.051c14.59,17.234,37.444,17.436,52.098,2.545
		C212.036,159.945,212.921,171.258,211.748,183.778z"/>
	<path d="M429.195,148.04l-44.612-89.624c-1.448-2.906-3.764-5.014-6.494-6.411V8.227c0-4.547-3.696-8.227-8.227-8.227
		c-4.549,0-8.227,3.688-8.227,8.227v43.759c-2.735,1.399-5.064,3.514-6.513,6.43l-44.575,89.624
		c-1.141,2.275-1.719,4.79-1.719,7.326v317.947c0,9.085,7.356,16.456,16.454,16.456h89.173c9.08,0,16.46-7.371,16.46-16.456
		l0.013-317.947C430.927,152.824,430.331,150.315,429.195,148.04z M369.862,102.69l21.92,44.022h-43.809L369.862,102.69z
		 M398,456.855h-56.264V171.396h56.277L398,456.855z"/>
</g>
<g>
</g>
<g>
</g>
<g>
</g>
<g>
</g>
<g>
</g>
<g>
</g>
<g>
</g>
<g>
</g>
<g>
</g>
<g>
</g>
<g>
</g>
<g>
</g>
<g>
</g>
<g>
</g>
<g>
</g>
</svg>
