<?xml version="1.0" encoding="iso-8859-1"?>
<!-- Generator: Adobe Illustrator 18.0.0, SVG Export Plug-In . SVG Version: 6.00 Build 0)  -->
<!DOCTYPE svg PUBLIC "-//W3C//DTD SVG 1.1//EN" "http://www.w3.org/Graphics/SVG/1.1/DTD/svg11.dtd">
<svg version="1.1" id="Capa_1" xmlns="http://www.w3.org/2000/svg" xmlns:xlink="http://www.w3.org/1999/xlink" x="0px" y="0px"
	 viewBox="0 0 494.806 494.806" style="enable-background:new 0 0 494.806 494.806;" xml:space="preserve">
<g>
	<path d="M193.835,412.82c-3.971,11.83-10.144,23.331-18.855,33.829c-19.403,23.395-44.823,39.039-73.43,45.877
		c12.369,1.458,25.544,2.28,39.318,2.28c68.353,0,205.441-0.442,205.441-24.498C346.31,451.543,262.958,424.053,193.835,412.82z"/>
	<path d="M149.837,425.794c20.693-24.949,22.932-60.084,0-83.002c-15.34-15.338-31.127-22.257-45.288-22.257
		c-15.289,0-28.727,8.038-37.71,22.257c-15.354,24.256,1.902,48.57-7.725,68.777c-11.789,24.79-32.076,27.418-44.915,27.418
		c-3.45,0-6.371-0.193-8.421-0.193c-3.565,0-4.597,0.564-1.548,3.628c11.498,11.478,36.259,21.435,63.996,21.435
		C95.87,463.857,126.482,453.964,149.837,425.794z"/>
	<path d="M481.574,10.408c-13.483-13.493-36.885-13.919-50.853-0.97L140.278,278.88c-5.238,4.859-8.274,11.64-8.41,18.783
		c-0.136,7.143,2.639,14.035,7.688,19.09l35.783,35.826c5.055,5.061,11.952,7.845,19.103,7.711c7.151-0.134,13.94-3.174,18.801-8.42
		L482.56,61.251C496.012,46.751,495.592,24.414,481.574,10.408z"/>
</g>
<g>
</g>
<g>
</g>
<g>
</g>
<g>
</g>
<g>
</g>
<g>
</g>
<g>
</g>
<g>
</g>
<g>
</g>
<g>
</g>
<g>
</g>
<g>
</g>
<g>
</g>
<g>
</g>
<g>
</g>
</svg>
