<?xml version="1.0" encoding="iso-8859-1"?>
<!-- Generator: Adobe Illustrator 18.0.0, SVG Export Plug-In . SVG Version: 6.00 Build 0)  -->
<!DOCTYPE svg PUBLIC "-//W3C//DTD SVG 1.1//EN" "http://www.w3.org/Graphics/SVG/1.1/DTD/svg11.dtd">
<svg version="1.1" id="Capa_1" xmlns="http://www.w3.org/2000/svg" xmlns:xlink="http://www.w3.org/1999/xlink" x="0px" y="0px"
	 viewBox="0 0 493.391 493.391" style="enable-background:new 0 0 493.391 493.391;" xml:space="preserve">
<path d="M269.71,215.373h199.375V19.609C469.085,8.774,460.314,0,449.476,0H85.702C74.851,0,66.093,8.774,66.093,19.609v109.205
	c-24.209,8.225-41.787,30.918-41.787,57.885V309.32c0,26.949,17.578,49.625,41.787,57.867v106.592
	c0,10.838,8.758,19.611,19.609,19.611h363.773c10.838,0,19.609-8.773,19.609-19.611V278.016H269.71h-41.773v31.305
	c0,10.838-8.77,19.611-19.623,19.611H85.702c-10.852,0-19.609-8.773-19.609-19.611V186.699c0-10.855,8.758-19.629,19.609-19.629
	h122.611c10.854,0,19.623,8.773,19.623,19.629v28.674H269.71z"/>
<g>
</g>
<g>
</g>
<g>
</g>
<g>
</g>
<g>
</g>
<g>
</g>
<g>
</g>
<g>
</g>
<g>
</g>
<g>
</g>
<g>
</g>
<g>
</g>
<g>
</g>
<g>
</g>
<g>
</g>
</svg>
