<?xml version="1.0" encoding="iso-8859-1"?>
<!-- Generator: Adobe Illustrator 18.0.0, SVG Export Plug-In . SVG Version: 6.00 Build 0)  -->
<!DOCTYPE svg PUBLIC "-//W3C//DTD SVG 1.1//EN" "http://www.w3.org/Graphics/SVG/1.1/DTD/svg11.dtd">
<svg version="1.1" id="Capa_1" xmlns="http://www.w3.org/2000/svg" xmlns:xlink="http://www.w3.org/1999/xlink" x="0px" y="0px"
	 viewBox="0 0 489.597 489.597" style="enable-background:new 0 0 489.597 489.597;" xml:space="preserve">
<g>
	<path d="M481.357,8.24C466.74-6.37,434.83-0.935,395.085,19.663l74.841,74.852C490.534,54.751,495.96,22.859,481.357,8.24z"/>
	<path d="M30.606,447.329L2.418,475.527c-3.221,3.218-3.221,8.434,0,11.655c1.608,1.61,3.721,2.415,5.825,2.415
		c2.112,0,4.22-0.805,5.827-2.415l28.207-28.204c13.186,1.063,36.563-8.92,65.393-25.793l-51.274-51.257
		C39.524,410.776,29.529,434.16,30.606,447.329z"/>
	<path d="M433.655,151.496l-95.561-95.57c-24.904,18.385-50.902,40.617-76.455,66.175
		c-55.522,55.525-137.418,154.653-187.356,231.074l62.125,62.141c76.435-49.946,175.559-131.84,231.07-187.364
		C393.037,202.394,415.272,176.402,433.655,151.496z"/>
	<path d="M380.752,28.647c-6.437-6.441-16.865-6.441-23.309,0c-6.436,6.44-6.436,16.872,0,23.31l94.68,94.695l-4.09,18.989
		l-3.83,17.772c-9.582,44.313-44.371,79.215-88.64,88.906l-8.454,1.851c-29.396,6.44-51.903,29.725-57.325,59.316
		c-1.644,8.96,4.28,17.548,13.229,19.189c1.016,0.185,2.014,0.275,2.996,0.275c7.806,0,14.746-5.563,16.192-13.508
		c3.028-16.5,15.57-29.477,31.96-33.058l8.449-1.852c56.849-12.453,101.521-57.263,113.821-114.165l3.828-17.79l5.991-27.754
		c1.174-5.473-0.498-11.172-4.457-15.133L380.752,28.647z"/>
</g>
<g>
</g>
<g>
</g>
<g>
</g>
<g>
</g>
<g>
</g>
<g>
</g>
<g>
</g>
<g>
</g>
<g>
</g>
<g>
</g>
<g>
</g>
<g>
</g>
<g>
</g>
<g>
</g>
<g>
</g>
</svg>
