<?xml version="1.0" encoding="iso-8859-1"?>
<!-- Generator: Adobe Illustrator 18.0.0, SVG Export Plug-In . SVG Version: 6.00 Build 0)  -->
<!DOCTYPE svg PUBLIC "-//W3C//DTD SVG 1.1//EN" "http://www.w3.org/Graphics/SVG/1.1/DTD/svg11.dtd">
<svg version="1.1" id="Capa_1" xmlns="http://www.w3.org/2000/svg" xmlns:xlink="http://www.w3.org/1999/xlink" x="0px" y="0px"
	 viewBox="0 0 480.501 480.501" style="enable-background:new 0 0 480.501 480.501;" xml:space="preserve">
<g>
	<path d="M476.602,251.007c5.199-6.229,5.199-15.284,0-21.513l-35.859-42.964l9.572-55.139c1.388-7.993-3.14-15.835-10.756-18.63
		L387.021,93.48l-19.28-52.538c-2.795-7.616-10.637-12.144-18.63-10.756l-55.139,9.572L251.007,3.899
		c-6.229-5.199-15.284-5.199-21.513,0l-42.965,35.859l-55.139-9.572c-7.993-1.388-15.835,3.14-18.63,10.756L93.48,93.48
		L40.942,112.76c-7.616,2.795-12.144,10.637-10.756,18.631l9.572,55.139L3.899,229.494c-5.199,6.229-5.199,15.284,0,21.513
		l35.859,42.965l-9.572,55.139c-1.388,7.993,3.14,15.836,10.756,18.631l52.537,19.28l19.28,52.538
		c2.795,7.616,10.637,12.144,18.631,10.756l55.139-9.572l42.965,35.859c6.229,5.199,15.284,5.199,21.513,0l42.965-35.859
		l55.138,9.572c7.993,1.388,15.836-3.14,18.631-10.756l19.28-52.538l52.537-19.28c7.616-2.795,12.144-10.637,10.756-18.63
		l-9.572-55.139L476.602,251.007z M240.25,415.905c-97.012,0-175.655-78.643-175.655-175.654
		c0-97.011,78.643-175.654,175.655-175.654c97.011,0,175.655,78.643,175.655,175.654
		C415.905,337.262,337.261,415.905,240.25,415.905z"/>
	<path d="M257.442,95.944v288.614c72.156-8.506,128.132-69.865,128.132-144.307C385.574,165.808,329.598,104.45,257.442,95.944z"/>
	<path d="M94.926,240.251c0,74.442,55.976,135.801,128.132,144.307V95.944C150.902,104.45,94.926,165.808,94.926,240.251z"/>
</g>
<g>
</g>
<g>
</g>
<g>
</g>
<g>
</g>
<g>
</g>
<g>
</g>
<g>
</g>
<g>
</g>
<g>
</g>
<g>
</g>
<g>
</g>
<g>
</g>
<g>
</g>
<g>
</g>
<g>
</g>
</svg>
