<?xml version="1.0" encoding="iso-8859-1"?>
<!-- Generator: Adobe Illustrator 18.0.0, SVG Export Plug-In . SVG Version: 6.00 Build 0)  -->
<!DOCTYPE svg PUBLIC "-//W3C//DTD SVG 1.1//EN" "http://www.w3.org/Graphics/SVG/1.1/DTD/svg11.dtd">
<svg version="1.1" id="Capa_1" xmlns="http://www.w3.org/2000/svg" xmlns:xlink="http://www.w3.org/1999/xlink" x="0px" y="0px"
	 viewBox="0 0 488.604 488.604" style="enable-background:new 0 0 488.604 488.604;" xml:space="preserve">
<g>
	<path d="M244.304,0.004C109.593,0.004,0,109.598,0,244.306C0,379.011,109.593,488.6,244.304,488.6
		c134.708,0,244.3-109.589,244.3-244.294C488.604,109.598,379.012,0.004,244.304,0.004z M244.304,455.54
		c-116.487,0-211.243-94.758-211.243-211.234c0-116.477,94.756-211.241,211.243-211.241c116.483,0,211.239,94.764,211.239,211.241
		C455.543,360.782,360.788,455.54,244.304,455.54z"/>
	<path d="M244.304,138.443c-58.376,0-105.866,47.493-105.866,105.862c0,58.372,47.491,105.857,105.866,105.857
		c58.37,0,105.861-47.485,105.861-105.857C350.165,185.936,302.674,138.443,244.304,138.443z M244.304,325.367
		c-44.699,0-81.068-36.361-81.068-81.062c0-44.699,36.369-81.066,81.068-81.066c44.699,0,81.064,36.367,81.064,81.066
		C325.368,289.006,289.004,325.367,244.304,325.367z"/>
	<path d="M244.304,174.224c-38.646,0-70.094,31.439-70.094,70.082c0,38.64,31.448,70.077,70.094,70.077
		c38.642,0,70.09-31.438,70.09-70.077C314.394,205.663,282.946,174.224,244.304,174.224z M244.304,281.323
		c-20.404,0-37.032-16.602-37.032-37.017c0-20.41,16.628-37.024,37.032-37.024c20.405,0,37.028,16.614,37.028,37.024
		C281.333,264.721,264.709,281.323,244.304,281.323z"/>
</g>
<g>
</g>
<g>
</g>
<g>
</g>
<g>
</g>
<g>
</g>
<g>
</g>
<g>
</g>
<g>
</g>
<g>
</g>
<g>
</g>
<g>
</g>
<g>
</g>
<g>
</g>
<g>
</g>
<g>
</g>
</svg>
