<?xml version="1.0" encoding="iso-8859-1"?>
<!-- Generator: Adobe Illustrator 18.0.0, SVG Export Plug-In . SVG Version: 6.00 Build 0)  -->
<!DOCTYPE svg PUBLIC "-//W3C//DTD SVG 1.1//EN" "http://www.w3.org/Graphics/SVG/1.1/DTD/svg11.dtd">
<svg version="1.1" id="Capa_1" xmlns="http://www.w3.org/2000/svg" xmlns:xlink="http://www.w3.org/1999/xlink" x="0px" y="0px"
	 viewBox="0 0 497.102 497.102" style="enable-background:new 0 0 497.102 497.102;" xml:space="preserve">
<g>
	<path d="M107.832,9.532H16.225C7.26,9.532,0,16.79,0,25.757v91.607c0,8.967,7.26,16.225,16.225,16.225h91.607
		c8.969,0,16.225-7.258,16.225-16.225V25.757C124.057,16.79,116.801,9.532,107.832,9.532z M91.607,101.14H32.436V41.966h59.172
		V101.14z"/>
	<path d="M294.355,9.532h-91.607c-8.971,0-16.225,7.258-16.225,16.225v91.607c0,8.967,7.254,16.225,16.225,16.225h91.607
		c8.969,0,16.225-7.258,16.225-16.225V25.757C310.58,16.79,303.324,9.532,294.355,9.532z M278.131,101.14h-59.174V41.966h59.174
		V101.14z"/>
	<path d="M480.877,9.532H389.27c-8.969,0-16.225,7.258-16.225,16.225v91.607c0,8.967,7.256,16.225,16.225,16.225h91.608
		c8.969,0,16.225-7.258,16.225-16.225V25.757C497.102,16.79,489.846,9.532,480.877,9.532z M464.666,101.14h-59.172V41.966h59.172
		V101.14z"/>
	<path d="M107.832,186.538H16.225C7.26,186.538,0,193.763,0,202.729v91.643c0,8.951,7.26,16.191,16.225,16.191h91.607
		c8.969,0,16.225-7.24,16.225-16.191v-91.643C124.057,193.763,116.801,186.538,107.832,186.538z M91.607,278.146H32.436v-59.189
		h59.172V278.146z"/>
	<path d="M294.355,186.538h-91.607c-8.971,0-16.225,7.225-16.225,16.191v91.643c0,8.951,7.254,16.191,16.225,16.191h91.607
		c8.969,0,16.225-7.24,16.225-16.191v-91.643C310.58,193.763,303.324,186.538,294.355,186.538z"/>
	<path d="M480.877,186.538H389.27c-8.969,0-16.225,7.225-16.225,16.191v91.643c0,8.951,7.256,16.191,16.225,16.191h91.608
		c8.969,0,16.225-7.24,16.225-16.191v-91.643C497.102,193.763,489.846,186.538,480.877,186.538z M464.666,278.146h-59.172v-59.189
		h59.172V278.146z"/>
	<path d="M107.832,363.513H16.225C7.26,363.513,0,370.771,0,379.737v91.607c0,8.967,7.26,16.225,16.225,16.225h91.607
		c8.969,0,16.225-7.258,16.225-16.225v-91.607C124.057,370.771,116.801,363.513,107.832,363.513z M91.607,455.136H32.436v-59.174
		h59.172V455.136z"/>
	<path d="M294.355,363.513h-91.607c-8.971,0-16.225,7.258-16.225,16.225v91.607c0,8.967,7.254,16.225,16.225,16.225h91.607
		c8.969,0,16.225-7.258,16.225-16.225v-91.607C310.58,370.771,303.324,363.513,294.355,363.513z M278.131,455.136h-59.174v-59.174
		h59.174V455.136z"/>
	<path d="M480.877,363.513H389.27c-8.969,0-16.225,7.258-16.225,16.225v91.607c0,8.967,7.256,16.225,16.225,16.225h91.608
		c8.969,0,16.225-7.258,16.225-16.225v-91.607C497.102,370.771,489.846,363.513,480.877,363.513z M464.666,455.136h-59.172v-59.174
		h59.172V455.136z"/>
</g>
<g>
</g>
<g>
</g>
<g>
</g>
<g>
</g>
<g>
</g>
<g>
</g>
<g>
</g>
<g>
</g>
<g>
</g>
<g>
</g>
<g>
</g>
<g>
</g>
<g>
</g>
<g>
</g>
<g>
</g>
</svg>
