<?xml version="1.0" encoding="iso-8859-1"?>
<!-- Generator: Adobe Illustrator 18.0.0, SVG Export Plug-In . SVG Version: 6.00 Build 0)  -->
<!DOCTYPE svg PUBLIC "-//W3C//DTD SVG 1.1//EN" "http://www.w3.org/Graphics/SVG/1.1/DTD/svg11.dtd">
<svg version="1.1" id="Capa_1" xmlns="http://www.w3.org/2000/svg" xmlns:xlink="http://www.w3.org/1999/xlink" x="0px" y="0px"
	 viewBox="0 0 487.025 487.025" style="enable-background:new 0 0 487.025 487.025;" xml:space="preserve">
<g>
	<path d="M469.87,29.312H17.152C7.671,29.312,0,36.987,0,46.467v69.405c0,9.481,7.671,17.157,17.152,17.157H469.87
		c9.483,0,17.155-7.677,17.155-17.157V46.467C487.025,36.987,479.353,29.312,469.87,29.312z"/>
	<path d="M469.87,191.656H17.152C7.671,191.656,0,199.329,0,208.809v69.407c0,9.482,7.671,17.155,17.152,17.155H469.87
		c9.483,0,17.155-7.673,17.155-17.155v-69.407C487.025,199.329,479.353,191.656,469.87,191.656z"/>
	<path d="M348.115,353.998H138.908c-9.48,0-17.157,7.675-17.157,17.153v69.407c0,9.482,7.677,17.155,17.157,17.155h209.207
		c9.479,0,17.15-7.673,17.15-17.155v-69.407C365.266,361.672,357.595,353.998,348.115,353.998z"/>
</g>
<g>
</g>
<g>
</g>
<g>
</g>
<g>
</g>
<g>
</g>
<g>
</g>
<g>
</g>
<g>
</g>
<g>
</g>
<g>
</g>
<g>
</g>
<g>
</g>
<g>
</g>
<g>
</g>
<g>
</g>
</svg>
