<?xml version="1.0" encoding="iso-8859-1"?>
<!-- Generator: Adobe Illustrator 18.0.0, SVG Export Plug-In . SVG Version: 6.00 Build 0)  -->
<!DOCTYPE svg PUBLIC "-//W3C//DTD SVG 1.1//EN" "http://www.w3.org/Graphics/SVG/1.1/DTD/svg11.dtd">
<svg version="1.1" id="Capa_1" xmlns="http://www.w3.org/2000/svg" xmlns:xlink="http://www.w3.org/1999/xlink" x="0px" y="0px"
	 viewBox="0 0 483.03 483.03" style="enable-background:new 0 0 483.03 483.03;" xml:space="preserve">
<path d="M473.169,95.254l-17.123-17.121c-104.19-104.173-273.715-104.173-377.905,0c-104.188,104.188-104.188,273.729,0,377.918
	l17.112,17.121c6.315,6.306,14.869,9.853,23.786,9.853c8.918,0,17.485-3.548,23.793-9.853l16.219-16.218l-26.245-26.261
	c-3.171-3.169-3.171-8.302,0-11.468c3.167-3.167,8.298-3.167,11.464,0l26.25,26.263l29.46-29.461l-26.263-26.247
	c-3.167-3.167-3.167-8.298,0-11.469c3.167-3.166,8.298-3.166,11.469,0l26.257,26.248l29.448-29.445l-26.245-26.261
	c-3.171-3.169-3.171-8.302,0-11.469c3.167-3.167,8.298-3.167,11.465,0l26.249,26.263l29.441-29.444l-26.244-26.246
	c-3.166-3.167-3.166-8.3,0-11.468c3.167-3.167,8.299-3.167,11.469,0l26.244,26.245l29.442-29.445l-26.243-26.245
	c-3.167-3.167-3.167-8.3,0-11.467c3.167-3.168,8.302-3.168,11.469,0l26.243,26.244l29.446-29.445l-26.26-26.229
	c-3.167-3.168-3.167-8.3,0-11.469c3.166-3.166,8.295-3.166,11.468,0l26.257,26.23l29.447-29.444l-26.244-26.261
	c-3.172-3.167-3.172-8.3,0-11.467c3.167-3.169,8.299-3.169,11.465,0l26.248,26.259l29.442-29.445l-26.243-26.259
	c-3.167-3.168-3.167-8.3,0-11.469c3.167-3.166,8.302-3.166,11.468,0l26.244,26.264l16.25-16.251
	C486.316,129.688,486.316,108.401,473.169,95.254z M127.164,325.22c-22.728-54.943-11.785-120.628,32.787-165.247
	c44.621-44.571,110.305-55.518,165.249-32.786L127.164,325.22z"/>
<g>
</g>
<g>
</g>
<g>
</g>
<g>
</g>
<g>
</g>
<g>
</g>
<g>
</g>
<g>
</g>
<g>
</g>
<g>
</g>
<g>
</g>
<g>
</g>
<g>
</g>
<g>
</g>
<g>
</g>
</svg>
