<?xml version="1.0" encoding="iso-8859-1"?>
<!-- Generator: Adobe Illustrator 18.0.0, SVG Export Plug-In . SVG Version: 6.00 Build 0)  -->
<!DOCTYPE svg PUBLIC "-//W3C//DTD SVG 1.1//EN" "http://www.w3.org/Graphics/SVG/1.1/DTD/svg11.dtd">
<svg version="1.1" id="Capa_1" xmlns="http://www.w3.org/2000/svg" xmlns:xlink="http://www.w3.org/1999/xlink" x="0px" y="0px"
	 viewBox="0 0 484.396 484.396" style="enable-background:new 0 0 484.396 484.396;" xml:space="preserve">
<g>
	<path d="M201.21,0.64H16.882C7.556,0.64,0,8.201,0,17.515v184.339c0,9.314,7.556,16.874,16.882,16.874H201.21
		c9.325,0,16.881-7.561,16.881-16.874V17.515C218.091,8.201,210.535,0.64,201.21,0.64z M158.968,60.078
		c-1.523,5.953-7.461,9.598-13.449,8.285c-4.189-0.922-8.961-1.52-14.281-1.52c-23.406,0-41.58,14.118-41.58,43.13
		c0,26.109,15.467,42.553,41.781,42.553c4.363,0,8.964-0.466,13.199-1.214c6.411-1.134,12.538,3.079,13.783,9.481
		c1.259,6.466-2.933,12.727-9.386,14.043c-5.94,1.211-13.448,2.06-22.052,2.06c-45.057,0-68.271-28.048-68.271-65.187
		c0-44.482,31.716-69.239,71.168-69.239c7.279,0,13.719,0.701,19.025,1.722c3.498,0.68,6.551,2.766,8.457,5.766
		C159.27,52.967,159.855,56.629,158.968,60.078z"/>
	<path d="M282.599,218.728h184.333c9.321,0,16.882-7.561,16.882-16.874V17.515c0-9.314-7.561-16.875-16.882-16.875H282.599
		c-9.322,0-16.881,7.561-16.881,16.875v184.339C265.718,211.167,273.276,218.728,282.599,218.728z M303.689,160.503l6.521-102.276
		c0.507-7.717,6.898-13.726,14.633-13.726h14.549c6.508,0,12.24,4.293,14.066,10.537l9.667,32.979
		c4.065,15.086,8.131,31.34,11.026,46.616h0.586c3.664-15.086,8.126-32.302,12.375-46.807l10.65-33.151
		c1.948-6.063,7.588-10.175,13.966-10.175h13.923c7.781,0,14.208,6.08,14.633,13.853l5.576,101.448
		c0.217,3.922-1.186,7.749-3.875,10.6c-2.713,2.851-6.459,4.464-10.381,4.464c-7.668,0-13.973-6.063-14.267-13.725l-1.4-36.177
		c-0.586-15.67-1.17-34.624-1.17-53.578h-0.58c-4.063,16.632-9.463,35.198-14.506,50.484l-12.646,40.572
		c-1.905,6.125-7.574,10.298-14.001,10.298h-1.057c-6.598,0-12.376-4.4-14.14-10.756l-10.963-39.727
		c-4.254-15.278-8.693-33.846-11.798-50.871H334.7c-0.775,17.6-1.353,37.72-2.332,53.965l-1.713,36.641
		c-0.336,7.206-6.273,12.875-13.483,12.875c-3.731,0-7.292-1.543-9.845-4.261C304.762,167.881,303.454,164.228,303.689,160.503z"/>
	<path d="M467.515,265.667h-184.33c-9.326,0-16.885,7.561-16.885,16.875V466.88c0,9.315,7.559,16.875,16.885,16.875h184.33
		c9.322,0,16.881-7.56,16.881-16.875V282.542C484.396,273.228,476.837,265.667,467.515,265.667z M421.181,432.459
		c-2.582,4.591-7.452,7.434-12.711,7.434c-5.258,0-10.109-2.825-12.693-7.394l-27.737-48.892l-11.211,13.734v27.953
		c0,8.063-6.535,14.599-14.601,14.599c-8.063,0-14.6-6.536-14.6-14.599V324.129c0-8.064,6.537-14.6,14.6-14.6
		c8.065,0,14.601,6.536,14.601,14.6v43.036h0.585c2.897-5.025,5.996-9.671,8.897-14.311l25.402-37.191
		c2.615-3.841,6.96-6.134,11.607-6.134c5.371,0,10.285,3.056,12.647,7.883c2.348,4.819,1.766,10.568-1.525,14.812l-25.502,32.813
		l32.004,52.69C423.667,422.238,423.763,427.868,421.181,432.459z"/>
	<path d="M200.54,264.922H17.283c-9.323,0-16.882,7.56-16.882,16.875v184.338c0,9.315,7.559,16.876,16.882,16.876H200.54
		c9.323,0,16.882-7.561,16.882-16.876V281.797C217.422,272.482,209.863,264.922,200.54,264.922z M152.145,329.54l-30.479,56.962
		v38.681c0,7.455-5.494,14.556-12.755,14.556c-7.261,0-12.754-7.101-12.754-14.556v-38.681L65.679,329.54
		c-2.252-4.213-2.127-9.309,0.332-13.403c2.455-4.103,6.882-6.616,11.672-6.616h1.938c5.449,0,10.375,3.253,12.516,8.269
		l9.828,23.065c2.697,6.293,4.799,11.478,6.864,16.741v0.425c0.028-0.071,0.056-0.142,0.083-0.212
		c0.028,0.071,0.057,0.142,0.084,0.212v-0.425c2.065-5.264,4.166-10.448,6.864-16.741l9.827-23.065
		c2.142-5.016,7.066-8.269,12.518-8.269h1.937c4.79,0,9.217,2.513,11.672,6.616C154.271,320.232,154.396,325.327,152.145,329.54z"/>
</g>
<g>
</g>
<g>
</g>
<g>
</g>
<g>
</g>
<g>
</g>
<g>
</g>
<g>
</g>
<g>
</g>
<g>
</g>
<g>
</g>
<g>
</g>
<g>
</g>
<g>
</g>
<g>
</g>
<g>
</g>
</svg>
