<?xml version="1.0" encoding="iso-8859-1"?>
<!-- Generator: Adobe Illustrator 18.0.0, SVG Export Plug-In . SVG Version: 6.00 Build 0)  -->
<!DOCTYPE svg PUBLIC "-//W3C//DTD SVG 1.1//EN" "http://www.w3.org/Graphics/SVG/1.1/DTD/svg11.dtd">
<svg version="1.1" id="Capa_1" xmlns="http://www.w3.org/2000/svg" xmlns:xlink="http://www.w3.org/1999/xlink" x="0px" y="0px"
	 viewBox="0 0 487.088 487.088" style="enable-background:new 0 0 487.088 487.088;" xml:space="preserve">
<path d="M447.888,145.846H341.249V39.191C341.249,17.58,323.669,0,302.055,0H39.201C17.591,0,0.008,17.58,0.008,39.191v262.857
	c0,21.611,17.583,39.19,39.193,39.19h106.657v106.658c0,21.609,17.579,39.191,39.189,39.191h262.84
	c21.614,0,39.192-17.582,39.192-39.191V185.039C487.08,163.428,469.502,145.846,447.888,145.846z M49.557,291.695V49.547h242.147
	v96.299H185.047c-21.61,0-39.189,17.582-39.189,39.193v106.656H49.557z M437.532,437.541H195.403v-96.303h106.652
	c21.614,0,39.193-17.578,39.193-39.19V195.393h96.283V437.541z"/>
<g>
</g>
<g>
</g>
<g>
</g>
<g>
</g>
<g>
</g>
<g>
</g>
<g>
</g>
<g>
</g>
<g>
</g>
<g>
</g>
<g>
</g>
<g>
</g>
<g>
</g>
<g>
</g>
<g>
</g>
</svg>
