<?xml version="1.0" encoding="iso-8859-1"?>
<!-- Generator: Adobe Illustrator 18.0.0, SVG Export Plug-In . SVG Version: 6.00 Build 0)  -->
<!DOCTYPE svg PUBLIC "-//W3C//DTD SVG 1.1//EN" "http://www.w3.org/Graphics/SVG/1.1/DTD/svg11.dtd">
<svg version="1.1" id="Capa_1" xmlns="http://www.w3.org/2000/svg" xmlns:xlink="http://www.w3.org/1999/xlink" x="0px" y="0px"
	 viewBox="0 0 483.512 483.512" style="enable-background:new 0 0 483.512 483.512;" xml:space="preserve">
<path d="M373.973,297.37h-20.613c-3.482,0-6.256,2.492-6.998,5.758h-28.109l-39-114.155c10.711-10.033,17.5-24.201,17.5-40.038
	c0-26.094-18.229-47.836-42.611-53.48V72.068c3.967-0.477,7.08-3.718,7.08-7.815V19.465C261.221,8.716,252.51,0,241.754,0
	c-10.756,0-19.467,8.716-19.467,19.465v44.788c0,4.097,3.113,7.338,7.08,7.815v23.377c-24.383,5.629-42.625,27.386-42.625,53.49
	c0,15.847,6.789,30.015,17.514,40.055l-39,114.139h-28.109c-0.742-3.266-3.516-5.758-6.998-5.758h-20.613
	c-10.016,0-18.143,8.121-18.143,18.146c0,10.021,8.127,18.143,18.143,18.143h20.613c3.482,0,6.256-2.492,6.998-5.758h19.643
	l-33.287,97.472c-1.014,2.976,0.58,6.226,3.547,7.242l5.693,1.942l-13,38.03c-1.482,4.316,0.824,9.008,5.133,10.485
	c0.885,0.297,1.787,0.442,2.676,0.442c3.438,0,6.643-2.151,7.805-5.588l12.998-38.037l5.695,1.941
	c2.967,1.018,6.209-0.571,7.227-3.547L198.98,327.9h26.258v13.161c0,9.121,7.385,16.515,16.516,16.515
	c9.131,0,16.516-7.394,16.516-16.515V327.9h26.258l37.705,110.382c1.018,2.976,4.26,4.565,7.227,3.547l5.695-1.941l12.998,38.037
	c1.162,3.437,4.367,5.588,7.805,5.588c0.889,0,1.791-0.145,2.676-0.442c4.309-1.477,6.615-6.168,5.133-10.485l-13-38.03l5.693-1.942
	c2.967-1.016,4.561-4.266,3.547-7.242L326.719,327.9h19.643c0.742,3.266,3.516,5.758,6.998,5.758h20.613
	c10.016,0,18.146-8.122,18.146-18.143C392.119,305.491,383.988,297.37,373.973,297.37z M258.27,303.128v-13.161
	c0-9.119-7.385-16.515-16.516-16.515c-9.131,0-16.516,7.396-16.516,16.515v13.161h-17.789l33.885-99.229
	c0.148,0,0.277,0.041,0.406,0.041c0.143,0,0.271-0.041,0.434-0.041l33.885,99.229H258.27z"/>
<g>
</g>
<g>
</g>
<g>
</g>
<g>
</g>
<g>
</g>
<g>
</g>
<g>
</g>
<g>
</g>
<g>
</g>
<g>
</g>
<g>
</g>
<g>
</g>
<g>
</g>
<g>
</g>
<g>
</g>
</svg>
