<?xml version="1.0" encoding="iso-8859-1"?>
<!-- Generator: Adobe Illustrator 18.0.0, SVG Export Plug-In . SVG Version: 6.00 Build 0)  -->
<!DOCTYPE svg PUBLIC "-//W3C//DTD SVG 1.1//EN" "http://www.w3.org/Graphics/SVG/1.1/DTD/svg11.dtd">
<svg version="1.1" id="Capa_1" xmlns="http://www.w3.org/2000/svg" xmlns:xlink="http://www.w3.org/1999/xlink" x="0px" y="0px"
	 viewBox="0 0 487.379 487.379" style="enable-background:new 0 0 487.379 487.379;" xml:space="preserve">
<g>
	<path d="M328.244,105.702l35.609,35.604c9.74,9.725,25.52,9.744,35.262,0l48.199-48.179c4.656-4.69,7.295-11.026,7.295-17.653
		c0-6.616-2.621-12.934-7.295-17.609L399.098,9.648c-9.738-9.736-25.538-9.736-35.281,0l-47.265,47.289
		C184.748,83.077,80.698,187.111,54.572,318.913l-47.265,47.27c-9.743,9.736-9.743,25.522,0,35.263l48.212,48.212
		c9.738,9.742,25.538,9.742,35.28,0l48.212-48.212c9.725-9.741,9.725-25.526,0-35.263l-35.655-35.642
		C125.069,217.013,214.686,127.412,328.244,105.702z"/>
	<path d="M472.915,306.681l-206.793-96.198c-8.142-3.792-17.752-2.899-25.085,2.331c-7.342,5.227-11.303,14.006-10.355,22.965
		l23.712,226.845c1.336,12.851,12.204,22.41,24.856,22.41c0.864,0,1.743-0.046,2.626-0.128c13.746-1.449,23.73-13.748,22.281-27.496
		l-19.125-182.93l166.774,77.58c12.542,5.801,27.413,0.373,33.231-12.137C490.865,327.401,485.444,312.51,472.915,306.681z"/>
</g>
<g>
</g>
<g>
</g>
<g>
</g>
<g>
</g>
<g>
</g>
<g>
</g>
<g>
</g>
<g>
</g>
<g>
</g>
<g>
</g>
<g>
</g>
<g>
</g>
<g>
</g>
<g>
</g>
<g>
</g>
</svg>
