<?xml version="1.0" encoding="iso-8859-1"?>
<!-- Generator: Adobe Illustrator 18.0.0, SVG Export Plug-In . SVG Version: 6.00 Build 0)  -->
<!DOCTYPE svg PUBLIC "-//W3C//DTD SVG 1.1//EN" "http://www.w3.org/Graphics/SVG/1.1/DTD/svg11.dtd">
<svg version="1.1" id="Capa_1" xmlns="http://www.w3.org/2000/svg" xmlns:xlink="http://www.w3.org/1999/xlink" x="0px" y="0px"
	 viewBox="0 0 488.788 488.788" style="enable-background:new 0 0 488.788 488.788;" xml:space="preserve">
<g>
	<path d="M462.882,325.833H401.6v51.832h61.281c14.307,0,25.906-11.604,25.906-25.919
		C488.788,337.428,477.188,325.833,462.882,325.833z"/>
	<path d="M164.965,27.908c0-14.315-11.609-25.913-25.919-25.913c-14.326,0-25.92,11.598-25.92,25.913V85.22h51.839V27.908z"/>
	<path d="M457.953,51.833c6.749-6.747,6.749-17.666,0-24.42c-6.761-6.747-17.673-6.747-24.439,0l-83.708,83.719
		c-0.018,0-0.018,0-0.031,0H25.905C11.6,111.133,0,122.728,0,137.045c0,14.315,11.6,25.92,25.905,25.92h272.059L164.965,295.973
		V188.877h-51.839v162.869c0,14.315,11.594,25.919,25.92,25.919h158.887v-51.832H183.949l139.921-139.9v274.94
		c0,14.315,11.596,25.919,25.905,25.919c14.306,0,25.919-11.604,25.919-25.919c0,0-0.16-325.615-0.269-326.501L457.953,51.833z"/>
</g>
<g>
</g>
<g>
</g>
<g>
</g>
<g>
</g>
<g>
</g>
<g>
</g>
<g>
</g>
<g>
</g>
<g>
</g>
<g>
</g>
<g>
</g>
<g>
</g>
<g>
</g>
<g>
</g>
<g>
</g>
</svg>
