<?xml version="1.0" encoding="iso-8859-1"?>
<!-- Generator: Adobe Illustrator 18.0.0, SVG Export Plug-In . SVG Version: 6.00 Build 0)  -->
<!DOCTYPE svg PUBLIC "-//W3C//DTD SVG 1.1//EN" "http://www.w3.org/Graphics/SVG/1.1/DTD/svg11.dtd">
<svg version="1.1" id="Capa_1" xmlns="http://www.w3.org/2000/svg" xmlns:xlink="http://www.w3.org/1999/xlink" x="0px" y="0px"
	 viewBox="0 0 492.416 492.416" style="enable-background:new 0 0 492.416 492.416;" xml:space="preserve">
<g>
	<path d="M179.976,398.736c-8.004-6.2-13.338-14.763-15.7-24.113l-16.471,16.47c-6.363,6.359-14.689,9.543-23.025,9.543
		c-8.341,0-16.665-3.184-23.032-9.543c-12.714-12.716-12.714-33.341,0-46.057l16.744-16.743c-10.501-1.515-20.4-6.696-27.553-15.244
		l-8.049-9.622c-3.207-3.839-8.402-5.42-13.199-4.034c-4.828,1.398-8.354,5.501-9.029,10.458l-1.667,12.387
		c-2.548,19.083-17.208,34.304-36.163,37.598l-12.35,2.158c-4.937,0.857-8.899,4.546-10.104,9.415
		c-1.219,4.857,0.564,9.973,4.541,13.045l9.94,7.681c15.233,11.772,21.073,32.034,14.465,50.107L25.031,454
		c-1.734,4.707-0.516,9.983,3.092,13.455c3.611,3.472,8.935,4.49,13.57,2.589l11.591-4.755c17.802-7.305,38.268-2.246,50.618,12.518
		l8.065,9.631c3.206,3.839,8.367,5.42,13.193,4.034c4.798-1.388,8.354-5.496,9.013-10.458l1.672-12.438
		c2.58-19.065,17.208-34.27,36.178-37.582l12.331-2.148c4.941-0.858,8.902-4.554,10.107-9.421c1.184-4.859-0.596-9.966-4.554-13.029
		L179.976,398.736z"/>
	<path d="M473.161,19.713C460.736,7.292,444.236,0.45,426.657,0.45l-1.798,0.025c-17.96,0.505-35.136,8.467-47.129,21.858
		L240.662,175.534c-15.398,17.223-17.643,41.615-7.49,61.117L113.263,356.55c-6.367,6.359-6.367,16.663,0,23.029
		c3.176,3.184,7.346,4.771,11.517,4.771c4.17,0,8.336-1.587,11.512-4.771l119.895-119.891c7.647,3.983,16.083,6.335,24.968,6.335
		c13.377,0,26.219-4.916,36.196-13.839l153.167-137.053c13.41-12.02,21.381-29.195,21.875-47.117
		C492.886,50.054,485.879,32.455,473.161,19.713z M448.802,90.868L295.62,227.918c-8.324,7.451-21.938,7.048-29.846-0.858
		c-8.148-8.129-8.517-21.223-0.852-29.812L401.99,44.071c6.049-6.758,14.724-10.784,24.668-11.047
		c8.885,0,17.209,3.454,23.458,9.709c6.433,6.432,9.962,15.308,9.708,24.383C459.58,76.146,455.557,84.806,448.802,90.868z"/>
</g>
<g>
</g>
<g>
</g>
<g>
</g>
<g>
</g>
<g>
</g>
<g>
</g>
<g>
</g>
<g>
</g>
<g>
</g>
<g>
</g>
<g>
</g>
<g>
</g>
<g>
</g>
<g>
</g>
<g>
</g>
</svg>
