<?xml version="1.0" encoding="iso-8859-1"?>
<!-- Generator: Adobe Illustrator 18.0.0, SVG Export Plug-In . SVG Version: 6.00 Build 0)  -->
<!DOCTYPE svg PUBLIC "-//W3C//DTD SVG 1.1//EN" "http://www.w3.org/Graphics/SVG/1.1/DTD/svg11.dtd">
<svg version="1.1" id="Capa_1" xmlns="http://www.w3.org/2000/svg" xmlns:xlink="http://www.w3.org/1999/xlink" x="0px" y="0px"
	 viewBox="0 0 485.133 485.133" style="enable-background:new 0 0 485.133 485.133;" xml:space="preserve">
<g>
	<path d="M241.937,0C116.554,0,13.076,95.641,0.628,217.793h50.061c12.227-94.754,93.221-168.25,191.248-168.25
		c98.025,0,179.023,73.496,191.246,168.25h-43.805c-3.723-22.24-12.383-42.836-24.772-60.625L328.8,192.973
		c8.389,14.643,13.258,31.547,13.258,49.594c0,55.205-44.914,100.123-100.121,100.123c-55.209,0-100.125-44.918-100.125-100.123
		c0-55.207,44.916-100.123,100.125-100.123c19.225,0,37.125,5.533,52.383,14.951l35.66-35.645
		c-24.711-18.111-55.109-28.854-88.043-28.854c-82.527,0-149.668,67.141-149.668,149.67c0,74.076,54.141,135.572,124.895,147.443
		v43.805c-86.609-11.178-155.281-79.898-166.475-166.477H0.628c12.448,122.156,115.926,217.795,241.309,217.795
		c133.75,0,242.568-108.816,242.568-242.566C484.505,108.814,375.687,0,241.937,0z M266.708,433.815V390.01
		c62.672-10.516,112.156-59.996,122.67-122.672h43.805C422.007,353.947,353.317,422.637,266.708,433.815z"/>
	<path d="M241.937,187.859c-30.223,0-54.707,24.498-54.707,54.707c0,30.207,24.484,54.705,54.707,54.705
		c30.225,0,54.705-24.498,54.705-54.705C296.642,212.357,272.161,187.859,241.937,187.859z"/>
</g>
<g>
</g>
<g>
</g>
<g>
</g>
<g>
</g>
<g>
</g>
<g>
</g>
<g>
</g>
<g>
</g>
<g>
</g>
<g>
</g>
<g>
</g>
<g>
</g>
<g>
</g>
<g>
</g>
<g>
</g>
</svg>
