<?xml version="1.0" encoding="iso-8859-1"?>
<!-- Generator: Adobe Illustrator 18.0.0, SVG Export Plug-In . SVG Version: 6.00 Build 0)  -->
<!DOCTYPE svg PUBLIC "-//W3C//DTD SVG 1.1//EN" "http://www.w3.org/Graphics/SVG/1.1/DTD/svg11.dtd">
<svg version="1.1" id="Capa_1" xmlns="http://www.w3.org/2000/svg" xmlns:xlink="http://www.w3.org/1999/xlink" x="0px" y="0px"
	 viewBox="0 0 493.828 493.828" style="enable-background:new 0 0 493.828 493.828;" xml:space="preserve">
<path d="M348.332,206.048h-9.815V60.466h4.063c7.669,0,13.888-6.216,13.888-13.881V13.883C356.468,6.218,350.249,0,342.58,0h-32.689
	c-7.675,0-13.893,6.218-13.893,13.883v32.702c0,7.666,6.218,13.881,13.893,13.881h4.076V150.4
	c-24.085-36.731-61.586-63.767-105.492-74.333V65.31c0-10.366-8.408-18.764-18.768-18.764h-44.211
	c-10.355,0-18.764,8.398-18.764,18.764v44.218c0,10.366,8.408,18.766,18.764,18.766h44.211c10.262,0,18.545-8.256,18.703-18.476
	c45.939,13.785,82.124,50.196,95.647,96.245c-10.326,0.048-18.687,8.417-18.687,18.748v44.195c0,10.19,8.154,18.382,18.271,18.661
	c-13.924,45.41-49.996,81.159-95.549,94.713c-0.995-9.423-8.697-16.864-18.385-16.864h-44.211c-10.355,0-18.764,8.4-18.764,18.766
	v44.211c0,10.366,8.408,18.764,18.764,18.764h44.211c10.359,0,18.768-8.398,18.768-18.764v-12.443
	c43.906-10.566,81.407-37.602,105.492-74.325v91.625h-4.076c-7.675,0-13.893,6.218-13.893,13.883v32.711
	c0,7.664,6.218,13.881,13.893,13.881h32.689c7.669,0,13.888-6.218,13.888-13.881v-32.711c0-7.665-6.219-13.883-13.888-13.883h-4.063
	V287.773h9.815c10.358,0,18.763-8.4,18.763-18.766v-44.195C367.095,214.448,358.691,206.048,348.332,206.048z"/>
<g>
</g>
<g>
</g>
<g>
</g>
<g>
</g>
<g>
</g>
<g>
</g>
<g>
</g>
<g>
</g>
<g>
</g>
<g>
</g>
<g>
</g>
<g>
</g>
<g>
</g>
<g>
</g>
<g>
</g>
</svg>
