<?xml version="1.0" encoding="iso-8859-1"?>
<!-- Generator: Adobe Illustrator 18.0.0, SVG Export Plug-In . SVG Version: 6.00 Build 0)  -->
<!DOCTYPE svg PUBLIC "-//W3C//DTD SVG 1.1//EN" "http://www.w3.org/Graphics/SVG/1.1/DTD/svg11.dtd">
<svg version="1.1" id="Capa_1" xmlns="http://www.w3.org/2000/svg" xmlns:xlink="http://www.w3.org/1999/xlink" x="0px" y="0px"
	 viewBox="0 0 491.232 491.232" style="enable-background:new 0 0 491.232 491.232;" xml:space="preserve">
<path d="M470.465,403.241h-4.167l-38.763-73.652l34.581-157.677c3.545-16.168,0.578-32.742-8.347-46.68
	c-8.917-13.934-22.739-23.565-38.907-27.107l-76.905-16.861c-2.891-20.97-18.261-37.824-38.494-42.794V12.255
	C299.464,5.489,293.973,0,287.205,0c-6.767,0-12.257,5.489-12.257,12.255v26.214c-22.454,5.522-39.195,25.654-39.195,49.825v35.534
	c0,4.78,3.878,8.65,8.653,8.65h85.619c4.773,0,8.65-3.87,8.65-8.65v-17.315l70.94,15.552c20.171,4.428,32.972,24.433,28.566,44.598
	l-28.362,129.277l-29.284-55.634c-6.063-11.53-18.034-18.753-31.054-18.753H141.72c-13.024,0-24.989,7.223-31.053,18.753
	L24.899,403.241h-4.134c-9.017,0-16.34,7.316-16.34,16.341c0,9.026,7.323,16.342,16.34,16.342h19.168v42.045
	c0,7.325,5.936,13.263,13.277,13.263h51.292c7.342,0,13.279-5.938,13.279-13.263v-42.045h255.667v42.045
	c0,7.325,5.939,13.263,13.261,13.263h51.313c7.322,0,13.261-5.938,13.261-13.263v-42.045h19.183c9.02,0,16.342-7.316,16.342-16.342
	C486.807,410.557,479.485,403.241,470.465,403.241z M361.177,393.466c-2.505,3.039-6.418,4.817-10.564,4.817h-210.01
	c-4.149,0-8.044-1.779-10.562-4.817c-2.507-3.026-3.324-6.959-2.206-10.638l34.298-113.27c1.608-5.266,6.815-8.913,12.783-8.913
	h141.386c5.951,0,11.186,3.647,12.778,8.913l34.314,113.27C364.51,386.507,363.682,390.44,361.177,393.466z"/>
<g>
</g>
<g>
</g>
<g>
</g>
<g>
</g>
<g>
</g>
<g>
</g>
<g>
</g>
<g>
</g>
<g>
</g>
<g>
</g>
<g>
</g>
<g>
</g>
<g>
</g>
<g>
</g>
<g>
</g>
</svg>
