<?xml version="1.0" encoding="iso-8859-1"?>
<!-- Generator: Adobe Illustrator 18.0.0, SVG Export Plug-In . SVG Version: 6.00 Build 0)  -->
<!DOCTYPE svg PUBLIC "-//W3C//DTD SVG 1.1//EN" "http://www.w3.org/Graphics/SVG/1.1/DTD/svg11.dtd">
<svg version="1.1" id="Capa_1" xmlns="http://www.w3.org/2000/svg" xmlns:xlink="http://www.w3.org/1999/xlink" x="0px" y="0px"
	 viewBox="0 0 495.033 495.033" style="enable-background:new 0 0 495.033 495.033;" xml:space="preserve">
<g>
	<path d="M23.422,146.053h117.427v59.83c0,12.917,10.485,23.406,23.422,23.406h166.507c12.935,0,23.426-10.489,23.426-23.406v-59.83
		h117.408c12.936,0,23.422-10.491,23.422-23.423c0-12.938-10.485-23.426-23.422-23.426H354.203V39.376
		c0-12.919-10.491-23.41-23.426-23.41H164.27c-12.937,0-23.422,10.491-23.422,23.41v59.828H23.422C10.491,99.204,0,109.692,0,122.63
		C0,135.562,10.491,146.053,23.422,146.053z"/>
	<path d="M471.611,348.982h-25.838v-59.846c0-12.919-10.471-23.408-23.407-23.408H72.667c-12.935,0-23.406,10.489-23.406,23.408
		v59.846H23.422C10.491,348.982,0,359.472,0,372.405c0,12.904,10.491,23.391,23.422,23.391h25.839v59.848
		c0,12.935,10.472,23.424,23.406,23.424h349.699c12.936,0,23.407-10.489,23.407-23.424v-59.848h25.838
		c12.936,0,23.422-10.486,23.422-23.391C495.033,359.472,484.548,348.982,471.611,348.982z M398.94,432.235H96.074V312.56H398.94
		V432.235z"/>
</g>
<g>
</g>
<g>
</g>
<g>
</g>
<g>
</g>
<g>
</g>
<g>
</g>
<g>
</g>
<g>
</g>
<g>
</g>
<g>
</g>
<g>
</g>
<g>
</g>
<g>
</g>
<g>
</g>
<g>
</g>
</svg>
