<?xml version="1.0" encoding="iso-8859-1"?>
<!-- Generator: Adobe Illustrator 18.0.0, SVG Export Plug-In . SVG Version: 6.00 Build 0)  -->
<!DOCTYPE svg PUBLIC "-//W3C//DTD SVG 1.1//EN" "http://www.w3.org/Graphics/SVG/1.1/DTD/svg11.dtd">
<svg version="1.1" id="Capa_1" xmlns="http://www.w3.org/2000/svg" xmlns:xlink="http://www.w3.org/1999/xlink" x="0px" y="0px"
	 viewBox="0 0 486.18 486.18" style="enable-background:new 0 0 486.18 486.18;" xml:space="preserve">
<path d="M462.14,219.048h-16.437v-44.926c0-13.273-10.769-24.043-24.043-24.043H283.729c-13.275,0-24.046,10.77-24.046,24.043
	v44.926H238.8V98.236c0-13.272-10.766-24.042-24.04-24.042H76.792c-13.273,0-24.04,10.77-24.04,24.042v120.812H24.046
	C10.771,219.048,0,229.815,0,243.089c0,13.274,10.771,24.043,24.046,24.043h28.706v120.811c0,13.273,10.767,24.043,24.04,24.043
	H214.76c13.274,0,24.04-10.77,24.04-24.043V267.132h20.883v44.924c0,13.274,10.771,24.045,24.046,24.045H421.66
	c13.274,0,24.043-10.77,24.043-24.045v-44.924h16.437c13.273,0,24.04-10.768,24.04-24.043
	C486.18,229.815,475.413,219.048,462.14,219.048z M190.716,363.897h-89.879V122.28h89.879V363.897z"/>
<g>
</g>
<g>
</g>
<g>
</g>
<g>
</g>
<g>
</g>
<g>
</g>
<g>
</g>
<g>
</g>
<g>
</g>
<g>
</g>
<g>
</g>
<g>
</g>
<g>
</g>
<g>
</g>
<g>
</g>
</svg>
