<?xml version="1.0" encoding="iso-8859-1"?>
<!-- Generator: Adobe Illustrator 18.0.0, SVG Export Plug-In . SVG Version: 6.00 Build 0)  -->
<!DOCTYPE svg PUBLIC "-//W3C//DTD SVG 1.1//EN" "http://www.w3.org/Graphics/SVG/1.1/DTD/svg11.dtd">
<svg version="1.1" id="Capa_1" xmlns="http://www.w3.org/2000/svg" xmlns:xlink="http://www.w3.org/1999/xlink" x="0px" y="0px"
	 viewBox="0 0 467.821 467.821" style="enable-background:new 0 0 467.821 467.821;" xml:space="preserve">
<path d="M467.059,446.081L417.9,302.54c-0.807-2.387-2.16-4.547-3.934-6.336l-81.385-81.41l-16.031-16.021l-10.596-10.604
	l-17.178-17.17l0,0L171.625,53.86c-1.791-1.766-3.951-3.129-6.338-3.943L21.744,0.759C9.826-3.321-3.32,9.823,0.762,21.749
	L49.918,165.29c0.84,2.379,2.18,4.533,3.971,6.307l117.119,117.178l16.004,15.992l27.787,27.797l0.014-0.008l81.418,81.391
	c1.773,1.773,3.92,3.129,6.307,3.961l143.537,49.156C457.996,471.136,471.141,458.009,467.059,446.081z M265.426,194.36
	l30.012,29.998v0.01l80.238,80.26l-17.531,17.531l-81.4-81.43L145.672,109.681l17.533-17.533L265.426,194.36z M52.742,71.538
	l18.822-18.807l62.82,21.508L74.26,134.382L52.742,71.538z M238.168,309.21l-6.416-6.42l-7.371-7.369l-12.838-12.83L92.162,163.194
	l17.514-17.516l131.059,131.065l81.432,81.408l-17.533,17.523L238.168,309.21z M393.578,333.435l19.049,55.625l-23.551,23.556
	l-55.639-19.049L393.578,333.435z"/>
<g>
</g>
<g>
</g>
<g>
</g>
<g>
</g>
<g>
</g>
<g>
</g>
<g>
</g>
<g>
</g>
<g>
</g>
<g>
</g>
<g>
</g>
<g>
</g>
<g>
</g>
<g>
</g>
<g>
</g>
</svg>
