<?xml version="1.0" encoding="iso-8859-1"?>
<!-- Generator: Adobe Illustrator 18.0.0, SVG Export Plug-In . SVG Version: 6.00 Build 0)  -->
<!DOCTYPE svg PUBLIC "-//W3C//DTD SVG 1.1//EN" "http://www.w3.org/Graphics/SVG/1.1/DTD/svg11.dtd">
<svg version="1.1" id="Capa_1" xmlns="http://www.w3.org/2000/svg" xmlns:xlink="http://www.w3.org/1999/xlink" x="0px" y="0px"
	 viewBox="0 0 484.299 484.299" style="enable-background:new 0 0 484.299 484.299;" xml:space="preserve">
<g>
	<path d="M74.975,115.321c-0.099,0.076-0.11,0.088-0.002,0.012L74.975,115.321z"/>
	<path d="M428.084,86.422h-22.853l4.329,25.201h18.524c6.887,0,12.467,5.588,12.467,12.469v322.547
		c0,6.871-5.58,12.465-12.467,12.465H56.201c-6.869,0-12.467-5.594-12.467-12.465V124.092c0-6.881,5.598-12.469,12.467-12.469H75.62
		l4.401-25.201h-23.82c-20.758,0-37.66,16.896-37.66,37.67v322.547c0,20.764,16.902,37.66,37.66,37.66h371.883
		c20.771,0,37.674-16.896,37.674-37.66V124.092C465.758,103.319,448.855,86.422,428.084,86.422z"/>
	<path d="M80.066,111.624h0.067C80.237,111.528,80.197,111.54,80.066,111.624z"/>
	<path d="M406.616,111.624h0.034C406.577,111.577,406.56,111.572,406.616,111.624z"/>
	<path d="M204.757,111.624c-0.129-0.052-0.186-0.063-0.114,0H204.757z"/>
	<path d="M281.572,111.624c0.117-0.109,0.052-0.09-0.116,0H281.572z"/>
	<polygon points="277.206,111.624 281.574,86.422 203.658,86.422 208.033,111.624 	"/>
	<path d="M91.431,136.801h102.871c4.983,0,9.023-4.04,9.023-9.023c0-4.984-4.04-9.024-9.025-9.024l-6.328-36.787
		c-0.626-3.657-3.799-6.329-7.508-6.329h-17.222l-4.52-20.47c-1.589-7.201-0.357-14.643,3.461-20.947
		c2.126-3.509,3.249-7.538,3.249-11.655C165.433,10.123,155.312,0,142.866,0C130.421,0,120.3,10.123,120.3,22.566
		c0,4.117,1.123,8.146,3.248,11.653c3.818,6.302,5.046,13.741,3.457,20.944l-4.52,20.475h-16.264c-3.71,0-6.883,2.672-7.509,6.329
		l-6.327,36.787h-0.955c-4.983,0-9.023,4.04-9.023,9.023C82.407,132.761,86.447,136.801,91.431,136.801z M142.866,10.171
		c6.834,0,12.396,5.56,12.396,12.395c0,2.259-0.616,4.464-1.779,6.384c-5.179,8.554-6.849,18.643-4.692,28.408l4.035,18.28h-19.924
		l4.035-18.285c2.154-9.765,0.486-19.854-4.688-28.405c-1.161-1.917-1.779-4.122-1.779-6.381
		C130.47,15.731,136.033,10.171,142.866,10.171z"/>
	<path d="M293.448,136.801h102.87c4.983,0,9.023-4.04,9.023-9.023c0-4.984-4.04-9.024-9.025-9.024l-6.328-36.787
		c-0.626-3.657-3.799-6.329-7.508-6.329H365.26l-4.521-20.47c-1.589-7.201-0.357-14.643,3.461-20.947
		c2.126-3.509,3.249-7.538,3.249-11.655C367.449,10.123,357.328,0,344.883,0c-12.445,0-22.566,10.123-22.566,22.566
		c0,4.117,1.123,8.146,3.248,11.653c3.818,6.302,5.046,13.741,3.457,20.944l-4.52,20.475h-16.264c-3.71,0-6.883,2.672-7.509,6.329
		l-6.327,36.787h-0.955c-4.983,0-9.023,4.04-9.023,9.023C284.424,132.761,288.464,136.801,293.448,136.801z M344.883,10.171
		c6.834,0,12.396,5.56,12.396,12.395c0,2.259-0.616,4.464-1.779,6.384c-5.179,8.554-6.849,18.643-4.692,28.408l4.035,18.28h-19.924
		l4.035-18.285c2.154-9.765,0.486-19.854-4.689-28.405c-1.161-1.917-1.779-4.122-1.779-6.381
		C332.487,15.731,338.05,10.171,344.883,10.171z"/>
</g>
<g>
</g>
<g>
</g>
<g>
</g>
<g>
</g>
<g>
</g>
<g>
</g>
<g>
</g>
<g>
</g>
<g>
</g>
<g>
</g>
<g>
</g>
<g>
</g>
<g>
</g>
<g>
</g>
<g>
</g>
</svg>
