<?xml version="1.0" encoding="iso-8859-1"?>
<!-- Generator: Adobe Illustrator 18.0.0, SVG Export Plug-In . SVG Version: 6.00 Build 0)  -->
<!DOCTYPE svg PUBLIC "-//W3C//DTD SVG 1.1//EN" "http://www.w3.org/Graphics/SVG/1.1/DTD/svg11.dtd">
<svg version="1.1" id="Capa_1" xmlns="http://www.w3.org/2000/svg" xmlns:xlink="http://www.w3.org/1999/xlink" x="0px" y="0px"
	 viewBox="0 0 488.431 488.431" style="enable-background:new 0 0 488.431 488.431;" xml:space="preserve">
<g>
	<path d="M23.562,346.646L0.646,453.5c-2.052,9.556,0.852,19.386,7.79,26.303c5.417,5.405,12.608,8.38,20.253,8.38l0,0
		c2.015,0,4.03-0.211,6.014-0.637l106.841-22.934L23.562,346.646z"/>
	<path d="M472.722,72.538l-57.055-57.083c-20.254-20.271-55.574-20.278-75.858-0.006l-23.061,23.07l23.35,23.351l86.212,86.22
		l23.369,23.359l23.043-23.06c10.145-10.127,15.709-23.602,15.709-37.923C488.431,96.14,482.866,82.664,472.722,72.538z"/>
	<path d="M33.593,321.649l132.945,132.924l265.608-265.616L299.229,56.032L33.593,321.649z M166.539,407.869l-86.244-86.221
		l218.934-218.915l86.217,86.223L166.539,407.869z"/>
	<path d="M196.166,226.637c-18.401,18.376-33.124,38.48-41.494,56.582c-12.966,28.035-6.969,42.631,0.354,49.935
		c3.613,3.614,10.177,7.912,20.996,7.912c22.499,0,55.266-18.797,85.522-49.059c18.383-18.376,33.125-38.478,41.494-56.582
		c12.948-28.026,6.967-42.63-0.357-49.935c-3.609-3.605-10.171-7.91-20.996-7.91C259.172,177.58,226.401,196.375,196.166,226.637z
		 M280.557,225.031c-7.079,15.297-20.384,33.329-36.525,49.462c-27.435,27.441-54.98,41.8-68.01,41.8
		c-2.318,0-3.32-0.482-3.483-0.651c-0.643-0.631-2.355-6.976,4.615-22.029c7.061-15.296,20.384-33.326,36.525-49.462
		c27.431-27.439,54.976-41.799,68.005-41.799c2.324,0,3.324,0.482,3.483,0.652C285.783,203.633,287.509,209.978,280.557,225.031z"/>
</g>
<g>
</g>
<g>
</g>
<g>
</g>
<g>
</g>
<g>
</g>
<g>
</g>
<g>
</g>
<g>
</g>
<g>
</g>
<g>
</g>
<g>
</g>
<g>
</g>
<g>
</g>
<g>
</g>
<g>
</g>
</svg>
