<?xml version="1.0" encoding="iso-8859-1"?>
<!-- Generator: Adobe Illustrator 18.0.0, SVG Export Plug-In . SVG Version: 6.00 Build 0)  -->
<!DOCTYPE svg PUBLIC "-//W3C//DTD SVG 1.1//EN" "http://www.w3.org/Graphics/SVG/1.1/DTD/svg11.dtd">
<svg version="1.1" id="Capa_1" xmlns="http://www.w3.org/2000/svg" xmlns:xlink="http://www.w3.org/1999/xlink" x="0px" y="0px"
	 viewBox="0 0 496.723 496.723" style="enable-background:new 0 0 496.723 496.723;" xml:space="preserve">
<g>
	<path d="M292.322,26.265C283.588,10.102,266.749,0.006,248.375,0c-18.369-0.01-35.272,10.062-43.993,26.227
		C154.507,118.475,80.058,266.611,80.058,328.443c0,92.911,75.323,168.28,168.272,168.28c92.968,0,168.335-75.369,168.335-168.28
		C416.665,266.621,342.198,118.523,292.322,26.265z M248.343,438.921c-67.955,0-123.261-55.291-123.261-123.255
		c0-9.114,7.399-16.503,16.504-16.503c9.119,0,16.499,7.389,16.499,16.503c0,49.763,40.495,90.251,90.257,90.251
		c9.106,0,16.504,7.389,16.504,16.502C264.848,431.53,257.449,438.921,248.343,438.921z"/>
</g>
<g>
</g>
<g>
</g>
<g>
</g>
<g>
</g>
<g>
</g>
<g>
</g>
<g>
</g>
<g>
</g>
<g>
</g>
<g>
</g>
<g>
</g>
<g>
</g>
<g>
</g>
<g>
</g>
<g>
</g>
</svg>
