<?xml version="1.0" encoding="iso-8859-1"?>
<!-- Generator: Adobe Illustrator 18.0.0, SVG Export Plug-In . SVG Version: 6.00 Build 0)  -->
<!DOCTYPE svg PUBLIC "-//W3C//DTD SVG 1.1//EN" "http://www.w3.org/Graphics/SVG/1.1/DTD/svg11.dtd">
<svg version="1.1" id="Capa_1" xmlns="http://www.w3.org/2000/svg" xmlns:xlink="http://www.w3.org/1999/xlink" x="0px" y="0px"
	 viewBox="0 0 494.25 494.25" style="enable-background:new 0 0 494.25 494.25;" xml:space="preserve">
<path d="M247.108,0C161.031,0,91.005,70.037,91.005,156.118c0,33.592,10.53,65.604,30.448,92.561
	c20.748,28.092,33.688,61.159,37.417,95.635c1.723,15.935,12.629,28.662,27.079,33.468v35.057c0,24.613,14.712,45.748,35.709,55.448
	c0,0.151-0.05,0.292-0.05,0.445c0,14.096,11.424,25.517,25.513,25.517c14.096,0,25.521-11.421,25.521-25.517
	c0-0.153-0.049-0.294-0.049-0.445c21.008-9.7,35.708-30.835,35.708-55.448v-35.063c14.449-4.809,25.356-17.542,27.079-33.476
	c3.723-34.475,16.663-67.549,37.412-95.627c19.921-26.957,30.453-58.963,30.453-92.555C403.245,70.037,333.199,0,247.108,0z
	 M196.301,247.664c-9.444,0.138-18.425-5.413-22.121-14.704c-4.799-12.036,1.075-25.656,13.105-30.442
	c12.021-4.795,25.647,1.071,30.432,13.101c3.713,9.302,1.012,19.488-5.961,25.876l35.365,88.82l35.367-88.82
	c-6.964-6.387-9.667-16.574-5.957-25.876c4.786-12.029,18.406-17.895,30.434-13.101c12.025,4.786,17.903,18.406,13.101,30.442
	c-3.692,9.292-12.677,14.842-22.117,14.704l-39.382,98.946h-17.935h-4.949L196.301,247.664z M247.121,449.01
	c-16.026,0-29.468-10.543-34.221-24.999h68.45C276.613,438.468,263.154,449.01,247.121,449.01z M283.301,399.016h-72.358V379.94
	h72.358V399.016z"/>
<g>
</g>
<g>
</g>
<g>
</g>
<g>
</g>
<g>
</g>
<g>
</g>
<g>
</g>
<g>
</g>
<g>
</g>
<g>
</g>
<g>
</g>
<g>
</g>
<g>
</g>
<g>
</g>
<g>
</g>
</svg>
