<?xml version="1.0" encoding="iso-8859-1"?>
<!-- Generator: Adobe Illustrator 18.0.0, SVG Export Plug-In . SVG Version: 6.00 Build 0)  -->
<!DOCTYPE svg PUBLIC "-//W3C//DTD SVG 1.1//EN" "http://www.w3.org/Graphics/SVG/1.1/DTD/svg11.dtd">
<svg version="1.1" id="Capa_1" xmlns="http://www.w3.org/2000/svg" xmlns:xlink="http://www.w3.org/1999/xlink" x="0px" y="0px"
	 viewBox="0 0 489.495 489.495" style="enable-background:new 0 0 489.495 489.495;" xml:space="preserve">
<g>
	<path d="M460.049,256.029c-5.227-11.281,1.48-26.779,3.402-35.042c2.77-11.908,0.574-28.753-9.684-51.827
		c-12.241-27.597-34.162-58.116-61.71-85.928c-44.613-45.101-93.319-73.119-127.114-73.119c-16.091,0-25.775,6.392-31.078,11.752
		c-0.076,0.077-222.682,225.049-222.682,225.049c-31.16,32.598,7.175,104.854,61.137,159.391
		c44.613,45.076,93.314,73.079,127.095,73.079c15.773,0,25.376-6.152,30.837-11.503L422.193,273.99
		c1.024,8.341-5.977,23.736-6.358,24.488l0.064-0.048c-5.179,12.326-8.948,23.608-8.948,30.496c0,23.018,18.47,41.697,41.257,41.697
		c22.787,0,41.289-18.679,41.289-41.697C489.495,314.017,472.237,278.975,460.049,256.029z M207.562,444.55
		c-1.885,1.837-5.914,2.11-8.149,2.11c-19.911,0-61.023-19.871-104.183-63.492C41.812,329.197,25.546,279,34.287,269.852
		l191.62-193.681c1.66,6.03,3.768,12.413,6.964,19.614c12.259,27.586,34.18,58.107,61.715,85.926
		c35.473,35.841,73.404,60.608,104.47,69.389L207.562,444.55z M323.152,163.95c-1.898-1.829-3.769-3.451-5.653-5.375
		c-24.833-25.089-44.39-52.142-55.064-76.189c-9.698-21.827-8.71-34.315-5.654-37.382c1.853-1.887,5.91-2.165,8.162-2.165
		c19.929,0,61.024,19.885,104.233,63.531c23.042,23.297,41.239,48.208,52.313,70.93C403.431,200.23,359.94,195.148,323.152,163.95z"
		/>
	<path d="M178.786,174.346l-55.882,56.469c-4.056,4.09-4.056,10.738,0,14.829l108.42,109.552c4.043,4.091,10.626,4.091,14.669,0
		l55.876-56.469c4.061-4.093,4.061-10.738,0-14.828L193.467,174.346C189.411,170.255,182.828,170.255,178.786,174.346z"/>
</g>
<g>
</g>
<g>
</g>
<g>
</g>
<g>
</g>
<g>
</g>
<g>
</g>
<g>
</g>
<g>
</g>
<g>
</g>
<g>
</g>
<g>
</g>
<g>
</g>
<g>
</g>
<g>
</g>
<g>
</g>
</svg>
