<?xml version="1.0" encoding="iso-8859-1"?>
<!-- Generator: Adobe Illustrator 18.0.0, SVG Export Plug-In . SVG Version: 6.00 Build 0)  -->
<!DOCTYPE svg PUBLIC "-//W3C//DTD SVG 1.1//EN" "http://www.w3.org/Graphics/SVG/1.1/DTD/svg11.dtd">
<svg version="1.1" id="Capa_1" xmlns="http://www.w3.org/2000/svg" xmlns:xlink="http://www.w3.org/1999/xlink" x="0px" y="0px"
	 viewBox="0 0 487.865 487.865" style="enable-background:new 0 0 487.865 487.865;" xml:space="preserve">
<g>
	<g>
		<g>
			<path d="M445.934,1.807L182.176,1.798c-11.168,0-21.689,4.356-29.667,12.286c-7.918,7.902-12.263,18.43-12.263,29.654v155.714
				h33.127V43.739c0-2.371,0.905-4.577,2.52-6.188c1.7-1.69,3.936-2.625,6.283-2.625l263.758,0.009c4.857,0,8.805,3.958,8.805,8.813
				v310.781h-48.564c-5.772,0-11.296,1.176-16.306,3.299c-15.043,6.37-25.622,21.282-25.622,38.626v47.58H182.176
				c-4.853,0-8.803-3.952-8.803-8.805v-25.449h-33.127v25.449c0,23.115,18.814,41.93,41.93,41.93h189.881
				c9.99,0,19.578-3.936,26.687-10.956l77.826-76.848c7.227-7.136,11.295-16.87,11.295-27.027V43.747
				C487.865,20.623,469.049,1.807,445.934,1.807z"/>
		</g>
		<path d="M378.647,486.067l0.027-0.027C378.625,486.059,378.614,486.069,378.647,486.067z"/>
	</g>
	<path d="M216.716,376.643V232.58c0-6.852-5.571-12.421-12.425-12.421H12.422C5.565,220.16,0,225.729,0,232.58v144.062
		c0,6.864,5.565,12.431,12.422,12.431h191.869C211.145,389.074,216.716,383.507,216.716,376.643z M185.715,245.003l-77.374,50.563
		l-77.339-50.563H185.715z M191.852,364.221H24.844v-93.54l76.708,50.128c2.063,1.35,4.424,2.021,6.789,2.021
		c2.363,0,4.745-0.671,6.803-2.021l76.709-50.134V364.221z"/>
</g>
<g>
</g>
<g>
</g>
<g>
</g>
<g>
</g>
<g>
</g>
<g>
</g>
<g>
</g>
<g>
</g>
<g>
</g>
<g>
</g>
<g>
</g>
<g>
</g>
<g>
</g>
<g>
</g>
<g>
</g>
</svg>
