<?xml version="1.0" encoding="iso-8859-1"?>
<!-- Generator: Adobe Illustrator 18.0.0, SVG Export Plug-In . SVG Version: 6.00 Build 0)  -->
<!DOCTYPE svg PUBLIC "-//W3C//DTD SVG 1.1//EN" "http://www.w3.org/Graphics/SVG/1.1/DTD/svg11.dtd">
<svg version="1.1" id="Capa_1" xmlns="http://www.w3.org/2000/svg" xmlns:xlink="http://www.w3.org/1999/xlink" x="0px" y="0px"
	 viewBox="0 0 487.088 487.088" style="enable-background:new 0 0 487.088 487.088;" xml:space="preserve">
<g>
	<path d="M291.704,121.074h49.545V39.191C341.249,17.58,323.668,0,302.059,0H39.202C17.591,0,0.007,17.58,0.007,39.191v262.857
		c0,21.611,17.583,39.19,39.194,39.19h81.883v-49.543V185.039c0-35.271,28.69-63.965,63.963-63.965H291.704z"/>
	<path d="M447.887,145.846h-262.84c-21.611,0-39.189,17.582-39.189,39.193v262.857c0,21.609,17.578,39.191,39.189,39.191h262.84
		c21.615,0,39.193-17.582,39.193-39.191V185.039C487.081,163.428,469.502,145.846,447.887,145.846z M195.403,195.393h96.656
		l-0.355,96.303l-96.301-0.678V195.393z"/>
</g>
<g>
</g>
<g>
</g>
<g>
</g>
<g>
</g>
<g>
</g>
<g>
</g>
<g>
</g>
<g>
</g>
<g>
</g>
<g>
</g>
<g>
</g>
<g>
</g>
<g>
</g>
<g>
</g>
<g>
</g>
</svg>
