<?xml version="1.0" encoding="iso-8859-1"?>
<!-- Generator: Adobe Illustrator 18.0.0, SVG Export Plug-In . SVG Version: 6.00 Build 0)  -->
<!DOCTYPE svg PUBLIC "-//W3C//DTD SVG 1.1//EN" "http://www.w3.org/Graphics/SVG/1.1/DTD/svg11.dtd">
<svg version="1.1" id="Capa_1" xmlns="http://www.w3.org/2000/svg" xmlns:xlink="http://www.w3.org/1999/xlink" x="0px" y="0px"
	 viewBox="0 0 486.998 486.998" style="enable-background:new 0 0 486.998 486.998;" xml:space="preserve">
<g>
	<path d="M458.23,0h-54.161c-11.998,0-21.742,9.738-21.742,21.749v54.187c0,12.009,9.744,21.74,21.742,21.74h54.161
		c11.995,0,21.738-9.731,21.738-21.74V21.749C479.968,9.738,470.225,0,458.23,0z"/>
	<path d="M264.561,454.811l-225.349-1.156l-0.206-338.684l215.457,1.094c-4.258-4.35-6.479-10.396-5.779-16.55
		c0.807-7.669,5.797-13.915,12.672-16.726H39.006c-17.633,0-31.977,14.949-31.977,33.332v337.534
		c0,18.389,14.344,33.343,31.977,33.343h226.172c17.637,0,31.976-14.954,31.976-33.343V178.996l-32.308,32.317L264.561,454.811z"/>
	<path d="M353.838,72.242c-0.447,0-0.873,0.056-1.299,0.183l-84.586,24.88c-1.777,0.498-3.078,2.034-3.25,3.865
		c-0.209,1.814,0.711,3.581,2.314,4.475l22.689,12.519l-60.182,60.215c-6.293,6.291-6.293,16.481,0,22.773
		c3.139,3.127,7.254,4.704,11.375,4.704c4.123,0,8.24-1.577,11.379-4.712l60.182-60.225l12.518,22.675
		c0.793,1.458,2.332,2.362,3.963,2.362c0.175,0,0.35-0.008,0.51-0.032c1.838-0.189,3.375-1.484,3.862-3.225l24.862-84.631
		c0.493-1.609,0.018-3.346-1.139-4.487C356.182,72.711,355.026,72.242,353.838,72.242z"/>
	<path d="M78.794,257.473h73.305c8.893,0,16.084-7.2,16.084-16.089c0-8.884-7.191-16.094-16.084-16.094H78.794
		c-8.885,0-16.08,7.21-16.08,16.094C62.713,250.273,69.909,257.473,78.794,257.473z"/>
	<path d="M216.465,289.657H78.794c-8.885,0-16.08,7.21-16.08,16.1c0,8.883,7.195,16.093,16.08,16.093h137.672
		c8.891,0,16.088-7.209,16.088-16.093C232.553,296.867,225.356,289.657,216.465,289.657z"/>
	<path d="M216.465,354.034H78.794c-8.885,0-16.08,7.202-16.08,16.09c0,8.887,7.195,16.091,16.08,16.091h137.672
		c8.891,0,16.088-7.204,16.088-16.091C232.553,361.236,225.356,354.034,216.465,354.034z"/>
</g>
<g>
</g>
<g>
</g>
<g>
</g>
<g>
</g>
<g>
</g>
<g>
</g>
<g>
</g>
<g>
</g>
<g>
</g>
<g>
</g>
<g>
</g>
<g>
</g>
<g>
</g>
<g>
</g>
<g>
</g>
</svg>
