<?xml version="1.0" encoding="iso-8859-1"?>
<!-- Generator: Adobe Illustrator 18.0.0, SVG Export Plug-In . SVG Version: 6.00 Build 0)  -->
<!DOCTYPE svg PUBLIC "-//W3C//DTD SVG 1.1//EN" "http://www.w3.org/Graphics/SVG/1.1/DTD/svg11.dtd">
<svg version="1.1" id="Capa_1" xmlns="http://www.w3.org/2000/svg" xmlns:xlink="http://www.w3.org/1999/xlink" x="0px" y="0px"
	 viewBox="0 0 488.201 488.201" style="enable-background:new 0 0 488.201 488.201;" xml:space="preserve">
<path d="M487.909,478.822L447.85,342.556c-0.825-2.824-3.294-4.889-6.229-5.211c-2.934-0.322-5.772,1.162-7.223,3.744
	l-20.712,37.578L279.146,244.127l19.338-19.34c9.679-9.676,9.679-25.351,0-35.027c-9.674-9.68-25.35-9.68-35.029,0l-19.338,19.336
	L109.543,74.521l37.581-20.74c2.593-1.42,4.063-4.273,3.741-7.211c-0.323-2.934-2.373-5.385-5.192-6.223L9.386,0.298
	C6.824-0.459,4.033,0.252,2.149,2.14C0.26,4.043-0.45,6.816,0.292,9.38l40.064,136.268c0.838,2.838,3.289,4.9,6.224,5.225
	c2.935,0.322,5.772-1.162,7.209-3.742l20.725-37.563l134.574,134.559l-19.325,19.32c-9.674,9.678-9.674,25.353,0,35.031
	c4.841,4.838,11.162,7.258,17.518,7.258c6.32,0,12.673-2.42,17.515-7.258l19.32-19.324l134.541,134.543l-37.576,20.709
	c-2.584,1.434-4.068,4.291-3.745,7.225c0.322,2.935,2.386,5.404,5.21,6.227l136.269,40.045c2.58,0.758,5.353,0.049,7.224-1.853
	C487.941,484.162,488.65,481.386,487.909,478.822z"/>
<g>
</g>
<g>
</g>
<g>
</g>
<g>
</g>
<g>
</g>
<g>
</g>
<g>
</g>
<g>
</g>
<g>
</g>
<g>
</g>
<g>
</g>
<g>
</g>
<g>
</g>
<g>
</g>
<g>
</g>
</svg>
