<?xml version="1.0" encoding="iso-8859-1"?>
<!-- Generator: Adobe Illustrator 18.0.0, SVG Export Plug-In . SVG Version: 6.00 Build 0)  -->
<!DOCTYPE svg PUBLIC "-//W3C//DTD SVG 1.1//EN" "http://www.w3.org/Graphics/SVG/1.1/DTD/svg11.dtd">
<svg version="1.1" id="Capa_1" xmlns="http://www.w3.org/2000/svg" xmlns:xlink="http://www.w3.org/1999/xlink" x="0px" y="0px"
	 viewBox="0 0 493.816 493.816" style="enable-background:new 0 0 493.816 493.816;" xml:space="preserve">
<g>
	<path d="M419.744,0.001H74.074C33.162,0.001,0,33.161,0,74.071v345.674c0,40.906,33.162,74.07,74.074,74.07h345.67
		c40.91,0,74.072-33.164,74.072-74.07V74.071C493.816,33.161,460.654,0.001,419.744,0.001z M234.609,232.104
		c13.488,0,24.418,10.929,24.418,24.433c0,13.483-10.93,24.416-24.418,24.416h-70.888v76.596c0,16.639-13.488,30.126-30.122,30.126
		c-16.652,0-30.143-13.487-30.143-30.142V146.809c0-13.599,11.029-24.626,24.625-24.626h113.023
		c13.596,0,24.627,11.027,24.627,24.626c0,13.599-11.031,24.628-24.627,24.628h-77.384v60.667H234.609z M378.016,357.548
		c0,16.639-12.721,30.126-28.406,30.126c-15.674,0-28.389-13.487-28.389-30.126V152.309c0-16.638,12.715-30.126,28.389-30.126
		c15.685,0,28.406,13.488,28.406,30.126V357.548z"/>
</g>
<g>
</g>
<g>
</g>
<g>
</g>
<g>
</g>
<g>
</g>
<g>
</g>
<g>
</g>
<g>
</g>
<g>
</g>
<g>
</g>
<g>
</g>
<g>
</g>
<g>
</g>
<g>
</g>
<g>
</g>
</svg>
