<?xml version="1.0" encoding="iso-8859-1"?>
<!-- Generator: Adobe Illustrator 18.0.0, SVG Export Plug-In . SVG Version: 6.00 Build 0)  -->
<!DOCTYPE svg PUBLIC "-//W3C//DTD SVG 1.1//EN" "http://www.w3.org/Graphics/SVG/1.1/DTD/svg11.dtd">
<svg version="1.1" id="Capa_1" xmlns="http://www.w3.org/2000/svg" xmlns:xlink="http://www.w3.org/1999/xlink" x="0px" y="0px"
	 viewBox="0 0 482.196 482.196" style="enable-background:new 0 0 482.196 482.196;" xml:space="preserve">
<g>
	<path d="M239.1,354.432c-24.645-9.683-56.281-3.015-65.487-1.176c-5.508,0.326-10.824-2.11-14.117-6.529
		c-3.358-4.482-4.165-10.402-2.165-15.645l55.321-144.395c3.888-10.176-1.193-21.596-11.387-25.514
		c-10.19-3.904-21.61,1.209-25.512,11.385l-29.386,76.754c1.226-8.887-3.713-17.773-12.452-21.113
		c-8.532-3.273-17.837-0.193-22.969,6.84c-1.806-1.662-3.916-3.064-6.338-3.967c-8.532-3.26-17.837-0.193-22.964,6.838
		c-1.792-1.676-3.92-3.049-6.32-3.953c-10.213-3.918-21.614,1.162-25.516,11.373c0,0-23.789,45.238-29.869,61.092
		c-7.597,19.822-10.725,46.787-8.854,63.512c1.806,16.031-0.258,32.355-6.035,47.418l-4.225,11.08
		c-2.451,6.402,0.742,13.58,7.145,16.047l56.205,21.531c6.389,2.451,13.58-0.758,16.031-7.16l1.58-4.111
		c5.532-14.451,16.971-25.84,31.454-31.291c0,0,35.099-13.589,70.444-26.514c26.127-9.554,41.326-9.564,54.171-7.684
		c20.394,2.984,24.373-0.746,26.86-6.964C267.203,376.069,266.954,365.375,239.1,354.432z"/>
	<path d="M474.226,37.717L418.02,16.186c-6.389-2.451-13.58,0.758-16.031,7.16l-1.58,4.111
		c-5.532,14.451-16.971,25.84-31.454,31.291c0,0-35.099,13.589-70.444,26.514c-26.127,9.554-41.326,9.563-54.171,7.684
		c-20.393-2.984-24.372,0.746-26.859,6.964c-2.487,6.218-2.238,16.911,25.616,27.854c24.645,9.683,56.28,3.015,65.487,1.176
		c5.508-0.326,10.823,2.11,14.116,6.529c3.358,4.482,4.165,10.402,2.165,15.645l-55.32,144.395
		c-3.889,10.176,1.192,21.596,11.387,25.514c10.19,3.904,21.61-1.209,25.512-11.385l29.386-76.754
		c-1.226,8.887,3.713,17.773,12.452,21.113c8.531,3.273,17.837,0.193,22.969-6.84c1.806,1.662,3.915,3.064,6.338,3.967
		c8.532,3.26,17.837,0.193,22.965-6.838c1.792,1.676,3.92,3.049,6.32,3.953c10.213,3.918,21.614-1.162,25.516-11.373
		c0,0,23.789-45.238,29.869-61.092c7.597-19.822,10.725-46.787,8.855-63.512c-1.806-16.031,0.258-32.356,6.034-47.418l4.225-11.08
		C483.822,47.362,480.63,40.184,474.226,37.717z"/>
</g>
<g>
</g>
<g>
</g>
<g>
</g>
<g>
</g>
<g>
</g>
<g>
</g>
<g>
</g>
<g>
</g>
<g>
</g>
<g>
</g>
<g>
</g>
<g>
</g>
<g>
</g>
<g>
</g>
<g>
</g>
</svg>
