<?xml version="1.0" encoding="iso-8859-1"?>
<!-- Generator: Adobe Illustrator 18.0.0, SVG Export Plug-In . SVG Version: 6.00 Build 0)  -->
<!DOCTYPE svg PUBLIC "-//W3C//DTD SVG 1.1//EN" "http://www.w3.org/Graphics/SVG/1.1/DTD/svg11.dtd">
<svg version="1.1" id="Capa_1" xmlns="http://www.w3.org/2000/svg" xmlns:xlink="http://www.w3.org/1999/xlink" x="0px" y="0px"
	 viewBox="0 0 490.854 490.854" style="enable-background:new 0 0 490.854 490.854;" xml:space="preserve">
<path d="M384.976,98.775c-13.409-1.587-25.832,7.863-27.563,21.356l-9.189,82.034c-0.046,0.414-0.258,0.791-0.586,1.047
	s-0.746,0.368-1.159,0.312c-0.814-0.112-1.399-0.841-1.33-1.66l11.975-142.287c1.154-13.557-8.921-25.479-22.479-26.637
	c-13.64-0.834-25.482,8.954-26.622,22.496l-12.288,145.947c-0.099,1.094-1.027,1.941-2.118,1.941c-1.17,0-2.117-0.945-2.117-2.116
	V24.646C291.5,11.038,280.461,0,266.853,0c-13.604,0-24.643,11.038-24.643,24.646v176.371c0,1.267-1.026,2.308-2.311,2.308
	c-1.203,0-2.199-0.915-2.312-2.102l-11.904-129.55c-1.252-13.558-13.478-23.427-26.797-22.285
	c-13.572,1.25-23.535,13.251-22.3,26.81l14.085,237.31c0.288,4.861-2.79,9.305-7.444,10.766c-4.668,1.459-9.724-0.465-12.26-4.636
	l-40.897-67.473c-7.047-11.648-22.191-15.372-33.857-8.292c-11.63,7.042-15.356,22.203-8.296,33.84l86.808,151.015
	c5.677,9.709,13.828,17.78,21.98,24.15c0,0,0.018,0.016,0.032,0.016c3.465,2.696,5.952,6.387,7.173,10.608
	c1.316,4.522,2.262,9.48,2.487,14.776c0.288,7.041,6.097,12.576,13.126,12.576h120.724c7.25,0,13.158-5.883,13.158-13.155v-22.733
	c0-11.442,3.208-22.656,9.274-32.352l3.866-6.19c4.862-7.782,7.912-16.559,8.904-25.69l17.298-157.451l13.572-106.957
	C408.02,112.83,398.472,100.492,384.976,98.775z"/>
<g>
</g>
<g>
</g>
<g>
</g>
<g>
</g>
<g>
</g>
<g>
</g>
<g>
</g>
<g>
</g>
<g>
</g>
<g>
</g>
<g>
</g>
<g>
</g>
<g>
</g>
<g>
</g>
<g>
</g>
</svg>
