<?xml version="1.0" encoding="iso-8859-1"?>
<!-- Generator: Adobe Illustrator 18.0.0, SVG Export Plug-In . SVG Version: 6.00 Build 0)  -->
<!DOCTYPE svg PUBLIC "-//W3C//DTD SVG 1.1//EN" "http://www.w3.org/Graphics/SVG/1.1/DTD/svg11.dtd">
<svg version="1.1" id="Capa_1" xmlns="http://www.w3.org/2000/svg" xmlns:xlink="http://www.w3.org/1999/xlink" x="0px" y="0px"
	 viewBox="0 0 490.301 490.301" style="enable-background:new 0 0 490.301 490.301;" xml:space="preserve">
<g>
	<g>
		<path d="M50.115,431.177v-106.07H0v106.07c0,32.603,26.524,59.121,59.117,59.121h106.757v-50.115H59.117
			C54.16,440.182,50.115,436.146,50.115,431.177z"/>
		<path d="M50.115,59.123c0-4.966,4.045-9.005,9.002-9.005h106.757V0.003H59.117C26.524,0.003,0,26.52,0,59.123v107.449h50.115
			V59.123z"/>
		<path d="M440.184,431.177c0,4.969-4.043,9.005-9.002,9.005H324.41v50.115h106.772c32.593,0,59.119-26.518,59.119-59.121v-106.07
			h-50.117V431.177z"/>
		<path d="M431.182,0.003H324.41v50.114h106.772c4.959,0,9.002,4.04,9.002,9.005v107.449h50.117V59.123
			C490.301,26.52,463.774,0.003,431.182,0.003z"/>
		<path d="M323.221,166.572c-20.055-19.926-47.656-32.268-78.078-32.268c-30.425,0-58.029,12.342-78.076,32.268
			c-20.213,20.09-32.755,47.889-32.755,78.575c0,31.427,13.192,59.772,34.271,79.959c19.92,19.079,46.867,30.882,76.561,30.882
			c29.689,0,56.641-11.803,76.556-30.882c21.079-20.187,34.276-48.532,34.276-79.959
			C355.975,214.461,343.434,186.662,323.221,166.572z M245.143,305.875c-33.477,0-60.719-27.245-60.719-60.727
			c0-33.485,27.242-60.729,60.719-60.729c33.474,0,60.717,27.243,60.717,60.729C305.859,278.629,278.616,305.875,245.143,305.875z"
			/>
	</g>
</g>
<g>
</g>
<g>
</g>
<g>
</g>
<g>
</g>
<g>
</g>
<g>
</g>
<g>
</g>
<g>
</g>
<g>
</g>
<g>
</g>
<g>
</g>
<g>
</g>
<g>
</g>
<g>
</g>
<g>
</g>
</svg>
