<?xml version="1.0" encoding="iso-8859-1"?>
<!-- Generator: Adobe Illustrator 18.0.0, SVG Export Plug-In . SVG Version: 6.00 Build 0)  -->
<!DOCTYPE svg PUBLIC "-//W3C//DTD SVG 1.1//EN" "http://www.w3.org/Graphics/SVG/1.1/DTD/svg11.dtd">
<svg version="1.1" id="Capa_1" xmlns="http://www.w3.org/2000/svg" xmlns:xlink="http://www.w3.org/1999/xlink" x="0px" y="0px"
	 viewBox="0 0 490.98 490.98" style="enable-background:new 0 0 490.98 490.98;" xml:space="preserve">
<g>
	<path d="M417.329,0H73.645C32.971,0,0.001,32.97,0.001,73.646v343.689c0,40.672,32.97,73.646,73.644,73.646h343.685
		c40.679,0,73.65-32.974,73.65-73.646V73.646C490.979,32.97,458.008,0,417.329,0z M183.286,228.419
		c10.067,0,18.249,8.184,18.249,18.25c0,10.086-8.182,18.271-18.267,18.271h-53v57.282c0,12.433-10.079,22.519-22.517,22.519
		c-12.45,0-22.537-10.086-22.537-22.535V164.648c0-10.163,8.249-18.412,18.411-18.412h84.503c10.165,0,18.411,8.249,18.411,18.412
		c0,10.166-8.246,18.415-18.411,18.415h-57.86v45.357H183.286z M427.882,226.358l-30.273,98.627
		c-3.598,11.748-14.431,19.756-26.72,19.756c-12.643,0-23.72-8.505-26.998-20.713l-8.005-29.938
		c-3.517-14.142-6.188-27.09-9.108-44.767h-0.593c-2.669,17.963-5.597,31.23-9.43,44.767l-8.648,30.352
		c-3.421,12.018-14.4,20.299-26.898,20.299c-12.447,0-23.38-8.217-26.852-20.17l-28.097-96.76
		c-1.854-6.409-0.591-13.297,3.409-18.633c3.995-5.326,10.271-8.459,16.939-8.459c10.134,0,18.84,7.177,20.775,17.12l8.151,41.793
		c2.926,15.025,5.885,30.91,8.249,47.419h0.575c2.96-16.509,7.079-32.971,10.598-47.133l10.916-42.16
		c2.588-10.035,11.651-17.039,22.004-17.039c10.438,0,19.517,7.098,22.056,17.199l10.104,40.229
		c3.835,16.22,7.673,32.395,10.628,48.903h0.577c2.06-16.509,4.998-32.684,8.242-49.191l8.764-40.453
		c2.109-9.736,10.723-16.688,20.694-16.688c6.278,0,12.193,2.99,15.936,8.04C428.599,213.81,429.716,220.347,427.882,226.358z"/>
</g>
<g>
</g>
<g>
</g>
<g>
</g>
<g>
</g>
<g>
</g>
<g>
</g>
<g>
</g>
<g>
</g>
<g>
</g>
<g>
</g>
<g>
</g>
<g>
</g>
<g>
</g>
<g>
</g>
<g>
</g>
</svg>
