<?xml version="1.0" encoding="iso-8859-1"?>
<!-- Generator: Adobe Illustrator 18.0.0, SVG Export Plug-In . SVG Version: 6.00 Build 0)  -->
<!DOCTYPE svg PUBLIC "-//W3C//DTD SVG 1.1//EN" "http://www.w3.org/Graphics/SVG/1.1/DTD/svg11.dtd">
<svg version="1.1" id="Capa_1" xmlns="http://www.w3.org/2000/svg" xmlns:xlink="http://www.w3.org/1999/xlink" x="0px" y="0px"
	 viewBox="0 0 496.427 496.427" style="enable-background:new 0 0 496.427 496.427;" xml:space="preserve">
<g>
	<path d="M283.199,13.414c0.033-0.003,0.004,0.101,0.012,0.133c0.001,0.002,0.003,0.008,0.001,0.008
		C283.176,13.556,283.163,13.417,283.199,13.414z"/>
	<path d="M397.432,478.386l-8.915-33.578c-1.661-6.291-7.363-10.668-13.876-10.668h-6.75l-28.264-321.064l-0.003,0.003
		c-2.313-13.741-22.185-25.438-50.323-31.315c0,0-3.89-51.237-6.091-68.218C282.223,5.932,266.748,0,248.213,0
		c-18.718,0-33.994,6.083-35.047,13.747l0.006-0.075l-6.049,68.092c-29.162,6.091-49.447,18.437-50.503,32.828L128.534,434.14
		h-6.753c-6.507,0-12.212,4.377-13.874,10.668l-8.913,33.578c-1.147,4.313-0.226,8.908,2.485,12.438
		c2.712,3.537,6.931,5.603,11.389,5.603h270.69c4.459,0,8.673-2.066,11.391-5.603C397.66,487.294,398.581,482.699,397.432,478.386z
		 M320.439,303.503c-2.729,3.302-6.78,5.216-11.061,5.216H187.05c-4.282,0-8.34-1.915-11.063-5.216
		c-2.73-3.311-3.848-7.656-3.021-11.863l10.983-56.74c1.31-6.75,7.22-11.629,14.082-11.629h100.364
		c6.864,0,12.774,4.879,14.084,11.629l10.979,56.74C324.286,295.847,323.171,300.192,320.439,303.503z"/>
</g>
<g>
</g>
<g>
</g>
<g>
</g>
<g>
</g>
<g>
</g>
<g>
</g>
<g>
</g>
<g>
</g>
<g>
</g>
<g>
</g>
<g>
</g>
<g>
</g>
<g>
</g>
<g>
</g>
<g>
</g>
</svg>
