<?xml version="1.0" encoding="iso-8859-1"?>
<!-- Generator: Adobe Illustrator 18.0.0, SVG Export Plug-In . SVG Version: 6.00 Build 0)  -->
<!DOCTYPE svg PUBLIC "-//W3C//DTD SVG 1.1//EN" "http://www.w3.org/Graphics/SVG/1.1/DTD/svg11.dtd">
<svg version="1.1" id="Capa_1" xmlns="http://www.w3.org/2000/svg" xmlns:xlink="http://www.w3.org/1999/xlink" x="0px" y="0px"
	 viewBox="0 0 494.839 494.839" style="enable-background:new 0 0 494.839 494.839;" xml:space="preserve">
<g>
	<path d="M293.183,232.086c3.893-3.867,3.893-10.126,0-13.978l-16.443-16.471c-3.879-3.86-10.141-3.86-13.983,0l-3.666,3.65
		l-54.252-54.243l1.52-1.514c2.867-2.859,2.867-7.495,0-10.344l-12.168-12.197c-2.865-2.855-7.494-2.855-10.363,0l-12.166,12.187
		c-2.867,2.859-2.867,7.495-0.018,10.344l12.184,12.196c2.869,2.85,7.498,2.85,10.363-0.009l1.523-1.52l33.496,33.507
		c-22.641-4.708-46.695-0.809-66.996,11.618l-4.021-4.012c-3.875-3.851-10.117-3.851-13.965,0l-16.492,16.477
		c-3.861,3.86-3.861,10.12,0,13.98l16.492,16.477c3.848,3.876,10.104,3.86,13.965,0l16.492-16.47
		c3.814-3.819,3.828-9.976,0.084-13.849c22.24-11.979,49.303-11.908,71.482,0.215c-3.828,3.867-3.828,10.096,0.031,13.955
		l16.475,16.47c3.777,3.797,9.881,3.804,13.74,0.145c11.754,22.107,11.627,48.873-0.301,70.898
		c-3.879-3.138-9.514-3.042-13.119,0.569l-16.492,16.468c-3.842,3.86-3.842,10.122,0,13.989l16.492,16.461
		c3.861,3.876,10.123,3.867,13.965,0l16.492-16.461c3.861-3.867,3.861-10.129,0-13.989l-4.66-4.643
		c12.443-20.296,16.34-44.333,11.625-66.992l34.145,34.141l-1.523,1.505c-2.85,2.875-2.85,7.504,0,10.353l12.205,12.194
		c2.848,2.852,7.477,2.852,10.326,0l12.17-12.185c2.895-2.858,2.895-7.487,0.033-10.337l-12.203-12.202
		c-2.85-2.85-7.498-2.85-10.346,0.008l-1.506,1.512l-54.254-54.252L293.183,232.086z"/>
	<path d="M420.506,104.695c0-1.471-0.207-6.04-4.695-10.669L325.609,4.773c-1.387-1.377-4.16-4.572-10.613-4.572
		C314.64,0.201,115.943,0,115.943,0c-23.066,0-41.82,18.756-41.82,41.813v411.215c0,23.056,18.754,41.812,41.82,41.812h262.951
		c23.064,0,41.822-18.756,41.822-41.812C420.717,453.027,420.506,105.169,420.506,104.695z M387.683,453.027
		c0,4.839-3.949,8.782-8.789,8.782H115.943c-4.838,0-8.791-3.943-8.791-8.782V41.813c0-4.839,3.953-8.783,8.791-8.783H297.48v47.441
		v0.007c0,23.049,18.758,41.805,41.805,41.805h48.398V453.027z"/>
</g>
<g>
</g>
<g>
</g>
<g>
</g>
<g>
</g>
<g>
</g>
<g>
</g>
<g>
</g>
<g>
</g>
<g>
</g>
<g>
</g>
<g>
</g>
<g>
</g>
<g>
</g>
<g>
</g>
<g>
</g>
</svg>
