<?xml version="1.0" encoding="iso-8859-1"?>
<!-- Generator: Adobe Illustrator 18.0.0, SVG Export Plug-In . SVG Version: 6.00 Build 0)  -->
<!DOCTYPE svg PUBLIC "-//W3C//DTD SVG 1.1//EN" "http://www.w3.org/Graphics/SVG/1.1/DTD/svg11.dtd">
<svg version="1.1" id="Capa_1" xmlns="http://www.w3.org/2000/svg" xmlns:xlink="http://www.w3.org/1999/xlink" x="0px" y="0px"
	 viewBox="0 0 486.359 486.359" style="enable-background:new 0 0 486.359 486.359;" xml:space="preserve">
<g>
	<path d="M221.501,0H19.191C10.061,0,2.677,7.387,2.677,16.514v453.33c0,9.129,7.384,16.516,16.515,16.516h202.31
		c9.13,0,16.519-7.387,16.519-16.516V16.514C238.02,7.387,230.631,0,221.501,0z M204.986,453.328H35.707V33.029h169.279V453.328z"/>
	<path d="M467.168,0H281.516c-9.112,0-16.515,7.387-16.515,16.514v196.119c0,9.127,7.403,16.514,16.515,16.514h185.652
		c9.125,0,16.515-7.387,16.515-16.514V16.514C483.683,7.387,476.293,0,467.168,0z M450.653,196.117H298.031V33.029h152.622V196.117z
		"/>
	<path d="M467.168,257.211H281.516c-9.112,0-16.515,7.387-16.515,16.516v196.117c0,9.129,7.403,16.516,16.515,16.516h185.652
		c9.125,0,16.515-7.387,16.515-16.516V273.727C483.683,264.598,476.293,257.211,467.168,257.211z M450.653,453.328H298.031V290.24
		h152.622V453.328z"/>
</g>
<g>
</g>
<g>
</g>
<g>
</g>
<g>
</g>
<g>
</g>
<g>
</g>
<g>
</g>
<g>
</g>
<g>
</g>
<g>
</g>
<g>
</g>
<g>
</g>
<g>
</g>
<g>
</g>
<g>
</g>
</svg>
