<?xml version="1.0" encoding="iso-8859-1"?>
<!-- Generator: Adobe Illustrator 18.0.0, SVG Export Plug-In . SVG Version: 6.00 Build 0)  -->
<!DOCTYPE svg PUBLIC "-//W3C//DTD SVG 1.1//EN" "http://www.w3.org/Graphics/SVG/1.1/DTD/svg11.dtd">
<svg version="1.1" id="Capa_1" xmlns="http://www.w3.org/2000/svg" xmlns:xlink="http://www.w3.org/1999/xlink" x="0px" y="0px"
	 viewBox="0 0 495.457 495.457" style="enable-background:new 0 0 495.457 495.457;" xml:space="preserve">
<g>
	<path d="M468.103,60.9H27.354C12.24,60.9,0,73.142,0,88.245v318.968c0,15.103,12.24,27.345,27.354,27.345h440.749
		c15.11,0,27.354-12.242,27.354-27.345V88.245C495.457,73.142,483.212,60.9,468.103,60.9z M441.78,194.054
		c6.841,0,12.387,5.549,12.387,12.388c0,6.836-5.546,12.385-12.387,12.385h-16.515v57.804h16.515
		c6.841,0,12.387,5.549,12.387,12.388c0,6.836-5.546,12.385-12.387,12.385h-16.515v57.804h16.515
		c6.841,0,12.387,5.549,12.387,12.388c0,6.836-5.546,12.385-12.387,12.385h-16.515v20.645c0,6.839-5.546,12.387-12.387,12.387
		c-6.836,0-12.387-5.548-12.387-12.387v-20.645h-57.799v20.645c0,6.839-5.551,12.387-12.387,12.387
		c-6.841,0-12.387-5.548-12.387-12.387v-20.645h-57.804v20.645c0,6.839-5.546,12.387-12.387,12.387
		c-6.837,0-12.387-5.548-12.387-12.387v-20.645H177.54v20.645c0,6.839-5.551,12.387-12.387,12.387
		c-6.841,0-12.387-5.548-12.387-12.387v-20.645H94.961v20.645c0,6.839-5.546,12.387-12.387,12.387
		c-6.836,0-12.387-5.548-12.387-12.387v-20.645H53.672c-6.837,0-12.383-5.549-12.383-12.385c0-6.839,5.546-12.388,12.383-12.388
		h16.515v-57.804H53.672c-6.837,0-12.383-5.549-12.383-12.385c0-6.839,5.546-12.388,12.383-12.388h16.515v-57.804H53.672
		c-6.837,0-12.383-5.549-12.383-12.385c0-6.839,5.546-12.388,12.383-12.388h16.515V136.25H53.672
		c-6.837,0-12.383-5.546-12.383-12.385c0-6.839,5.546-12.388,12.383-12.388h16.515V90.833c0-6.838,5.551-12.385,12.387-12.385
		c6.841,0,12.387,5.546,12.387,12.385v20.645h57.804V90.833c0-6.838,5.546-12.385,12.387-12.385c6.836,0,12.387,5.546,12.387,12.385
		v20.645h57.799V90.833c0-6.838,5.551-12.385,12.387-12.385c6.841,0,12.387,5.546,12.387,12.385v20.645h57.804V90.833
		c0-6.838,5.546-12.385,12.387-12.385c6.836,0,12.387,5.546,12.387,12.385v20.645h57.799V90.833c0-6.838,5.551-12.385,12.387-12.385
		c6.841,0,12.387,5.546,12.387,12.385v20.645h16.515c6.841,0,12.387,5.549,12.387,12.388c0,6.838-5.546,12.385-12.387,12.385
		h-16.515v57.804H441.78z"/>
	<rect x="177.539" y="136.25" width="57.799" height="57.804"/>
	<rect x="94.961" y="301.403" width="57.804" height="57.804"/>
	<rect x="177.539" y="218.827" width="57.799" height="57.804"/>
	<rect x="342.692" y="218.827" width="57.799" height="57.804"/>
	<rect x="94.961" y="218.827" width="57.804" height="57.804"/>
	<rect x="260.113" y="136.25" width="57.804" height="57.804"/>
	<rect x="260.113" y="218.827" width="57.804" height="57.804"/>
	<rect x="342.692" y="136.25" width="57.799" height="57.804"/>
	<rect x="177.539" y="301.403" width="57.799" height="57.804"/>
	<rect x="94.961" y="136.25" width="57.804" height="57.804"/>
	<rect x="260.113" y="301.403" width="57.804" height="57.804"/>
	<rect x="342.692" y="301.403" width="57.799" height="57.804"/>
</g>
<g>
</g>
<g>
</g>
<g>
</g>
<g>
</g>
<g>
</g>
<g>
</g>
<g>
</g>
<g>
</g>
<g>
</g>
<g>
</g>
<g>
</g>
<g>
</g>
<g>
</g>
<g>
</g>
<g>
</g>
</svg>
