<?xml version="1.0" encoding="iso-8859-1"?>
<!-- Generator: Adobe Illustrator 18.0.0, SVG Export Plug-In . SVG Version: 6.00 Build 0)  -->
<!DOCTYPE svg PUBLIC "-//W3C//DTD SVG 1.1//EN" "http://www.w3.org/Graphics/SVG/1.1/DTD/svg11.dtd">
<svg version="1.1" id="Capa_1" xmlns="http://www.w3.org/2000/svg" xmlns:xlink="http://www.w3.org/1999/xlink" x="0px" y="0px"
	 viewBox="0 0 487.153 487.153" style="enable-background:new 0 0 487.153 487.153;" xml:space="preserve">
<g>
	<path d="M90.278,311.734l68.045-275.829l-137.537-0.47c-7.885-0.029-14.304,6.887-14.34,15.426L5.453,354.068
		c-0.048,8.537,6.341,15.504,14.208,15.535l88.194,0.295c-4.099-3.738-7.854-7.883-10.817-12.793
		C88.921,343.675,86.463,327.127,90.278,311.734z"/>
	<path d="M148.477,325.664L220.901,32.21l193.945,47.853l-0.779,3.149c10.581,3.986,19.556,11.142,25.494,20.956
		c0.621,1.012,0.871,2.166,1.4,3.225l4.989-20.147c2.039-8.274,0.731-17.123-3.584-24.262c-4.143-6.84-10.629-11.639-18.229-13.494
		L226.883,0.815C210.88-3.1,194.116,7.483,190.003,24.094l-72.613,294.353c-2.057,8.26-0.748,17.095,3.554,24.232
		c4.144,6.871,10.625,11.672,18.26,13.553l71.974,17.764l-10.16-35.369L148.477,325.664z"/>
	<path d="M469.728,206.351c-2.184-0.824-4.429-1.211-6.638-1.211c-7.513,0-14.646,4.484-17.516,11.919l-21.916,58.71
		c-0.193,0.517-0.756,0.793-1.283,0.628c-0.268-0.084-0.489-0.271-0.616-0.52s-0.148-0.538-0.058-0.802l34.659-102.647
		c3.317-9.767-1.952-20.378-11.718-23.681c-1.965-0.608-3.942-0.904-5.89-0.904c-7.885,0-15.145,4.799-17.797,12.621
		l-35.558,105.225c-0.218,0.653-0.84,1.089-1.527,1.089c-0.122,0-0.249-0.017-0.372-0.046c-0.874-0.235-1.373-1.091-1.185-1.946
		l32.065-129.984c2.464-10.019-3.627-20.146-13.648-22.609c-1.509-0.374-3.023-0.545-4.521-0.545
		c-8.379,0-16.015,5.686-18.103,14.193L346.07,255.686c-0.187,0.794-0.905,1.341-1.684,1.341c-0.157,0-0.31-0.034-0.451-0.065
		c-0.858-0.218-1.448-1.073-1.295-1.965l14.755-97.54c1.544-10.207-5.67-19.679-15.686-21.255c-0.955-0.137-1.904-0.218-2.841-0.218
		c-9.066,0-17.013,6.641-18.417,15.895l-32.753,177.259c-0.683,3.63-3.737,6.356-7.448,6.575c-0.153,0.016-0.31,0.016-0.463,0.016
		c-3.523,0-6.64-2.289-7.702-5.656l-17.853-57.108c-2.494-8.008-9.85-13.117-17.81-13.117c-1.856,0-3.742,0.277-5.597,0.855
		c-9.845,3.085-15.346,13.57-12.278,23.405l36.494,126.944c2.397,8.179,6.949,15.596,11.779,21.781
		c0.014,0.016,0.03,0.016,0.03,0.03c2.057,2.54,3.212,5.659,3.353,8.913c0.153,3.631-0.048,7.527-0.858,11.531
		c-1.059,5.234,2.21,10.361,7.386,11.639l88.86,21.909c0.797,0.204,1.605,0.297,2.402,0.297c4.472,0,8.555-3.054,9.675-7.606
		l4.131-16.734c2.069-8.412,6.498-16.065,12.699-22.126l3.986-3.85c4.988-4.843,8.821-10.751,11.219-17.294l41.326-112.766
		l29.417-76.273C484.154,220.876,479.355,210.045,469.728,206.351z"/>
</g>
<g>
</g>
<g>
</g>
<g>
</g>
<g>
</g>
<g>
</g>
<g>
</g>
<g>
</g>
<g>
</g>
<g>
</g>
<g>
</g>
<g>
</g>
<g>
</g>
<g>
</g>
<g>
</g>
<g>
</g>
</svg>
