<?xml version="1.0" encoding="iso-8859-1"?>
<!-- Generator: Adobe Illustrator 18.0.0, SVG Export Plug-In . SVG Version: 6.00 Build 0)  -->
<!DOCTYPE svg PUBLIC "-//W3C//DTD SVG 1.1//EN" "http://www.w3.org/Graphics/SVG/1.1/DTD/svg11.dtd">
<svg version="1.1" id="Capa_1" xmlns="http://www.w3.org/2000/svg" xmlns:xlink="http://www.w3.org/1999/xlink" x="0px" y="0px"
	 viewBox="0 0 492.504 492.504" style="enable-background:new 0 0 492.504 492.504;" xml:space="preserve">
<g>
	<path d="M67.155,160.178c-13.967,0-25.318,11.362-25.318,25.323c0,13.958,11.351,25.32,25.318,25.32
		c13.967,0,25.323-11.362,25.323-25.32C92.478,171.541,81.122,160.178,67.155,160.178z"/>
	<path d="M435.138,298.647c1.451,0,2.612-1.168,2.612-2.612V74.968c0-1.444-1.161-2.614-2.612-2.614H158.62
		c-1.437,0-2.612,1.17-2.612,2.614v221.067c0,1.444,1.175,2.612,2.612,2.612h105.718l46.808-46.794
		c4.045-4.049,9.416-6.284,15.161-6.284c1.129,0,2.129,0.468,3.225,0.638c-0.677-2.84-0.903-5.774-0.419-8.718
		c1.193-7.112,5.772-13.242,12.258-16.409l41.819-20.387c3.211-1.564,6.822-2.395,10.401-2.395c6.353,0,12.323,2.476,16.805,6.968
		c7.196,7.177,9.015,18.127,4.565,27.248l-20.384,41.789c-3.146,6.475-9.278,11.056-16.404,12.256
		c-1.226,0.203-2.469,0.307-3.695,0.307c-1.773,0-3.399-0.604-5.081-1c0.193,1.177,0.696,2.273,0.696,3.492
		c0,3.308-0.936,6.403-2.34,9.289H435.138z"/>
	<path d="M446.023,10.705H46.481C20.804,10.705,0,31.517,0,57.186v256.615c0,25.668,20.804,46.481,46.481,46.481h156.234
		l45.108-45.118H158.62c-10.549,0-19.127-8.582-19.127-19.129V74.968c0-10.549,8.577-19.129,19.127-19.129h276.518
		c10.544,0,19.127,8.58,19.127,19.129v221.067c0,10.547-8.582,19.129-19.127,19.129h-81.966l-45.126,45.118h137.977
		c25.659,0,46.482-20.813,46.482-46.481V57.186C492.504,31.517,471.682,10.705,446.023,10.705z M43.901,60.62
		c0-6,4.869-10.869,10.871-10.869h24.77c6.003,0,10.872,4.869,10.872,10.869v43.128c0,6-4.869,10.869-10.872,10.869h-24.77
		c-6.002,0-10.871-4.869-10.871-10.869V60.62z M90.414,310.389c0,6-4.869,10.869-10.872,10.869h-24.77
		c-6.002,0-10.871-4.869-10.871-10.869v-43.128c0-6,4.869-10.87,10.871-10.87h24.77c6.003,0,10.872,4.87,10.872,10.87V310.389z
		 M67.155,227.336c-23.061,0-41.833-18.765-41.833-41.835c0-23.072,18.772-41.837,41.833-41.837
		c23.065,0,41.837,18.765,41.837,41.837C108.993,208.571,90.221,227.336,67.155,227.336z"/>
	<path d="M353.578,289.358c0-1.306-0.516-2.557-1.438-3.475l-22.37-22.354c-0.949-0.958-2.206-1.444-3.464-1.444
		c-1.262,0-2.52,0.486-3.487,1.444L139.894,446.446c-3.87,3.886-6.062,9.153-6.062,14.645c0,5.491,2.192,10.756,6.062,14.635
		c4.063,4.049,9.37,6.074,14.677,6.074c5.289,0,10.595-2.024,14.645-6.064L352.14,292.833
		C353.061,291.914,353.578,290.664,353.578,289.358z M325.629,298.792l-30.307,30.314c-1.211,1.21-2.791,1.815-4.372,1.815
		c-1.594,0-3.179-0.606-4.385-1.815c-2.419-2.418-2.419-6.338,0-8.757l30.289-30.314c2.419-2.412,6.353-2.428,8.775,0
		C328.047,292.455,328.047,296.373,325.629,298.792z"/>
	<path d="M374.477,270.351c0.323,0,0.645-0.023,0.967-0.081c1.857-0.313,3.469-1.509,4.293-3.209l20.366-41.789
		c1.372-2.789,0.81-6.136-1.387-8.331c-1.387-1.394-3.257-2.128-5.128-2.128c-1.096,0-2.179,0.242-3.192,0.734l-41.787,20.378
		c-1.695,0.831-2.888,2.427-3.21,4.298c-0.323,1.863,0.29,3.766,1.645,5.104l23.286,23.305
		C371.433,269.738,372.93,270.351,374.477,270.351z"/>
</g>
<g>
</g>
<g>
</g>
<g>
</g>
<g>
</g>
<g>
</g>
<g>
</g>
<g>
</g>
<g>
</g>
<g>
</g>
<g>
</g>
<g>
</g>
<g>
</g>
<g>
</g>
<g>
</g>
<g>
</g>
</svg>
