<?xml version="1.0" encoding="iso-8859-1"?>
<!-- Generator: Adobe Illustrator 18.0.0, SVG Export Plug-In . SVG Version: 6.00 Build 0)  -->
<!DOCTYPE svg PUBLIC "-//W3C//DTD SVG 1.1//EN" "http://www.w3.org/Graphics/SVG/1.1/DTD/svg11.dtd">
<svg version="1.1" id="Capa_1" xmlns="http://www.w3.org/2000/svg" xmlns:xlink="http://www.w3.org/1999/xlink" x="0px" y="0px"
	 viewBox="0 0 494.722 494.722" style="enable-background:new 0 0 494.722 494.722;" xml:space="preserve">
<path d="M486.886,6.694c-6.48-6.477-16.535-8.485-25.021-5.004c-39.951,16.429-112.514,49.529-149.663,86.653
	c-50.425,50.443-74.132,105.533-60.498,135.905l-67.123,67.122c-11.918-11.059-34.798-16.38-56.741-16.38
	c-31.401,0-65.181,10.591-65.181,33.837c0,1.619,0.227,45.747,0.227,45.747c-15.934,8.931-51.916,32.436-56.368,64.654
	l-5.102,37.067c-1.36,9.692,1.556,19.473,8,26.831c6.413,7.37,15.708,11.597,25.457,11.597h185.935
	c9.747,0,19.04-4.227,25.453-11.588c6.449-7.367,9.364-17.148,8.004-26.823l-5.103-37.084
	c-4.452-32.224-40.438-55.723-56.373-64.654c0,0,0.227-44.128,0.227-45.747c0-5.303-1.942-9.861-5.02-13.871l36.826-11.901
	c3.221-1.037,6.153-2.826,8.532-5.214l36.067-36.056c5.603,2.511,11.997,3.952,19.205,3.952c31.738,0,77.501-25.271,116.611-64.369
	c37.131-37.126,70.229-109.706,86.65-149.664C495.435,23.091,493.475,13.277,486.886,6.694z M127.842,299.863
	c21.487,0,35.058,5.548,39.319,8.963c-4.261,3.418-17.831,8.957-39.319,8.957c-21.492,0-35.063-5.539-39.319-8.957
	C92.779,305.411,106.349,299.863,127.842,299.863z M191.822,383.383H63.793c6.658-4.543,12.906-8.146,16.972-10.13
	c4.275-2.081,6.999-6.428,6.999-11.181v-26.055c11.756,4.404,26.072,6.64,40.079,6.64c14.007,0,28.323-2.236,40.078-6.64v26.055
	c0,4.77,2.72,9.109,7.013,11.19C178.77,375.124,185.051,378.75,191.822,383.383z M267.799,208.15
	c-2.283-22.809,17.022-64.856,58.201-106.028c28.682-28.677,81.181-55.22,120.417-72.587L267.799,208.15z M288.628,226.247
	c-1.232,0-2.105-0.348-3.224-0.455l49.664-49.658l47.418-0.121C349.516,206.32,312.82,226.247,288.628,226.247z M401.268,156.478
	l-46.667,0.121l21.797-21.804l41.197-0.139C412.296,142.575,406.839,149.814,401.268,156.478z M429.754,115.126l-33.797,0.113
	l68.11-68.11C454.853,67.946,443.116,92.318,429.754,115.126z"/>
<g>
</g>
<g>
</g>
<g>
</g>
<g>
</g>
<g>
</g>
<g>
</g>
<g>
</g>
<g>
</g>
<g>
</g>
<g>
</g>
<g>
</g>
<g>
</g>
<g>
</g>
<g>
</g>
<g>
</g>
</svg>
