<?xml version="1.0" encoding="iso-8859-1"?>
<!-- Generator: Adobe Illustrator 18.0.0, SVG Export Plug-In . SVG Version: 6.00 Build 0)  -->
<!DOCTYPE svg PUBLIC "-//W3C//DTD SVG 1.1//EN" "http://www.w3.org/Graphics/SVG/1.1/DTD/svg11.dtd">
<svg version="1.1" id="Capa_1" xmlns="http://www.w3.org/2000/svg" xmlns:xlink="http://www.w3.org/1999/xlink" x="0px" y="0px"
	 viewBox="0 0 494.82 494.82" style="enable-background:new 0 0 494.82 494.82;" xml:space="preserve">
<g>
	<path d="M454.749,189.681H275.244v-32.28c0-5.517-4.478-9.986-9.988-9.986h-5.473v-22.81c0-6.184,5.025-11.208,11.208-11.208
		h137.753c19.813,0,35.952-16.134,35.952-35.954V46.259c0-19.819-16.139-35.952-35.952-35.952H38.526
		c-6.826,0-12.367,5.542-12.367,12.371c0,6.832,5.542,12.37,12.367,12.37h370.218c6.183,0,11.208,5.025,11.208,11.21v31.185
		c0,6.187-5.026,11.212-11.208,11.212H270.991c-19.812,0-35.952,16.131-35.952,35.949v22.81h-5.479
		c-5.504,0-9.983,4.469-9.983,9.986v32.28H40.074C17.977,189.681,0,207.657,0,229.756v214.682c0,22.099,17.977,40.076,40.074,40.076
		h414.675c22.097,0,40.072-17.977,40.072-40.076V229.756C494.82,207.657,476.845,189.681,454.749,189.681z M461.832,444.437
		c0,3.905-3.189,7.088-7.083,7.088H40.074c-3.899,0-7.088-3.183-7.088-7.088V229.756c0-3.905,3.189-7.085,7.088-7.085h414.675
		c3.894,0,7.083,3.18,7.083,7.085V444.437z"/>
	<path d="M101.027,247.41H63.912c-3.705,0-6.7,2.997-6.7,6.702v37.11c0,3.705,2.995,6.702,6.7,6.702h37.115
		c3.705,0,6.7-2.997,6.7-6.702v-37.11C107.727,250.408,104.732,247.41,101.027,247.41z"/>
	<path d="M146.384,297.925h37.111c3.704,0,6.704-2.997,6.704-6.702v-37.11c0-3.705-3-6.702-6.704-6.702h-37.111
		c-3.705,0-6.699,2.997-6.699,6.702v37.11C139.685,294.928,142.679,297.925,146.384,297.925z"/>
	<path d="M228.855,297.925h37.11c3.705,0,6.7-2.997,6.7-6.702v-37.11c0-3.705-2.995-6.702-6.7-6.702h-37.11
		c-3.706,0-6.704,2.997-6.704,6.702v37.11C222.151,294.928,225.15,297.925,228.855,297.925z"/>
	<path d="M348.438,247.41h-37.111c-3.705,0-6.703,2.997-6.703,6.702v37.11c0,3.705,2.999,6.702,6.703,6.702h37.111
		c3.705,0,6.699-2.997,6.699-6.702v-37.11C355.137,250.408,352.143,247.41,348.438,247.41z"/>
	<path d="M430.909,247.41h-37.115c-3.704,0-6.699,2.997-6.699,6.702v37.11c0,3.705,2.995,6.702,6.699,6.702h37.115
		c3.705,0,6.7-2.997,6.7-6.702v-37.11C437.609,250.408,434.614,247.41,430.909,247.41z"/>
	<path d="M101.027,313.388H63.912c-3.705,0-6.7,2.995-6.7,6.699v37.112c0,3.705,2.995,6.702,6.7,6.702h37.115
		c3.705,0,6.7-2.997,6.7-6.702v-37.112C107.727,316.383,104.732,313.388,101.027,313.388z"/>
	<path d="M146.384,363.901h37.111c3.704,0,6.704-2.997,6.704-6.702v-37.112c0-3.704-3-6.699-6.704-6.699h-37.111
		c-3.705,0-6.699,2.995-6.699,6.699v37.112C139.685,360.905,142.679,363.901,146.384,363.901z"/>
	<path d="M228.855,363.901h37.11c3.705,0,6.7-2.997,6.7-6.702v-37.112c0-3.704-2.995-6.699-6.7-6.699h-37.11
		c-3.706,0-6.704,2.995-6.704,6.699v37.112C222.151,360.905,225.15,363.901,228.855,363.901z"/>
	<path d="M348.438,313.388h-37.111c-3.705,0-6.703,2.995-6.703,6.699v37.112c0,3.705,2.999,6.702,6.703,6.702h37.111
		c3.705,0,6.699-2.997,6.699-6.702v-37.112C355.137,316.383,352.143,313.388,348.438,313.388z"/>
	<path d="M430.909,313.388h-37.115c-3.704,0-6.699,2.995-6.699,6.699v37.112c0,3.705,2.995,6.702,6.699,6.702h37.115
		c3.705,0,6.7-2.997,6.7-6.702v-37.112C437.609,316.383,434.614,313.388,430.909,313.388z"/>
	<path d="M101.027,379.363H63.912c-3.705,0-6.7,2.996-6.7,6.701v37.113c0,3.705,2.995,6.699,6.7,6.699h37.115
		c3.705,0,6.7-2.995,6.7-6.699v-37.113C107.727,382.359,104.732,379.363,101.027,379.363z"/>
	<path d="M348.438,379.363h-13.661h-23.45h-45.361h-37.11h-45.361h-18.555h-18.556c-3.705,0-6.699,2.996-6.699,6.701v37.113
		c0,3.705,2.995,6.699,6.699,6.699h18.556h18.555h45.361h37.11h45.361h23.45h13.661c3.705,0,6.699-2.995,6.699-6.699v-37.113
		C355.137,382.359,352.143,379.363,348.438,379.363z"/>
	<path d="M430.909,379.363h-37.115c-3.704,0-6.699,2.996-6.699,6.701v37.113c0,3.705,2.995,6.699,6.699,6.699h37.115
		c3.705,0,6.7-2.995,6.7-6.699v-37.113C437.609,382.359,434.614,379.363,430.909,379.363z"/>
</g>
<g>
</g>
<g>
</g>
<g>
</g>
<g>
</g>
<g>
</g>
<g>
</g>
<g>
</g>
<g>
</g>
<g>
</g>
<g>
</g>
<g>
</g>
<g>
</g>
<g>
</g>
<g>
</g>
<g>
</g>
</svg>
