<?xml version="1.0" encoding="iso-8859-1"?>
<!-- Generator: Adobe Illustrator 18.0.0, SVG Export Plug-In . SVG Version: 6.00 Build 0)  -->
<!DOCTYPE svg PUBLIC "-//W3C//DTD SVG 1.1//EN" "http://www.w3.org/Graphics/SVG/1.1/DTD/svg11.dtd">
<svg version="1.1" id="Capa_1" xmlns="http://www.w3.org/2000/svg" xmlns:xlink="http://www.w3.org/1999/xlink" x="0px" y="0px"
	 viewBox="0 0 493.845 493.845" style="enable-background:new 0 0 493.845 493.845;" xml:space="preserve">
<g>
	<path d="M344.292,223.551l21.463-11.843c1.92-1.057,3-3.161,2.758-5.329c-0.225-2.179-1.756-3.992-3.853-4.604l-100.744-29.62
		c-1.883-0.557-3.949-0.032-5.353,1.369c-1.401,1.395-1.921,3.451-1.371,5.355l29.624,100.75c0.61,2.096,2.435,3.62,4.594,3.862
		c2.175,0.233,4.287-0.857,5.335-2.774l11.853-21.476l32.795,32.803c2.889,2.869,7.528,2.869,10.416,0l25.281-25.298
		c1.387-1.378,2.162-3.248,2.162-5.201c0-1.951-0.775-3.822-2.162-5.2L344.292,223.551z"/>
	<path d="M70.813,348.737h352.211c9.132,0,16.516-7.392,16.516-16.512V90.069c0-9.117-7.384-16.511-16.516-16.511H70.813
		c-9.123,0-16.508,7.395-16.508,16.511v242.157C54.306,341.345,61.69,348.737,70.813,348.737z M87.329,106.58h319.189v209.137
		H87.329V106.58z"/>
	<path d="M469.077,370.755H24.766C11.095,370.755,0,381.84,0,395.521c0,13.681,11.095,24.766,24.766,24.766h444.311
		c13.674,0,24.768-11.085,24.768-24.766C493.845,381.84,482.751,370.755,469.077,370.755z"/>
</g>
<g>
</g>
<g>
</g>
<g>
</g>
<g>
</g>
<g>
</g>
<g>
</g>
<g>
</g>
<g>
</g>
<g>
</g>
<g>
</g>
<g>
</g>
<g>
</g>
<g>
</g>
<g>
</g>
<g>
</g>
</svg>
