<?xml version="1.0" encoding="iso-8859-1"?>
<!-- Generator: Adobe Illustrator 18.0.0, SVG Export Plug-In . SVG Version: 6.00 Build 0)  -->
<!DOCTYPE svg PUBLIC "-//W3C//DTD SVG 1.1//EN" "http://www.w3.org/Graphics/SVG/1.1/DTD/svg11.dtd">
<svg version="1.1" id="Capa_1" xmlns="http://www.w3.org/2000/svg" xmlns:xlink="http://www.w3.org/1999/xlink" x="0px" y="0px"
	 viewBox="0 0 488.072 488.072" style="enable-background:new 0 0 488.072 488.072;" xml:space="preserve">
<g>
	<path d="M429.913,66.078h-68.116L311.64,46.381V21.413c0-6.652-5.4-12.049-12.049-12.049H188.469
		c-6.653,0-12.05,5.398-12.05,12.049v24.975l-50.138,19.689H58.159C26.093,66.078,0,92.169,0,124.235
		c0,6.652,5.399,12.05,12.049,12.05h164.37v330.375c0,6.652,5.396,12.05,12.05,12.05h111.122c6.649,0,12.049-5.397,12.049-12.05
		V136.285h164.384c6.65,0,12.049-5.397,12.049-12.05C488.072,92.169,461.979,66.078,429.913,66.078z M26.294,112.186
		c4.881-12.85,17.32-22.011,31.865-22.011h70.395c1.505,0,2.996-0.282,4.408-0.831l43.457-17.062v39.904H26.294z M287.542,454.612
		H200.52v-33.857h26.778c4.44,0,8.029-3.594,8.029-8.033c0-4.44-3.589-8.032-8.029-8.032H200.52V372.56h26.778
		c4.44,0,8.029-3.592,8.029-8.032c0-4.439-3.589-8.032-8.029-8.032H200.52v-32.129h26.778c4.44,0,8.029-3.594,8.029-8.032
		c0-4.441-3.589-8.032-8.029-8.032H200.52V276.17h26.778c4.44,0,8.029-3.592,8.029-8.032c0-4.441-3.589-8.033-8.029-8.033H200.52
		v-32.129h26.778c4.44,0,8.029-3.594,8.029-8.035c0-4.438-3.589-8.032-8.029-8.032H200.52V179.78h26.778
		c4.44,0,8.029-3.594,8.029-8.032c0-4.44-3.589-8.032-8.029-8.032H200.52v-32.131h26.778c4.44,0,8.029-3.592,8.029-8.032
		c0-4.439-3.589-8.032-8.029-8.032H200.52V33.46h87.022V454.612z M311.64,112.186V72.275l43.471,17.069
		c1.412,0.549,2.903,0.831,4.41,0.831h70.393c14.545,0,26.984,9.161,31.865,22.011H311.64z"/>
	<path d="M244.02,78.817c6.857,0,12.408-5.555,12.408-12.403c0-6.838-5.551-12.393-12.408-12.393
		c-6.837,0-12.394,5.554-12.394,12.393C231.626,73.263,237.184,78.817,244.02,78.817z"/>
</g>
<g>
</g>
<g>
</g>
<g>
</g>
<g>
</g>
<g>
</g>
<g>
</g>
<g>
</g>
<g>
</g>
<g>
</g>
<g>
</g>
<g>
</g>
<g>
</g>
<g>
</g>
<g>
</g>
<g>
</g>
</svg>
