<?xml version="1.0" encoding="iso-8859-1"?>
<!-- Generator: Adobe Illustrator 18.0.0, SVG Export Plug-In . SVG Version: 6.00 Build 0)  -->
<!DOCTYPE svg PUBLIC "-//W3C//DTD SVG 1.1//EN" "http://www.w3.org/Graphics/SVG/1.1/DTD/svg11.dtd">
<svg version="1.1" id="Capa_1" xmlns="http://www.w3.org/2000/svg" xmlns:xlink="http://www.w3.org/1999/xlink" x="0px" y="0px"
	 viewBox="0 0 490.862 490.862" style="enable-background:new 0 0 490.862 490.862;" xml:space="preserve">
<g>
	<path d="M347.436,181.379l-55.016-55.028c-0.256-0.251-0.419-0.546-0.658-0.797L122.654,281.725l86.499,86.502l89.025-96.407
		c-7.382-16.636-4.386-36.792,9.232-50.413L347.436,181.379z"/>
	<path d="M90.972,310.978c-5.326,4.921-8.41,11.787-8.574,19.031c-0.129,7.246,2.671,14.232,7.82,19.362l0.527,0.54l-24.634,24.635
		c-2.512,2.508-3.924,5.918-3.924,9.463c0,3.548,1.412,6.955,3.924,9.457l-29.833,29.831c-2.506,2.509-3.925,5.918-3.925,9.464
		c0,3.545,1.419,6.954,3.925,9.462l0.358,0.362L2.412,476.801c-3.216,3.215-3.216,8.427,0,11.643
		c1.608,1.607,3.729,2.411,5.82,2.411c2.124,0,4.215-0.803,5.823-2.411l34.222-34.212l0.352,0.361
		c5.244,5.225,13.702,5.225,18.946,0.007l29.828-29.831c2.512,2.509,5.921,3.924,9.475,3.924c3.536,0,6.947-1.415,9.453-3.924
		l24.638-24.636l0.546,0.537c5.113,5.131,12.109,7.947,19.363,7.803c7.235-0.147,14.103-3.241,19.026-8.565l12.492-13.516
		l-87.896-87.899L90.972,310.978z"/>
	<path d="M472.148,103.779l6.205-6.207c16.678-16.667,16.678-43.685,0-60.36l-24.697-24.7c-8.333-8.331-19.253-12.504-30.173-12.504
		c-10.935,0-21.855,4.173-30.182,12.504l-83.431,83.427c-3.571,3.573-3.571,9.369,0.014,12.947l72.11,72.116
		c0.129,0.129,0.319,0.175,0.45,0.304l-57.573,57.564c-8.037,8.041-8.037,21.074,0,29.115c4.02,4.013,9.295,6.022,14.556,6.022
		c5.275,0,10.532-2.009,14.552-6.031l123.331-123.318c9.853-9.858,9.853-25.859,0-35.725L472.148,103.779z"/>
</g>
<g>
</g>
<g>
</g>
<g>
</g>
<g>
</g>
<g>
</g>
<g>
</g>
<g>
</g>
<g>
</g>
<g>
</g>
<g>
</g>
<g>
</g>
<g>
</g>
<g>
</g>
<g>
</g>
<g>
</g>
</svg>
