<?xml version="1.0" encoding="iso-8859-1"?>
<!-- Generator: Adobe Illustrator 18.0.0, SVG Export Plug-In . SVG Version: 6.00 Build 0)  -->
<!DOCTYPE svg PUBLIC "-//W3C//DTD SVG 1.1//EN" "http://www.w3.org/Graphics/SVG/1.1/DTD/svg11.dtd">
<svg version="1.1" id="Capa_1" xmlns="http://www.w3.org/2000/svg" xmlns:xlink="http://www.w3.org/1999/xlink" x="0px" y="0px"
	 viewBox="0 0 490.597 490.597" style="enable-background:new 0 0 490.597 490.597;" xml:space="preserve">
<path d="M458.061,421.025c-7.442-16.345-26.726-23.566-43.038-16.124c-115.88,52.703-253.117,1.27-305.851-114.671
	c-37.074-81.554-0.889-178.07,80.695-215.174c56.084-25.535,122.594-0.648,148.14,55.479c16.966,37.342,0.397,81.523-36.91,98.486
	c-23.44,10.681-51.085,0.256-61.718-23.105c-5.952-13.074-0.141-28.564,12.951-34.516c16.344-7.426,23.564-26.709,16.121-43.037
	c-7.424-16.361-26.725-23.551-43.038-16.123c-45.702,20.789-65.983,74.871-45.208,120.574
	c25.469,55.973,91.756,80.823,147.775,55.383c69.947-31.801,100.988-114.592,69.188-184.558
	C356.799,14.896,251.771-24.556,162.953,15.896C48.754,67.821-1.916,202.949,50.012,317.142
	c49.541,108.962,157.324,173.455,269.873,173.455c40.912,0,82.459-8.522,122.053-26.533
	C458.265,456.636,465.485,437.372,458.061,421.025z"/>
<g>
</g>
<g>
</g>
<g>
</g>
<g>
</g>
<g>
</g>
<g>
</g>
<g>
</g>
<g>
</g>
<g>
</g>
<g>
</g>
<g>
</g>
<g>
</g>
<g>
</g>
<g>
</g>
<g>
</g>
</svg>
