<?xml version="1.0" encoding="iso-8859-1"?>
<!-- Generator: Adobe Illustrator 18.0.0, SVG Export Plug-In . SVG Version: 6.00 Build 0)  -->
<!DOCTYPE svg PUBLIC "-//W3C//DTD SVG 1.1//EN" "http://www.w3.org/Graphics/SVG/1.1/DTD/svg11.dtd">
<svg version="1.1" id="Capa_1" xmlns="http://www.w3.org/2000/svg" xmlns:xlink="http://www.w3.org/1999/xlink" x="0px" y="0px"
	 viewBox="0 0 490.578 490.578" style="enable-background:new 0 0 490.578 490.578;" xml:space="preserve">
<path d="M245.291,4.255C110.029,4.255,0,114.295,0,249.544v207.648c0,16.064,13.065,29.131,29.134,29.131h99.919
	c16.068,0,29.139-13.066,29.139-29.131V249.544c0-48.028,39.069-87.097,87.099-87.097c48.026,0,87.099,39.069,87.099,87.097v207.648
	c0,16.064,13.066,29.131,29.135,29.131h99.92c16.068,0,29.134-13.066,29.134-29.131V249.544
	C490.578,114.295,380.549,4.255,245.291,4.255z M245.291,128.656c-66.656,0-120.89,54.232-120.89,120.888v113.275H33.79V249.544
	c0-116.623,94.884-211.501,211.501-211.501c116.613,0,211.501,94.878,211.501,211.501v113.275h-90.615V249.544
	C366.177,182.889,311.948,128.656,245.291,128.656z"/>
<g>
</g>
<g>
</g>
<g>
</g>
<g>
</g>
<g>
</g>
<g>
</g>
<g>
</g>
<g>
</g>
<g>
</g>
<g>
</g>
<g>
</g>
<g>
</g>
<g>
</g>
<g>
</g>
<g>
</g>
</svg>
