<?xml version="1.0" encoding="iso-8859-1"?>
<!-- Generator: Adobe Illustrator 18.0.0, SVG Export Plug-In . SVG Version: 6.00 Build 0)  -->
<!DOCTYPE svg PUBLIC "-//W3C//DTD SVG 1.1//EN" "http://www.w3.org/Graphics/SVG/1.1/DTD/svg11.dtd">
<svg version="1.1" id="Capa_1" xmlns="http://www.w3.org/2000/svg" xmlns:xlink="http://www.w3.org/1999/xlink" x="0px" y="0px"
	 viewBox="0 0 494.839 494.839" style="enable-background:new 0 0 494.839 494.839;" xml:space="preserve">
<g>
	<path d="M316.935,133.94H177.917c-8.851,0-16.024,7.174-16.024,16.008v57.533c0,8.851,7.174,16.025,16.024,16.025h139.018
		c8.83,0,16.01-7.174,16.01-16.025v-57.533C332.945,141.114,325.765,133.94,316.935,133.94z"/>
	<path d="M378.894,0H115.943c-23.066,0-41.82,18.756-41.82,41.812v411.215c0,23.057,18.754,41.813,41.82,41.813
		c0,0,198.697-0.2,199.053-0.2c6.453,0,9.227-3.195,10.613-4.572l90.201-89.253c4.488-4.629,4.695-9.199,4.695-10.67
		c0-0.473,0.211-348.332,0.211-348.332C420.716,18.756,401.958,0,378.894,0z M387.683,372.556h-48.398
		c-23.047,0-41.805,18.756-41.805,41.806v0.007v47.441H115.943c-4.838,0-8.791-3.943-8.791-8.783V41.812
		c0-4.839,3.953-8.781,8.791-8.781h262.951c4.84,0,8.789,3.942,8.789,8.781V372.556z"/>
</g>
<g>
</g>
<g>
</g>
<g>
</g>
<g>
</g>
<g>
</g>
<g>
</g>
<g>
</g>
<g>
</g>
<g>
</g>
<g>
</g>
<g>
</g>
<g>
</g>
<g>
</g>
<g>
</g>
<g>
</g>
</svg>
