<?xml version="1.0" encoding="iso-8859-1"?>
<!-- Generator: Adobe Illustrator 18.0.0, SVG Export Plug-In . SVG Version: 6.00 Build 0)  -->
<!DOCTYPE svg PUBLIC "-//W3C//DTD SVG 1.1//EN" "http://www.w3.org/Graphics/SVG/1.1/DTD/svg11.dtd">
<svg version="1.1" id="Capa_1" xmlns="http://www.w3.org/2000/svg" xmlns:xlink="http://www.w3.org/1999/xlink" x="0px" y="0px"
	 viewBox="0 0 483.053 483.053" style="enable-background:new 0 0 483.053 483.053;" xml:space="preserve">
<g>
	<path d="M291.805,93.173c25.742,0,46.585-20.862,46.585-46.586C338.39,20.86,317.547,0,291.805,0
		c-25.71,0-46.588,20.86-46.588,46.587C245.217,72.312,266.095,93.173,291.805,93.173z"/>
	<path d="M421.338,329.835h-15.783c0.8-2.446,3.465-12.373,0.897-23.641c-10.208-44.792-39.177-179.539-39.177-179.539
		c-4.003-18.279-22.033-29.877-40.335-25.882c-8.877,1.94-15.66,7.55-20.761,14.251c-14.325,18.818-55.472,72.289-55.472,72.289
		l-72.622-11.836c-9.247-1.573-17.952,4.762-19.438,13.994c-1.509,9.234,4.748,17.935,13.996,19.439l82.583,13.457
		c0.912,0.15,1.819,0.227,2.731,0.227c5.192,0,10.159-2.392,13.4-6.579l35.917-46.438l27.742,127.129h-67.893
		c-12.806,0-23.626,9.544-25.215,22.26L224.971,454.49c-1.754,13.922,8.136,26.627,22.065,28.365
		c1.06,0.132,2.117,0.198,3.175,0.198c12.642,0,23.574-9.404,25.181-22.258l14.162-113.266h18.844v117.831
		c0,9.354,7.594,16.941,16.941,16.941c9.346,0,16.939-7.586,16.939-16.941V363.715h62.119v101.646
		c0,9.354,7.595,16.941,16.94,16.941c9.366,0,16.945-7.586,16.945-16.941V346.776C438.283,337.422,430.704,329.835,421.338,329.835z
		"/>
	<path d="M219.395,279.568c2.697,1.572,5.642,2.315,8.533,2.315c5.826,0,11.501-3.003,14.645-8.388
		c4.729-8.08,2.004-18.454-6.072-23.175L70.27,153.133c-8.09-4.746-18.477-2.018-23.178,6.081
		c-4.73,8.072-1.998,18.448,6.072,23.169l21.259,12.434v270.544c0,9.354,7.579,16.941,16.939,16.941h93.173
		c9.366,0,16.941-7.586,16.941-16.941c0-9.356-7.575-16.943-16.941-16.943h-76.232V214.619L219.395,279.568z"/>
</g>
<g>
</g>
<g>
</g>
<g>
</g>
<g>
</g>
<g>
</g>
<g>
</g>
<g>
</g>
<g>
</g>
<g>
</g>
<g>
</g>
<g>
</g>
<g>
</g>
<g>
</g>
<g>
</g>
<g>
</g>
</svg>
