<?xml version="1.0" encoding="iso-8859-1"?>
<!-- Generator: Adobe Illustrator 18.0.0, SVG Export Plug-In . SVG Version: 6.00 Build 0)  -->
<!DOCTYPE svg PUBLIC "-//W3C//DTD SVG 1.1//EN" "http://www.w3.org/Graphics/SVG/1.1/DTD/svg11.dtd">
<svg version="1.1" id="Capa_1" xmlns="http://www.w3.org/2000/svg" xmlns:xlink="http://www.w3.org/1999/xlink" x="0px" y="0px"
	 viewBox="0 0 492.475 492.475" style="enable-background:new 0 0 492.475 492.475;" xml:space="preserve">
<g>
	<path d="M311.891,94.235c0-13.601-7.004-26.233-18.53-33.441L199.016,1.834c-3.717-2.325-8.401-2.447-12.23-0.322
		c-3.846,2.125-6.218,6.163-6.218,10.548v160.553h131.323V94.235z"/>
	<path d="M351.431,238.661h-9.704c4.377-4.449,7.104-10.541,7.104-17.272c0-13.604-11.029-24.623-24.625-24.623h-155.95
		c-13.595,0-24.623,11.02-24.623,24.623c0,6.731,2.725,12.823,7.104,17.272h-9.688c-14.925,0-27.028,12.103-27.028,27.036v219.595
		c0,3.97,3.224,7.184,7.185,7.184h30.636V303.964c0-9.065,7.338-16.417,16.414-16.417c9.071,0,16.415,7.352,16.415,16.417v188.511
		h186.602c3.96,0,7.183-3.214,7.183-7.184V265.697C378.455,250.764,366.354,238.661,351.431,238.661z"/>
</g>
<g>
</g>
<g>
</g>
<g>
</g>
<g>
</g>
<g>
</g>
<g>
</g>
<g>
</g>
<g>
</g>
<g>
</g>
<g>
</g>
<g>
</g>
<g>
</g>
<g>
</g>
<g>
</g>
<g>
</g>
</svg>
