<?xml version="1.0" encoding="iso-8859-1"?>
<!-- Generator: Adobe Illustrator 18.0.0, SVG Export Plug-In . SVG Version: 6.00 Build 0)  -->
<!DOCTYPE svg PUBLIC "-//W3C//DTD SVG 1.1//EN" "http://www.w3.org/Graphics/SVG/1.1/DTD/svg11.dtd">
<svg version="1.1" id="Capa_1" xmlns="http://www.w3.org/2000/svg" xmlns:xlink="http://www.w3.org/1999/xlink" x="0px" y="0px"
	 viewBox="0 0 486.441 486.441" style="enable-background:new 0 0 486.441 486.441;" xml:space="preserve">
<g>
	<path d="M449.783,362.67H223.926c-10.237,0-18.521,8.286-18.521,18.521v74.933c0,10.237,8.284,18.521,18.521,18.521h225.857
		c10.239,0,18.521-8.283,18.521-18.521v-74.933C468.303,370.956,460.022,362.67,449.783,362.67z"/>
	<path d="M99.185,355.964c-7.239-7.239-18.949-7.239-26.187,0l-49.432,49.43c-7.238,7.239-7.238,18.947,0,26.189l49.432,49.428
		c7.237,7.242,18.947,7.242,26.187,0l49.429-49.428c7.24-7.241,7.24-18.949,0-26.189L99.185,355.964z"/>
	<path d="M449.783,187.403H223.926c-10.237,0-18.521,8.286-18.521,18.523v74.932c0,10.236,8.284,18.52,18.521,18.52h225.857
		c10.239,0,18.521-8.283,18.521-18.52v-74.932C468.303,195.689,460.022,187.403,449.783,187.403z"/>
	<path d="M99.185,180.699c-7.239-7.24-18.949-7.24-26.187,0l-49.432,49.43c-7.238,7.239-7.238,18.946,0,26.188l49.432,49.427
		c7.237,7.242,18.947,7.242,26.187,0l49.429-49.427c7.24-7.242,7.24-18.949,0-26.188L99.185,180.699z"/>
	<path d="M449.783,12.139H223.926c-10.237,0-18.521,8.283-18.521,18.52v74.934c0,10.237,8.284,18.521,18.521,18.521h225.857
		c10.239,0,18.521-8.283,18.521-18.521V30.658C468.303,20.422,460.022,12.139,449.783,12.139z"/>
	<path d="M99.185,5.432c-7.239-7.242-18.949-7.242-26.187,0L23.567,54.859c-7.238,7.243-7.238,18.951,0,26.19l49.432,49.43
		c7.237,7.239,18.947,7.239,26.187,0l49.429-49.43c7.24-7.239,7.24-18.947,0-26.19L99.185,5.432z"/>
</g>
<g>
</g>
<g>
</g>
<g>
</g>
<g>
</g>
<g>
</g>
<g>
</g>
<g>
</g>
<g>
</g>
<g>
</g>
<g>
</g>
<g>
</g>
<g>
</g>
<g>
</g>
<g>
</g>
<g>
</g>
</svg>
