<?xml version="1.0" encoding="iso-8859-1"?>
<!-- Generator: Adobe Illustrator 18.0.0, SVG Export Plug-In . SVG Version: 6.00 Build 0)  -->
<!DOCTYPE svg PUBLIC "-//W3C//DTD SVG 1.1//EN" "http://www.w3.org/Graphics/SVG/1.1/DTD/svg11.dtd">
<svg version="1.1" id="Capa_1" xmlns="http://www.w3.org/2000/svg" xmlns:xlink="http://www.w3.org/1999/xlink" x="0px" y="0px"
	 viewBox="0 0 474.459 474.459" style="enable-background:new 0 0 474.459 474.459;" xml:space="preserve">
<g>
	<path d="M449.685,152.961H346.74v49.545h78.176v222.408H202.508V346.74h-49.549v102.945c0,13.678,11.098,24.774,24.773,24.774
		h271.953c13.677,0,24.774-11.096,24.774-24.774V177.734C474.459,164.057,463.362,152.961,449.685,152.961z"/>
	<path d="M313.71,298.211V15.516C313.71,6.936,306.773,0,298.195,0H15.502C6.938,0,0,6.936,0,15.516v282.695
		c0,8.564,6.938,15.498,15.502,15.498h282.693C306.773,313.709,313.71,306.775,313.71,298.211z"/>
</g>
<g>
</g>
<g>
</g>
<g>
</g>
<g>
</g>
<g>
</g>
<g>
</g>
<g>
</g>
<g>
</g>
<g>
</g>
<g>
</g>
<g>
</g>
<g>
</g>
<g>
</g>
<g>
</g>
<g>
</g>
</svg>
