<?xml version="1.0" encoding="iso-8859-1"?>
<!-- Generator: Adobe Illustrator 18.0.0, SVG Export Plug-In . SVG Version: 6.00 Build 0)  -->
<!DOCTYPE svg PUBLIC "-//W3C//DTD SVG 1.1//EN" "http://www.w3.org/Graphics/SVG/1.1/DTD/svg11.dtd">
<svg version="1.1" id="Capa_1" xmlns="http://www.w3.org/2000/svg" xmlns:xlink="http://www.w3.org/1999/xlink" x="0px" y="0px"
	 viewBox="0 0 479.846 479.846" style="enable-background:new 0 0 479.846 479.846;" xml:space="preserve">
<g>
	<path d="M313.719,114.557V15.498C313.719,6.936,306.768,0,298.217,0H15.522C6.945,0,0.007,6.936,0.007,15.498v282.695
		c0,8.58,6.938,15.516,15.515,15.516h99.028V186.328c0-39.578,32.21-71.771,71.785-71.771H313.719z"/>
	<path d="M441.083,147.59H186.336c-21.37,0-38.755,17.385-38.755,38.738v254.777c0,21.354,17.385,38.74,38.755,38.74h254.747
		c21.37,0,38.755-17.387,38.755-38.74V186.328C479.838,164.975,462.453,147.59,441.083,147.59z M430.29,430.299H197.125V197.133
		H430.29V430.299z"/>
</g>
<g>
</g>
<g>
</g>
<g>
</g>
<g>
</g>
<g>
</g>
<g>
</g>
<g>
</g>
<g>
</g>
<g>
</g>
<g>
</g>
<g>
</g>
<g>
</g>
<g>
</g>
<g>
</g>
<g>
</g>
</svg>
