<?xml version="1.0" encoding="iso-8859-1"?>
<!-- Generator: Adobe Illustrator 18.0.0, SVG Export Plug-In . SVG Version: 6.00 Build 0)  -->
<!DOCTYPE svg PUBLIC "-//W3C//DTD SVG 1.1//EN" "http://www.w3.org/Graphics/SVG/1.1/DTD/svg11.dtd">
<svg version="1.1" id="Capa_1" xmlns="http://www.w3.org/2000/svg" xmlns:xlink="http://www.w3.org/1999/xlink" x="0px" y="0px"
	 viewBox="0 0 489.144 489.144" style="enable-background:new 0 0 489.144 489.144;" xml:space="preserve">
<g>
	<path d="M473.919,2.96H15.207C6.804,2.96,0,9.766,0,18.185v452.772c0,8.42,6.804,15.227,15.207,15.227h65.824v-315.08H57.75
		c-8.404,0-15.211-6.806-15.211-15.226V60.729c0-8.42,6.808-15.227,15.211-15.227h95.167c8.403,0,15.225,6.807,15.225,15.227v23.264
		h321.001V18.185C489.144,9.766,482.336,2.96,473.919,2.96z"/>
	<path d="M168.143,155.879c0,8.42-6.822,15.226-15.225,15.226H129.65v315.08h65.81c8.404,0,15.226-6.807,15.226-15.227V228.872
		c0-8.42,6.803-15.225,15.207-15.225h248.026c8.417,0,15.225-6.806,15.225-15.226v-65.809H168.143V155.879z"/>
</g>
<g>
</g>
<g>
</g>
<g>
</g>
<g>
</g>
<g>
</g>
<g>
</g>
<g>
</g>
<g>
</g>
<g>
</g>
<g>
</g>
<g>
</g>
<g>
</g>
<g>
</g>
<g>
</g>
<g>
</g>
</svg>
