<?xml version="1.0" encoding="iso-8859-1"?>
<!-- Generator: Adobe Illustrator 18.0.0, SVG Export Plug-In . SVG Version: 6.00 Build 0)  -->
<!DOCTYPE svg PUBLIC "-//W3C//DTD SVG 1.1//EN" "http://www.w3.org/Graphics/SVG/1.1/DTD/svg11.dtd">
<svg version="1.1" id="Capa_1" xmlns="http://www.w3.org/2000/svg" xmlns:xlink="http://www.w3.org/1999/xlink" x="0px" y="0px"
	 viewBox="0 0 496.503 496.503" style="enable-background:new 0 0 496.503 496.503;" xml:space="preserve">
<path d="M469.038,28.472c0-7.575-2.962-14.722-8.335-20.104C455.31,2.98,448.173,0,440.597,0l0,0
	c-7.169,0.01-14.032,2.703-19.326,7.608l-68.989,63.92H77.221c-27.482,0-49.756,22.281-49.756,49.767v229.802
	c0,27.486,22.273,49.757,49.756,49.757h105.085v33.578h-46.181c-10.457,0-18.936,8.476-18.936,18.925v24.221
	c0,10.448,8.48,18.924,18.936,18.924h183.639c10.438,0,18.922-8.476,18.922-18.924v-24.221c0-10.449-8.484-18.925-18.922-18.925
	H273.55v-33.578h105.104c27.482,0,49.774-22.272,49.774-49.757V121.295c0-10.512-3.32-20.243-8.875-28.278l41.926-45.25
	C466.332,42.523,469.038,35.658,469.038,28.472z M228.211,239.467c-4.292-4.266-11.218-4.276-15.473,0
	c-2.863,2.848-3.641,6.862-2.672,10.496l-17.414,17.433l10.891-42.409c0.215-0.793,0.858-1.4,1.65-1.545l22.115-4.175
	c0.695-0.114,1.372,0.095,1.891,0.573l18.616,18.64c0.391,0.405,0.65,0.939,0.65,1.498l-4.23,22.508
	c-0.175,0.793-0.757,1.447-1.566,1.65l-42.426,10.894l17.431-17.424c3.662,0.971,7.675,0.202,10.537-2.664
	C232.474,250.674,232.474,243.731,228.211,239.467z M440.597,24.654c1.002,0,1.958,0.404,2.69,1.125
	c1.34,1.36,1.422,3.853,0.107,5.244L267.87,220.48l-19.295-19.278l189.434-175.53C438.717,25.008,439.64,24.654,440.597,24.654z
	 M354.189,376.599c-8.556,0-15.503-6.953-15.503-15.524c0-8.561,6.947-15.515,15.503-15.515c8.585,0,15.528,6.953,15.528,15.515
	C369.717,369.647,362.774,376.599,354.189,376.599z M385.239,308.3c0,10.448-8.482,18.921-18.921,18.921H89.573
	c-10.453,0-18.937-8.473-18.937-18.921V130.303c0-10.449,8.484-18.922,18.937-18.922h219.703l-86.811,80.456
	c-2.446,2.241-3.886,5.456-3.962,8.78c-0.018,1.304,0.337,2.525,0.708,3.739l-16.996,3.198c-6.94,1.312-12.578,6.571-14.323,13.41
	l-15.429,59.949c-0.16,0.664-0.372,2.233-0.372,2.92c0,3.101,1.265,6.136,3.45,8.305c2.927,2.92,7.219,4.097,11.202,3.059
	l59.939-15.419c6.867-1.754,12.092-7.355,13.437-14.301l3.041-16.08c1.569,0.711,3.238,1.148,5.017,1.148
	c3.594-0.047,6.797-1.488,9.066-3.948l107.949-116.503c0,0.08,0.048,0.136,0.048,0.21V308.3z"/>
<g>
</g>
<g>
</g>
<g>
</g>
<g>
</g>
<g>
</g>
<g>
</g>
<g>
</g>
<g>
</g>
<g>
</g>
<g>
</g>
<g>
</g>
<g>
</g>
<g>
</g>
<g>
</g>
<g>
</g>
</svg>
