<?xml version="1.0" encoding="iso-8859-1"?>
<!-- Generator: Adobe Illustrator 18.0.0, SVG Export Plug-In . SVG Version: 6.00 Build 0)  -->
<!DOCTYPE svg PUBLIC "-//W3C//DTD SVG 1.1//EN" "http://www.w3.org/Graphics/SVG/1.1/DTD/svg11.dtd">
<svg version="1.1" id="Capa_1" xmlns="http://www.w3.org/2000/svg" xmlns:xlink="http://www.w3.org/1999/xlink" x="0px" y="0px"
	 viewBox="0 0 487.125 487.125" style="enable-background:new 0 0 487.125 487.125;" xml:space="preserve">
<g>
	<path d="M198.002,142.593c0-19.418,12.188-35.88,29.306-42.445V0C143.035,7.691,75.877,74.453,67.638,158.556h130.363V142.593z"/>
	<path d="M289.131,191.071v18.6c0,25.165-20.404,45.565-45.568,45.565c-25.164,0-45.561-20.4-45.561-45.565v-18.6H66.764v119.256
		c0,97.64,79.159,176.799,176.798,176.799c97.641,0,176.799-79.159,176.799-176.799V191.071H289.131z"/>
	<path d="M289.131,142.593v15.963h130.357C411.248,74.453,344.095,7.691,259.822,0v100.147
		C276.934,106.713,289.131,123.175,289.131,142.593z"/>
</g>
<g>
</g>
<g>
</g>
<g>
</g>
<g>
</g>
<g>
</g>
<g>
</g>
<g>
</g>
<g>
</g>
<g>
</g>
<g>
</g>
<g>
</g>
<g>
</g>
<g>
</g>
<g>
</g>
<g>
</g>
</svg>
