<?xml version="1.0" encoding="iso-8859-1"?>
<!-- Generator: Adobe Illustrator 18.0.0, SVG Export Plug-In . SVG Version: 6.00 Build 0)  -->
<!DOCTYPE svg PUBLIC "-//W3C//DTD SVG 1.1//EN" "http://www.w3.org/Graphics/SVG/1.1/DTD/svg11.dtd">
<svg version="1.1" id="Capa_1" xmlns="http://www.w3.org/2000/svg" xmlns:xlink="http://www.w3.org/1999/xlink" x="0px" y="0px"
	 viewBox="0 0 494.822 494.822" style="enable-background:new 0 0 494.822 494.822;" xml:space="preserve">
<path d="M494.47,482.137l-48.245-164.068c-0.962-3.418-3.956-5.913-7.505-6.289c-3.524-0.4-6.929,1.4-8.692,4.505l-23.458,42.566
	l-85.611-85.587l-0.016-117.985l46.679,13.497c3.407,0.994,7.118-0.168,9.331-2.943c2.256-2.784,2.592-6.642,0.879-9.729
	L295.88,5.963c-1.549-2.865-4.574-4.618-7.729-4.57c-3.248-0.031-6.192,1.737-7.742,4.555l-81.902,150.14
	c-1.725,3.103-1.393,6.977,0.851,9.745c2.206,2.774,5.888,3.921,9.329,2.959l46.709-13.513l0.021,100.044l-101.521,0.025
	l13.49-46.693c0.992-3.409-0.175-7.131-2.925-9.329c-2.801-2.258-6.66-2.594-9.73-0.882L4.581,280.392
	c-2.882,1.56-4.625,4.575-4.58,7.737c-0.012,3.24,1.747,6.192,4.58,7.736l150.117,81.9c3.087,1.735,6.974,1.385,9.762-0.857
	c2.75-2.202,3.904-5.882,2.955-9.322l-13.521-46.693l121.955-0.031l84.381,84.345l-42.555,23.477
	c-3.118,1.702-4.93,5.151-4.528,8.673c0.367,3.568,2.867,6.529,6.26,7.505l164.101,48.205c3.138,0.931,6.515,0.034,8.706-2.23
	C494.532,488.57,495.364,485.227,494.47,482.137z"/>
<g>
</g>
<g>
</g>
<g>
</g>
<g>
</g>
<g>
</g>
<g>
</g>
<g>
</g>
<g>
</g>
<g>
</g>
<g>
</g>
<g>
</g>
<g>
</g>
<g>
</g>
<g>
</g>
<g>
</g>
</svg>
