<?xml version="1.0" encoding="iso-8859-1"?>
<!-- Generator: Adobe Illustrator 18.0.0, SVG Export Plug-In . SVG Version: 6.00 Build 0)  -->
<!DOCTYPE svg PUBLIC "-//W3C//DTD SVG 1.1//EN" "http://www.w3.org/Graphics/SVG/1.1/DTD/svg11.dtd">
<svg version="1.1" id="Capa_1" xmlns="http://www.w3.org/2000/svg" xmlns:xlink="http://www.w3.org/1999/xlink" x="0px" y="0px"
	 viewBox="0 0 478.404 478.404" style="enable-background:new 0 0 478.404 478.404;" xml:space="preserve">
<g>
	<polygon points="328.904,247.132 305.741,270.293 328.904,293.455 	"/>
	<polygon points="149.5,293.45 172.663,270.293 149.5,247.137 	"/>
	<path d="M149.5,426.532v22.461c0,16.242,40.174,29.411,89.703,29.411c49.528,0,89.702-13.168,89.702-29.411V426.54l-89.702-89.699
		L149.5,426.532z"/>
	<polygon points="239.202,203.756 303.163,139.796 281.842,117.578 196.548,117.578 175.241,139.805 	"/>
	<path d="M271.55,73.439c-5.095-0.265-9.186-6.225-9.186-13.635c0-7.413,4.091-13.371,9.186-13.636V28.736
		c0-2.389-1.236-4.615-3.252-5.886c-2.03-1.275-4.573-1.399-6.732-0.359l-50.805,24.631c-2.377,1.163-3.908,3.59-3.908,6.248v43.686
		h64.697V73.439z"/>
	<path d="M305.866,67.643h71.081c8.4-5.364,18.117-7.683,27.722-7.184c0.018-0.227,0.125-0.432,0.125-0.656
		c0-4.334-3.511-7.841-7.838-7.841h-91.089c-4.328,0-7.843,3.507-7.843,7.841C298.024,64.136,301.539,67.643,305.866,67.643z"/>
	<path d="M305.866,36.273c0.856,0,1.7-0.134,2.542-0.432l59.728-20.583c4.095-1.409,6.281-5.875,4.875-9.974
		c-1.423-4.093-5.907-6.272-9.984-4.85L303.301,21.02c-4.073,1.407-6.263,5.873-4.854,9.972
		C299.571,34.234,302.601,36.273,305.866,36.273z"/>
	<path d="M298.291,89.183c-1.111,4.184,1.387,8.479,5.59,9.573l31.925,8.387l12.839-12.84l-40.798-10.713
		C303.644,82.482,299.384,84.996,298.291,89.183z"/>
	<path d="M272.469,270.293l146.368-146.382c9.199-9.176,9.199-24.084,0-33.269c-9.185-9.191-24.068-9.191-33.267,0L239.202,237.025
		L92.834,90.651c-9.199-9.192-24.082-9.192-33.268,0c-9.199,9.184-9.199,24.092,0,33.27l146.369,146.372L59.566,416.668
		c-9.199,9.175-9.199,24.085,0,33.267c4.591,4.595,10.604,6.889,16.618,6.889c6.032,0,12.045-2.294,16.649-6.889l146.369-146.366
		L385.57,449.945c4.591,4.59,10.618,6.889,16.649,6.889c6.014,0,12.023-2.298,16.618-6.889c9.199-9.186,9.199-24.092,0-33.27
		L272.469,270.293z"/>
</g>
<g>
</g>
<g>
</g>
<g>
</g>
<g>
</g>
<g>
</g>
<g>
</g>
<g>
</g>
<g>
</g>
<g>
</g>
<g>
</g>
<g>
</g>
<g>
</g>
<g>
</g>
<g>
</g>
<g>
</g>
</svg>
