<?xml version="1.0" encoding="iso-8859-1"?>
<!-- Generator: Adobe Illustrator 18.0.0, SVG Export Plug-In . SVG Version: 6.00 Build 0)  -->
<!DOCTYPE svg PUBLIC "-//W3C//DTD SVG 1.1//EN" "http://www.w3.org/Graphics/SVG/1.1/DTD/svg11.dtd">
<svg version="1.1" id="Capa_1" xmlns="http://www.w3.org/2000/svg" xmlns:xlink="http://www.w3.org/1999/xlink" x="0px" y="0px"
	 viewBox="0 0 454.801 454.801" style="enable-background:new 0 0 454.801 454.801;" xml:space="preserve">
<path d="M398.397,394.801l-21.037-122.298c-2.082-12.16-12.631-21.041-24.961-21.041h-57.256l-15.027-68.054
	c-5.281-23.939-1.188-48.68,11.506-69.64c7.07-11.664,10.801-25.06,10.801-38.747C302.422,33.655,268.775,0,227.4,0
	c-41.377,0-75.021,33.655-75.021,75.021c0,13.688,3.73,27.083,10.799,38.741c12.693,20.949,16.773,45.684,11.492,69.629
	l-15.027,68.07h-54.066c-12.336,0-22.885,8.881-24.965,21.041L59.576,394.801H56.4c-16.569,0-30,13.431-30,30s13.431,30,30,30h342
	c16.569,0,30-13.431,30-30s-13.431-30-30-30H398.397z M227.4,33.813c22.719,0,41.211,18.484,41.211,41.208
	c0,7.512-2.047,14.841-5.914,21.223c-17.217,28.439-22.768,61.98-15.6,94.445l13.414,60.772h-66.236l13.414-60.79
	c7.162-32.464,1.617-66.005-15.586-94.436c-3.861-6.374-5.914-13.703-5.914-21.215C186.189,52.297,204.684,33.813,227.4,33.813z"/>
<g>
</g>
<g>
</g>
<g>
</g>
<g>
</g>
<g>
</g>
<g>
</g>
<g>
</g>
<g>
</g>
<g>
</g>
<g>
</g>
<g>
</g>
<g>
</g>
<g>
</g>
<g>
</g>
<g>
</g>
</svg>
