<?xml version="1.0" encoding="iso-8859-1"?>
<!-- Generator: Adobe Illustrator 18.0.0, SVG Export Plug-In . SVG Version: 6.00 Build 0)  -->
<!DOCTYPE svg PUBLIC "-//W3C//DTD SVG 1.1//EN" "http://www.w3.org/Graphics/SVG/1.1/DTD/svg11.dtd">
<svg version="1.1" id="Capa_1" xmlns="http://www.w3.org/2000/svg" xmlns:xlink="http://www.w3.org/1999/xlink" x="0px" y="0px"
	 viewBox="0 0 494.851 494.851" style="enable-background:new 0 0 494.851 494.851;" xml:space="preserve">
<path d="M458.473,380.856c-72.242-16.573-118.543-17.807-91.387-46.207c13.953-14.573-22.223-15.46-66.717-4.217v-159.38
	c2.012,1.025,4.094,1.605,6.256,1.605c3.564,0,10.24-1.548,14.74-11.887c7.436-17.103,6.934-52.343-5.598-77.212
	c0.697-2.759,1.115-5.59,1.115-8.541c0-43.369-77.367-66.062-153.801-66.062c-76.43,0-153.797,22.692-153.797,66.062
	c0,1.622,0.322,3.16,0.533,4.733c-10.098,25.952-11.936,67.642-7.66,82.36c2.947,10.144,9.047,11.659,12.4,11.659
	c4.516,0,8.131-2.605,11.24-6.491v173.659l0.139,33.306c2.855,26.449,63.152,47.593,137.145,47.593
	c73.996,0,134.833-21.145,137.688-47.593l-0.401-33.306c10.336,8.831,16.514,19.258,16.514,31.355
	c0,28.536-33.52,48.076-78.204,58.121c-12.525,2.816-24.748,7.62-35.806,14.141l0,0c-48.162,28.393-4.338,34.571,60.172,23.45
	c64.529-11.113,134.914-34.563,107.754-2.46c-27.16,32.104,45.707,20.983,76.559,2.46
	C478.227,449.488,530.723,397.419,458.473,380.856z M163.082,41.987c78.451,0,120.768,23.441,120.768,33.03
	c0,9.588-42.316,33.029-120.768,33.029c-78.447,0-120.768-23.441-120.768-33.029C42.315,65.428,84.635,41.987,163.082,41.987z
	 M285.932,143.152c-14.935,0-23.145,16.409-34.48,39.117l-0.793,1.566c-4.018,8.022-18.578,34.19-37.803,34.19
	c-10.451,0-21.484-7.765-32.803-23.086c-11.613-15.711-21.178-22.717-31.031-22.717c-14.998,0-23.645,15.644-34.596,35.441
	c-7.678,13.864-16.371,29.579-28.74,43.546c-4.855,5.468-8.436,7.419-10.162,7.419c-11.853,0-19.049-61.876-21.402-82.205
	c-1.305-11.185-2.432-20.903-3.709-27.306c-0.889-4.523-3.598-18.281-14.676-18.281c-8.969,0-14.824,10.395-17.469,16.476
	c-0.58,1.322-1.143,2.476-1.645,3.492c-1.174-11.83,0.34-32.497,3.889-49.512c24.045,26.175,83.514,39.787,142.57,39.787
	c58.9,0,118.205-13.532,142.381-39.562c3.502,11.427,4.631,24.021,4.178,34.006c-0.451,9.741-2.16,15.974-3.584,19.063
	C299.285,146.892,292.69,143.152,285.932,143.152z"/>
<g>
</g>
<g>
</g>
<g>
</g>
<g>
</g>
<g>
</g>
<g>
</g>
<g>
</g>
<g>
</g>
<g>
</g>
<g>
</g>
<g>
</g>
<g>
</g>
<g>
</g>
<g>
</g>
<g>
</g>
</svg>
