<?xml version="1.0" encoding="iso-8859-1"?>
<!-- Generator: Adobe Illustrator 18.0.0, SVG Export Plug-In . SVG Version: 6.00 Build 0)  -->
<!DOCTYPE svg PUBLIC "-//W3C//DTD SVG 1.1//EN" "http://www.w3.org/Graphics/SVG/1.1/DTD/svg11.dtd">
<svg version="1.1" id="Capa_1" xmlns="http://www.w3.org/2000/svg" xmlns:xlink="http://www.w3.org/1999/xlink" x="0px" y="0px"
	 viewBox="0 0 487.285 487.285" style="enable-background:new 0 0 487.285 487.285;" xml:space="preserve">
<path d="M453.546,50.168H33.739C15.106,50.168,0,65.273,0,83.907v133.527c0,18.633,15.106,33.739,33.739,33.739h29.775
	c16.663,0,32.413,7.609,42.771,20.661c10.359,13.051,14.186,30.119,10.414,46.349c-5.892,25.35-9.313,48.924-9.313,60.587
	c0,32.224,26.11,58.348,58.341,58.348c32.236,0,58.341-26.124,58.341-58.348c0-11.735-3.463-35.531-9.422-61.06
	c-3.758-16.101,0.047-33.032,10.319-45.987c10.272-12.955,25.905-20.549,42.438-20.549h0.588c10.198,0,19.848,4.613,26.253,12.547
	c6.406,7.935,8.875,18.34,6.733,28.311c-2.843,13.235-4.465,25.086-4.465,31.309c0,19.382,15.716,35.103,35.103,35.103
	c19.382,0,35.104-15.722,35.104-35.103c0-6.226-1.625-18.087-4.472-31.33c-2.143-9.971,0.339-20.375,6.751-28.306
	c6.412-7.931,16.068-12.531,26.267-12.531h58.28c18.633,0,33.739-15.105,33.739-33.739V83.907
	C487.285,65.273,472.18,50.168,453.546,50.168z M166.986,412.199c-1.115,3.517-4.372,5.758-7.873,5.758
	c-0.82,0-1.658-0.122-2.501-0.387c-17.257-5.475-30.224-19.871-33.9-37.572c-0.677-3.331-1.032-6.756-1.032-10.176
	c0-4.565,3.708-8.257,8.259-8.257c4.579,0,8.255,3.692,8.255,8.257c0,2.306,0.244,4.604,0.709,6.846
	c2.451,11.848,11.148,21.492,22.71,25.162C165.968,403.207,168.354,407.853,166.986,412.199z M218.368,94.401H41.524
	c-4.565,0-8.259-3.692-8.259-8.257c0-4.563,3.694-8.258,8.259-8.258h176.844c4.565,0,8.26,3.695,8.26,8.258
	C226.628,90.709,222.933,94.401,218.368,94.401z M338.993,340.695c-0.838,2.637-3.275,4.323-5.906,4.323
	c-0.613,0-1.257-0.09-1.87-0.29c-10.807-3.428-18.933-12.436-21.223-23.524c-0.419-2.112-0.645-4.25-0.645-6.371
	c0-3.418,2.773-6.193,6.191-6.193c3.418,0,6.191,2.775,6.191,6.193c0,1.283,0.129,2.589,0.387,3.879
	c1.391,6.687,6.325,12.136,12.839,14.209C338.219,333.953,340.024,337.438,338.993,340.695z"/>
<g>
</g>
<g>
</g>
<g>
</g>
<g>
</g>
<g>
</g>
<g>
</g>
<g>
</g>
<g>
</g>
<g>
</g>
<g>
</g>
<g>
</g>
<g>
</g>
<g>
</g>
<g>
</g>
<g>
</g>
</svg>
