<?xml version="1.0" encoding="iso-8859-1"?>
<!-- Generator: Adobe Illustrator 18.0.0, SVG Export Plug-In . SVG Version: 6.00 Build 0)  -->
<!DOCTYPE svg PUBLIC "-//W3C//DTD SVG 1.1//EN" "http://www.w3.org/Graphics/SVG/1.1/DTD/svg11.dtd">
<svg version="1.1" id="Capa_1" xmlns="http://www.w3.org/2000/svg" xmlns:xlink="http://www.w3.org/1999/xlink" x="0px" y="0px"
	 viewBox="0 0 488.721 488.721" style="enable-background:new 0 0 488.721 488.721;" xml:space="preserve">
<g>
	<path d="M435.623,394.877c-1.749-3.224-5.104-5.241-8.772-5.241c-3.659,0-7.022,2.009-8.767,5.232
		c-9.954,18.402-24.804,47.95-24.804,60.287c0,18.54,15.025,33.565,33.57,33.565c18.549,0,33.574-15.025,33.574-33.565
		C460.425,442.818,445.574,413.28,435.623,394.877z"/>
	<path d="M396.497,359.408c1.425,0.978,3.039,1.441,4.64,1.441c2.595,0,5.17-1.242,6.754-3.553l2.754-4.009
		c6.543,4.2,15.249,2.544,19.695-3.905l20.838-30.317c2.173-3.159,3.007-7.049,2.3-10.826c-0.669-3.616-2.749-6.782-5.713-8.963
		l2.756-4.006c2.557-3.728,1.613-8.831-2.11-11.391c-3.732-2.546-8.818-1.617-11.398,2.111l-2.698,3.937l-10.148-6.961l2.705-3.936
		c2.556-3.73,1.612-8.837-2.111-11.395c-3.729-2.569-8.818-1.625-11.397,2.113l-2.701,3.936l-5.297-3.641
		c11.248-25.546,12.671-47.808,1.68-55.369l0.175-0.254L191.447,36.773c1.518-3.895,0.943-8.361-1.856-11.641L171.457,4.009
		c-2.318-2.712-5.774-4.184-9.343-3.992c-3.567,0.192-6.848,2.024-8.88,4.97l-0.144,0.214L30.463,183.658l-0.146,0.215
		c-2.03,2.943-2.554,6.663-1.468,10.067c1.107,3.401,3.73,6.096,7.088,7.295l26.228,9.337c4.065,1.446,8.45,0.376,11.54-2.442
		l243.184,137.733l0.174-0.257l0,0c11.012,7.562,31.27-1.753,51.095-21.411l5.3,3.641l-2.708,3.94
		c-2.56,3.726-1.616,8.83,2.114,11.391c1.424,0.977,3.038,1.44,4.637,1.44c2.609,0,5.174-1.239,6.754-3.551l2.707-3.937
		l10.129,6.961l-2.705,3.936C391.824,351.742,392.766,356.848,396.497,359.408z"/>
</g>
<g>
</g>
<g>
</g>
<g>
</g>
<g>
</g>
<g>
</g>
<g>
</g>
<g>
</g>
<g>
</g>
<g>
</g>
<g>
</g>
<g>
</g>
<g>
</g>
<g>
</g>
<g>
</g>
<g>
</g>
</svg>
