<?xml version="1.0" encoding="iso-8859-1"?>
<!-- Generator: Adobe Illustrator 18.0.0, SVG Export Plug-In . SVG Version: 6.00 Build 0)  -->
<!DOCTYPE svg PUBLIC "-//W3C//DTD SVG 1.1//EN" "http://www.w3.org/Graphics/SVG/1.1/DTD/svg11.dtd">
<svg version="1.1" id="Capa_1" xmlns="http://www.w3.org/2000/svg" xmlns:xlink="http://www.w3.org/1999/xlink" x="0px" y="0px"
	 viewBox="0 0 496.173 496.173" style="enable-background:new 0 0 496.173 496.173;" xml:space="preserve">
<path d="M380.399,55.521h-4.555C372.517,23.726,359.887,0,344.738,0h-237.79l0.008,0.001C89.269,0.039,74.943,32.286,74.943,72.06
	c0,39.719,14.282,71.927,31.931,72.064l237.864,0.003c15.149,0,27.778-23.734,31.105-55.53h4.555c4.264,0,7.751,3.481,7.751,7.754
	v76.201c0,4.273-3.488,7.754-7.751,7.754H226.375c-9.139,0-16.537,7.405-16.537,16.538v103.283h-3.872
	c-7.367,0-13.54,5.563-14.281,12.888L178.326,442.93c-1.404,13.598,3.023,27.149,12.195,37.301
	c9.157,10.151,22.192,15.943,35.854,15.943c13.669,0,26.716-5.792,35.861-15.943c9.172-10.152,13.598-23.703,12.191-37.301
	l-13.355-129.914c-0.745-7.326-6.913-12.888-14.281-12.888h-3.872v-86.743h137.479c22.517,0,40.831-18.316,40.831-40.832V96.352
	C421.23,73.836,402.915,55.521,380.399,55.521z"/>
<g>
</g>
<g>
</g>
<g>
</g>
<g>
</g>
<g>
</g>
<g>
</g>
<g>
</g>
<g>
</g>
<g>
</g>
<g>
</g>
<g>
</g>
<g>
</g>
<g>
</g>
<g>
</g>
<g>
</g>
</svg>
