<?xml version="1.0" encoding="iso-8859-1"?>
<!-- Generator: Adobe Illustrator 18.0.0, SVG Export Plug-In . SVG Version: 6.00 Build 0)  -->
<!DOCTYPE svg PUBLIC "-//W3C//DTD SVG 1.1//EN" "http://www.w3.org/Graphics/SVG/1.1/DTD/svg11.dtd">
<svg version="1.1" id="Capa_1" xmlns="http://www.w3.org/2000/svg" xmlns:xlink="http://www.w3.org/1999/xlink" x="0px" y="0px"
	 viewBox="0 0 495.988 495.988" style="enable-background:new 0 0 495.988 495.988;" xml:space="preserve">
<g>
	<path d="M436.479,286.646c-3.575-0.011-6.857,1.962-8.565,5.118c-9.719,17.955-24.224,46.804-24.224,58.847
		c0,18.106,14.682,32.776,32.789,32.776c18.091,0,32.772-14.67,32.772-32.776c0-12.043-14.487-40.886-24.211-58.847
		C443.337,288.613,440.068,286.646,436.479,286.646z"/>
	<path d="M457.661,6.62c-1.772-1.761-6.559-7.686-13.873-6.452c-3.207,0.54-9.297,3.228-11.978,5.069
		c-6.343,4.357-5.118,12.072-4.924,17.835c0.434,13.375-0.564,26.044-17.628,34.155c-4.407,2.12-12.231,1.456-20.02,0.604
		c-5.312-0.589-10.736-1.141-16.21-1.141c-12.489,0-23.211,2.954-32.82,9.029c-16.644,10.527-26.896,26.163-28.894,44.048
		c-1.32,11.796,1.207,23.957,7.002,35.772l-5.311-5.311c-2.315-2.318-5.809-3.76-8.706-3.527c-3.268,0.064-6.374,1.457-8.598,3.849
		L22.264,435.677c-13.166,14.197-12.746,36.078,0.968,49.784c6.789,6.792,15.803,10.527,25.413,10.527
		c9.063,0,17.737-3.398,24.417-9.561L368.166,212.98c2.381-2.224,3.769-5.313,3.832-8.582c0.064-3.247-1.207-6.403-3.507-8.708
		l-8.968-8.956c8.742,3.76,18.221,5.812,28.025,5.812c15.111,0,30.163-4.771,43.52-13.271c-2.992,7.099-5.148,13.559-5.148,17.536
		c0,13.602,11.043,24.643,24.659,24.643c13.619,0,24.658-11.041,24.658-24.643c0-8.651-9.932-28.74-17.191-42.315
		c18.66-23.534,24.242-48.949,25.146-67.911C484.638,55.487,474.386,23.352,457.661,6.62z M56.74,468.817
		c-4.569,4.226-12.168,4.048-16.543-0.321c-4.539-4.556-4.701-11.799-0.321-16.506l236.064-254.794l35.556,35.566L56.74,468.817z
		 M360.069,149.213c-12.168-12.149-18.185-24.914-16.946-35.899c1.125-10.294,8.335-16.861,14.193-20.564
		c4.507-2.85,9.208-4.073,15.712-4.073c4.299,0,8.561,0.491,12.747,0.951c4.394,0.491,8.66,0.691,12.815,0.751
		c3.25,3.644,5.921,9.873,4.986,21.066c-1.333,16.186,9.434,28.307,24.033,29.514c-2.382,2.471-4.909,4.909-7.775,7.274
		C401.194,163.67,375.379,164.537,360.069,149.213z"/>
</g>
<g>
</g>
<g>
</g>
<g>
</g>
<g>
</g>
<g>
</g>
<g>
</g>
<g>
</g>
<g>
</g>
<g>
</g>
<g>
</g>
<g>
</g>
<g>
</g>
<g>
</g>
<g>
</g>
<g>
</g>
</svg>
