<?xml version="1.0" encoding="iso-8859-1"?>
<!-- Generator: Adobe Illustrator 18.0.0, SVG Export Plug-In . SVG Version: 6.00 Build 0)  -->
<!DOCTYPE svg PUBLIC "-//W3C//DTD SVG 1.1//EN" "http://www.w3.org/Graphics/SVG/1.1/DTD/svg11.dtd">
<svg version="1.1" id="Capa_1" xmlns="http://www.w3.org/2000/svg" xmlns:xlink="http://www.w3.org/1999/xlink" x="0px" y="0px"
	 viewBox="0 0 496.007 496.007" style="enable-background:new 0 0 496.007 496.007;" xml:space="preserve">
<g>
	<path d="M485.372,9.877C472.561-2.89,450.38-3.368,437.1,8.955L162.412,263.472c-2.503,2.321-3.962,5.557-4.025,8.971
		c-0.063,3.404,1.264,6.697,3.689,9.107l51.638,51.634c2.345,2.353,5.534,3.671,8.864,3.671c0.081,0,0.163,0,0.227,0
		c3.43-0.064,6.664-1.513,8.981-4.012L486.294,58.142C499.079,44.382,498.67,23.182,485.372,9.877z M467.904,41.081L248.206,278.202
		l-31.157-31.157L454.151,27.363c3.721-3.429,9.918-3.291,13.475,0.259C471.333,31.337,471.461,37.241,467.904,41.081z"/>
	<path d="M143.213,294.525c-2.526-2.523-6.292-3.316-9.626-2.021c0,0-128.229,49.778-131.293,50.917
		c-6.04,2.245,2.824,20.904,18.743,41.861l47.69-28.981c0.454-0.274,1.036-0.163,1.362,0.259c0.336,0.42,0.291,1.018-0.1,1.39
		l-40.089,38.438c9.45,11.463,20.549,23.815,33.165,36.44c1.422,1.432,2.83,2.701,4.256,4.102l70.066-58.961
		c0.418-0.332,1.004-0.316,1.39,0.032c0.387,0.356,0.454,0.932,0.145,1.367l-52.288,75.6c32.147,28.569,62.121,46.787,65.604,39.385
		c0.011-0.024,51.151-132.044,51.151-132.044c1.295-3.332,0.519-7.101-2.022-9.634L143.213,294.525z"/>
</g>
<g>
</g>
<g>
</g>
<g>
</g>
<g>
</g>
<g>
</g>
<g>
</g>
<g>
</g>
<g>
</g>
<g>
</g>
<g>
</g>
<g>
</g>
<g>
</g>
<g>
</g>
<g>
</g>
<g>
</g>
</svg>
