<?xml version="1.0" encoding="iso-8859-1"?>
<!-- Generator: Adobe Illustrator 18.0.0, SVG Export Plug-In . SVG Version: 6.00 Build 0)  -->
<!DOCTYPE svg PUBLIC "-//W3C//DTD SVG 1.1//EN" "http://www.w3.org/Graphics/SVG/1.1/DTD/svg11.dtd">
<svg version="1.1" id="Capa_1" xmlns="http://www.w3.org/2000/svg" xmlns:xlink="http://www.w3.org/1999/xlink" x="0px" y="0px"
	 viewBox="0 0 498.153 498.153" style="enable-background:new 0 0 498.153 498.153;" xml:space="preserve">
<path d="M485.641,220.823c-6.514-40.377-81.265-48.192-105.943-80.81c-25.659-33.941,17.629-107.035-14.019-135.46
	c-29.091-26.129-96.96,68.157-134.007,80.72c-22.531,7.644-93.091-29.111-116.221-34.723
	C19.119,27.156-22.166,113.863,45.653,233.598c12.626,22.296,40.174,67.729,47.785,92.211
	c13.438,43.169-77.963,126.945-48.738,161.434c35.19,41.522,141.622-48.673,195.989-51.336
	c41.064-2.016,101.157,67.399,139.01,51.336c36.917-15.66,12.774-111.736,23.401-150.427
	C413.004,300.689,491.593,257.806,485.641,220.823z M113.002,98.186c-0.369-0.041-0.691,0.023-1.064-0.009
	c-21.628-1.896-37.705,4.411-45.27,17.991c-11.277,20.225-3.017,53.151,21.158,87.003c1.373,1.928,2.598,3.847,4.063,5.774
	c2.773,3.621,2.096,8.806-1.516,11.579c-1.516,1.145-3.275,1.702-5.03,1.702c-2.483,0-4.934-1.113-6.551-3.234
	c-32.03-41.787-41.962-83.227-26.562-110.865C63.167,88.5,85.873,78.921,114.647,81.749c4.533,0.452,7.854,4.501,7.402,9.041
	C121.584,95.33,117.632,98.67,113.002,98.186z"/>
<g>
</g>
<g>
</g>
<g>
</g>
<g>
</g>
<g>
</g>
<g>
</g>
<g>
</g>
<g>
</g>
<g>
</g>
<g>
</g>
<g>
</g>
<g>
</g>
<g>
</g>
<g>
</g>
<g>
</g>
</svg>
