<?xml version="1.0" encoding="iso-8859-1"?>
<!-- Generator: Adobe Illustrator 18.0.0, SVG Export Plug-In . SVG Version: 6.00 Build 0)  -->
<!DOCTYPE svg PUBLIC "-//W3C//DTD SVG 1.1//EN" "http://www.w3.org/Graphics/SVG/1.1/DTD/svg11.dtd">
<svg version="1.1" id="Capa_1" xmlns="http://www.w3.org/2000/svg" xmlns:xlink="http://www.w3.org/1999/xlink" x="0px" y="0px"
	 viewBox="0 0 493.607 493.607" style="enable-background:new 0 0 493.607 493.607;" xml:space="preserve">
<path d="M481.173,183.602c-7.911-7.901-18.841-12.434-30.005-12.434l-241.027,0.009v-14.563c19.507-9.367,33.08-29.135,33.08-52.226
	V60.404c0-7.787-6.329-14.108-14.106-14.108H141.16c-7.792,0-14.108,6.322-14.108,14.108v43.984
	c0,23.091,13.573,42.87,33.099,52.235v14.554h-48.133c-1.773,0-3.532,0.382-5.141,1.115L43.12,201.128H12.494
	C5.598,201.128,0,206.726,0,213.624c0,6.899,5.598,12.498,12.494,12.498H43.12l63.721,28.851c1.626,0.731,3.385,1.113,5.159,1.113
	h142.106v25.865c0,9.229,5.044,17.201,12.498,21.53v7.289c0,19.015-15.474,34.482-34.498,34.482
	c-32.788,0-59.456,26.678-59.456,59.476v30.087c0,6.901,5.598,12.498,12.493,12.498c6.9,0,12.499-5.597,12.499-12.498v-30.087
	c0-19.016,15.459-34.481,34.465-34.481c32.806,0,59.494-26.678,59.494-59.476v-7.289c7.436-4.33,12.494-12.302,12.494-21.53v-25.855
	H451.15c11.342,0,21.984-4.41,30.023-12.442c8.024-8.021,12.434-18.678,12.434-30.054
	C493.607,202.437,489.083,191.501,481.173,183.602z M463.501,225.982c-3.254,3.256-7.746,5.118-12.352,5.118l-336.449-0.009
	l-38.583-17.458l38.602-17.461l336.448-0.007c4.588,0,9.08,1.862,12.334,5.11c3.254,3.247,5.109,7.736,5.109,12.365
	C468.611,218.237,466.755,222.736,463.501,225.982z"/>
<g>
</g>
<g>
</g>
<g>
</g>
<g>
</g>
<g>
</g>
<g>
</g>
<g>
</g>
<g>
</g>
<g>
</g>
<g>
</g>
<g>
</g>
<g>
</g>
<g>
</g>
<g>
</g>
<g>
</g>
</svg>
