<?xml version="1.0" encoding="iso-8859-1"?>
<!-- Generator: Adobe Illustrator 18.0.0, SVG Export Plug-In . SVG Version: 6.00 Build 0)  -->
<!DOCTYPE svg PUBLIC "-//W3C//DTD SVG 1.1//EN" "http://www.w3.org/Graphics/SVG/1.1/DTD/svg11.dtd">
<svg version="1.1" id="Capa_1" xmlns="http://www.w3.org/2000/svg" xmlns:xlink="http://www.w3.org/1999/xlink" x="0px" y="0px"
	 viewBox="0 0 473.949 473.949" style="enable-background:new 0 0 473.949 473.949;" xml:space="preserve">
<g>
	<path d="M322.85,432.137c0,4.839-3.948,8.782-8.789,8.782H51.109c-4.837,0-8.79-3.943-8.79-8.782V41.813
		c0-4.839,3.953-8.783,8.79-8.783h181.538v47.441v0.007c0,23.049,18.758,41.805,41.805,41.805l0,0h48.397v53.587l33.034-54.361
		c0,0-0.212-16.006-0.212-16.814c0-1.471-0.207-6.04-4.694-10.669L260.775,4.772c-1.387-1.377-4.16-4.572-10.613-4.572
		C249.807,0.201,51.109,0,51.109,0C28.044,0,9.29,18.756,9.29,41.813v390.324c0,23.056,18.754,41.812,41.819,41.812h262.951
		c23.065,0,41.823-18.756,41.823-41.812V299.201l-33.034,54.351V432.137z"/>
	<path d="M243.874,386.358c-0.147,1.822,0.741,3.579,2.321,4.523c0.742,0.468,1.612,0.7,2.483,0.7c0.902,0,1.792-0.249,2.58-0.741
		l47.093-29.731c0.613-0.397,1.147-0.928,1.548-1.573l0.212-0.354l-50.627-30.766l-0.226,0.364
		c-0.387,0.628-0.645,1.347-0.677,2.089L243.874,386.358z"/>
	<path d="M464.439,58.311c-0.484-1.993-1.741-3.708-3.515-4.782l-14.226-8.654c-1.272-0.765-2.658-1.128-4.031-1.128
		c-2.63,0-5.192,1.322-6.648,3.718l-13.447,22.153l-4.196-2.541c-1.354-0.831-2.916-1.257-4.482-1.257
		c-0.677,0-1.373,0.081-2.05,0.242c-2.226,0.548-4.142,1.958-5.335,3.918L258.067,314.306l50.627,30.763l148.458-244.309
		c2.483-4.088,1.175-9.411-2.902-11.887l-4.178-2.531l13.465-22.153C464.601,62.425,464.923,60.326,464.439,58.311z
		 M428.683,106.453l-52.267,86.013c-1.553,2.557-4.275,3.966-7.067,3.966c-1.451,0-2.934-0.387-4.289-1.2
		c-3.888-2.372-5.132-7.451-2.76-11.346l52.271-86.013c2.372-3.895,7.454-5.136,11.355-2.766
		C429.816,97.479,431.055,102.558,428.683,106.453z"/>
</g>
<g>
</g>
<g>
</g>
<g>
</g>
<g>
</g>
<g>
</g>
<g>
</g>
<g>
</g>
<g>
</g>
<g>
</g>
<g>
</g>
<g>
</g>
<g>
</g>
<g>
</g>
<g>
</g>
<g>
</g>
</svg>
