<?xml version="1.0" encoding="iso-8859-1"?>
<!-- Generator: Adobe Illustrator 18.0.0, SVG Export Plug-In . SVG Version: 6.00 Build 0)  -->
<!DOCTYPE svg PUBLIC "-//W3C//DTD SVG 1.1//EN" "http://www.w3.org/Graphics/SVG/1.1/DTD/svg11.dtd">
<svg version="1.1" id="Capa_1" xmlns="http://www.w3.org/2000/svg" xmlns:xlink="http://www.w3.org/1999/xlink" x="0px" y="0px"
	 viewBox="0 0 476.41 476.41" style="enable-background:new 0 0 476.41 476.41;" xml:space="preserve">
<g>
	<path d="M158.334,234.285l-75.699-41.293c-1.566-0.877-3.535-0.705-4.916,0.434c-1.418,1.104-1.986,2.965-1.506,4.699l7.051,24.344
		l-67.521,0.016C7.041,222.484,0,229.539,0,238.221c0,8.695,7.057,15.734,15.742,15.734l67.521-0.014l-7.039,24.326
		c-0.504,1.721,0.076,3.596,1.494,4.701c1.398,1.137,3.35,1.309,4.896,0.447l75.719-41.326c1.447-0.781,2.322-2.303,2.305-3.9
		C160.639,236.559,159.752,235.068,158.334,234.285z"/>
	<path d="M197.094,25.764c-8.699,0-15.74,7.037-15.74,15.734v393.41c0,8.701,7.041,15.738,15.74,15.738
		c8.695,0,15.734-7.037,15.734-15.738V41.498C212.828,32.801,205.789,25.764,197.094,25.764z"/>
	<path d="M256.996,111.668h84.768c9.188,0,16.629-7.438,16.629-16.631V50.902c0-9.17-7.441-16.609-16.629-16.609h-84.768
		c-9.193,0-16.631,7.439-16.631,16.609v44.135C240.365,104.23,247.803,111.668,256.996,111.668z"/>
	<path d="M459.783,144.447H256.996c-9.193,0-16.631,7.436-16.631,16.613v44.135c0,9.188,7.438,16.627,16.631,16.627h202.787
		c9.193,0,16.627-7.439,16.627-16.627v-44.135C476.41,151.883,468.977,144.447,459.783,144.447z"/>
	<path d="M256.996,331.977h134.617c9.174,0,16.615-7.438,16.615-16.627v-44.137c0-9.176-7.441-16.613-16.615-16.613H256.996
		c-9.193,0-16.631,7.438-16.631,16.613v44.137C240.365,324.539,247.803,331.977,256.996,331.977z"/>
	<path d="M459.783,364.756H256.996c-9.193,0-16.631,7.438-16.631,16.613v44.137c0,9.186,7.438,16.625,16.631,16.625h202.787
		c9.193,0,16.627-7.439,16.627-16.625v-44.137C476.41,372.193,468.977,364.756,459.783,364.756z"/>
</g>
<g>
</g>
<g>
</g>
<g>
</g>
<g>
</g>
<g>
</g>
<g>
</g>
<g>
</g>
<g>
</g>
<g>
</g>
<g>
</g>
<g>
</g>
<g>
</g>
<g>
</g>
<g>
</g>
<g>
</g>
</svg>
