<?xml version="1.0" encoding="iso-8859-1"?>
<!-- Generator: Adobe Illustrator 18.0.0, SVG Export Plug-In . SVG Version: 6.00 Build 0)  -->
<!DOCTYPE svg PUBLIC "-//W3C//DTD SVG 1.1//EN" "http://www.w3.org/Graphics/SVG/1.1/DTD/svg11.dtd">
<svg version="1.1" id="Capa_1" xmlns="http://www.w3.org/2000/svg" xmlns:xlink="http://www.w3.org/1999/xlink" x="0px" y="0px"
	 viewBox="0 0 491.796 491.796" style="enable-background:new 0 0 491.796 491.796;" xml:space="preserve">
<g>
	<path d="M385.41,0H106.406C86.54,0,70.37,16.908,70.37,37.703v416.386c0,20.795,16.17,37.707,36.036,37.707H385.41
		c19.86,0,36.017-16.912,36.017-37.707V37.703C421.426,16.908,405.27,0,385.41,0z M388.566,454.089c0,2.775-1.665,4.845-3.156,4.845
		H106.406c-1.479,0-3.178-2.116-3.178-4.845V37.703c0-2.727,1.698-4.848,3.178-4.848H385.41c1.491,0,3.156,2.072,3.156,4.848
		V454.089z"/>
	<path d="M135.926,187.986h43.671c4.639,0,8.389-3.756,8.389-8.391v-43.691c0-4.635-3.75-8.389-8.389-8.389h-43.671
		c-4.637,0-8.396,3.754-8.396,8.389v43.691C127.531,184.23,131.29,187.986,135.926,187.986z"/>
	<path d="M253.43,187.986h43.669c4.641,0,8.396-3.756,8.396-8.391v-43.691c0-4.635-3.755-8.389-8.396-8.389H253.43
		c-4.635,0-8.395,3.754-8.395,8.389v43.691C245.036,184.23,248.795,187.986,253.43,187.986z"/>
	<path d="M186.286,238.364c0,4.638,3.756,8.392,8.393,8.392h43.673c4.635,0,8.389-3.754,8.389-8.392v-43.689
		c0-4.635-3.754-8.391-8.389-8.391h-43.673c-4.637,0-8.393,3.756-8.393,8.391V238.364z"/>
	<path d="M355.87,186.284h-43.688c-4.633,0-8.393,3.756-8.393,8.391v43.689c0,4.638,3.76,8.392,8.393,8.392h43.688
		c4.637,0,8.389-3.754,8.389-8.392v-43.689C364.258,190.04,360.506,186.284,355.87,186.284z"/>
	<path d="M187.986,253.43c0-4.64-3.75-8.389-8.389-8.389h-43.671c-4.637,0-8.396,3.749-8.396,8.389v43.685
		c0,4.638,3.759,8.394,8.396,8.394h43.671c4.639,0,8.389-3.756,8.389-8.394V253.43z"/>
	<path d="M305.495,253.43c0-4.64-3.755-8.389-8.396-8.389H253.43c-4.635,0-8.395,3.749-8.395,8.389v43.685
		c0,4.638,3.76,8.394,8.395,8.394h43.669c4.641,0,8.396-3.756,8.396-8.394V253.43z"/>
	<path d="M238.351,303.791h-43.673c-4.637,0-8.393,3.754-8.393,8.391v43.689c0,4.637,3.756,8.391,8.393,8.391h43.673
		c4.635,0,8.389-3.754,8.389-8.391v-43.689C246.74,307.545,242.986,303.791,238.351,303.791z"/>
	<path d="M355.87,303.791h-43.688c-4.633,0-8.393,3.754-8.393,8.391v43.689c0,4.637,3.76,8.391,8.393,8.391h43.688
		c4.637,0,8.389-3.754,8.389-8.391v-43.689C364.258,307.545,360.506,303.791,355.87,303.791z"/>
</g>
<g>
</g>
<g>
</g>
<g>
</g>
<g>
</g>
<g>
</g>
<g>
</g>
<g>
</g>
<g>
</g>
<g>
</g>
<g>
</g>
<g>
</g>
<g>
</g>
<g>
</g>
<g>
</g>
<g>
</g>
</svg>
