<?xml version="1.0" encoding="iso-8859-1"?>
<!-- Generator: Adobe Illustrator 18.0.0, SVG Export Plug-In . SVG Version: 6.00 Build 0)  -->
<!DOCTYPE svg PUBLIC "-//W3C//DTD SVG 1.1//EN" "http://www.w3.org/Graphics/SVG/1.1/DTD/svg11.dtd">
<svg version="1.1" id="Capa_1" xmlns="http://www.w3.org/2000/svg" xmlns:xlink="http://www.w3.org/1999/xlink" x="0px" y="0px"
	 viewBox="0 0 495.122 495.122" style="enable-background:new 0 0 495.122 495.122;" xml:space="preserve">
<g>
	<path d="M251.881,6.494c-4.064-8.672-18.278-8.648-22.324,0.01l-32.577,69.468c-0.771,1.639-1.154,3.432-1.154,5.236v369.011
		c0,11.997,4.655,23.28,13.14,31.748c8.48,8.482,19.77,13.155,31.77,13.155c11.999,0,23.289-4.667,31.806-13.161
		c8.35-8.361,13.135-19.946,13.135-31.772V81.192c0-1.813-0.401-3.605-1.173-5.242L251.881,6.494z M235.547,51.848l10.392,0.006
		l7.98,17.003l-26.356,0.008L235.547,51.848z M255.092,464.507c-7.677,7.661-21.024,7.672-28.685,0.008
		c-2.156-2.144-3.6-4.748-4.596-7.524h37.845C258.642,459.784,257.198,462.394,255.092,464.507z M261.006,432.318h-40.512V93.537
		l40.512-0.006V432.318z"/>
	<path d="M163.04,81.339l-38.855-65.761c-6.04-10.167-22.919-10.191-28.978,0.023L56.369,81.323
		c-4.916,8.278-4.578,18.759,0.835,26.729l6.402,9.381l13.292,346.72c0.659,17.364,14.796,30.971,32.189,30.971
		c17.393,0,31.548-13.614,32.207-31.001l13.303-344.98l7.559-11.06C167.587,100.124,167.939,89.635,163.04,81.339z M116.637,463.18
		c-0.162,4.081-3.473,7.27-7.55,7.27c-4.083,0-7.389-3.172-7.534-7.228L89.312,141.877l39.563-0.008L116.637,463.18z
		 M126.11,117.092c-0.031,0.058-0.095,0.088-0.158,0.088l-32.703-0.112L77.606,93.881l23.867-40.406v24.169
		c-3.131,2.464-5.27,6.128-5.27,10.434c-0.013,7.459,6.04,13.506,13.491,13.492c7.457,0,13.493-6.026,13.493-13.492
		c0-4.291-2.134-7.953-5.269-10.418V53.606l23.872,40.559L126.11,117.092z"/>
	<path d="M429.885,234.928h-106.91c-6.811,0-12.337,5.524-12.337,12.334v235.524c0,6.81,5.526,12.336,12.337,12.336h106.91
		c6.813,0,12.337-5.526,12.337-12.336V247.262C442.222,240.452,436.697,234.928,429.885,234.928z M417.548,365.022h-82.24V259.599
		h82.24V365.022z"/>
</g>
<g>
</g>
<g>
</g>
<g>
</g>
<g>
</g>
<g>
</g>
<g>
</g>
<g>
</g>
<g>
</g>
<g>
</g>
<g>
</g>
<g>
</g>
<g>
</g>
<g>
</g>
<g>
</g>
<g>
</g>
</svg>
