<?xml version="1.0" encoding="iso-8859-1"?>
<!-- Generator: Adobe Illustrator 18.0.0, SVG Export Plug-In . SVG Version: 6.00 Build 0)  -->
<!DOCTYPE svg PUBLIC "-//W3C//DTD SVG 1.1//EN" "http://www.w3.org/Graphics/SVG/1.1/DTD/svg11.dtd">
<svg version="1.1" id="Capa_1" xmlns="http://www.w3.org/2000/svg" xmlns:xlink="http://www.w3.org/1999/xlink" x="0px" y="0px"
	 viewBox="0 0 498.424 498.424" style="enable-background:new 0 0 498.424 498.424;" xml:space="preserve">
<g>
	<polygon points="222.956,361.667 218.862,365.788 213.342,367.635 163.797,384.27 307.92,384.27 307.92,334.725 249.905,334.725 	
		"/>
	<path d="M473.655,334.725H407.01v49.544h66.644c13.689,0,24.77-11.088,24.77-24.772
		C498.424,345.813,487.344,334.725,473.655,334.725z"/>
	<polygon points="138.797,277.511 165.764,250.544 165.764,188.483 116.221,188.483 116.221,336.628 132.833,287.139 
		134.67,281.622 	"/>
	<path d="M165.764,26.823c0-13.686-11.096-24.774-24.773-24.774c-13.691,0-24.77,11.088-24.77,24.774v62.57h49.543V26.823z"/>
	<path d="M332.692,471.604c0,13.684,11.096,24.772,24.773,24.772c13.678,0,24.77-11.088,24.77-24.772V202.409l-49.543,49.538
		V471.604z"/>
	<path d="M302.145,114.164H24.774C11.098,114.164,0,125.252,0,138.937c0,13.684,11.098,24.772,24.774,24.772H252.6L302.145,114.164z
		"/>
	<path d="M216.794,332.797L459.153,90.472c1.469-1.46,2.289-3.469,2.307-5.541c-0.018-2.071-0.838-4.063-2.307-5.53l-4.082-4.104
		l22.467-22.476c3.984-3.975,3.984-10.427,0-14.393l-15.496-15.499c-1.967-1.986-4.584-2.976-7.178-2.976
		c-2.598,0-5.211,1-7.209,2.992l-22.467,22.483l-4.113-4.104c-1.516-1.525-3.516-2.283-5.516-2.283c-1.998,0-4.016,0.758-5.551,2.29
		l-242.34,242.335L216.794,332.797z M335.87,152.936l81.592-81.576c3.225-3.225,8.449-3.225,11.68,0
		c3.225,3.227,3.225,8.451,0,11.678l-81.594,81.577c-1.613,1.612-3.727,2.418-5.842,2.418c-2.109,0-4.225-0.806-5.836-2.418
		C332.645,161.387,332.645,156.16,335.87,152.936z"/>
	<path d="M156.151,295.493l-21.836,65.02c-0.516,1.605-0.096,3.356,1.098,4.556c0.838,0.838,1.967,1.299,3.146,1.299
		c0.465,0,0.947-0.081,1.432-0.235l64.967-21.821L156.151,295.493z"/>
</g>
<g>
</g>
<g>
</g>
<g>
</g>
<g>
</g>
<g>
</g>
<g>
</g>
<g>
</g>
<g>
</g>
<g>
</g>
<g>
</g>
<g>
</g>
<g>
</g>
<g>
</g>
<g>
</g>
<g>
</g>
</svg>
