<?xml version="1.0" encoding="iso-8859-1"?>
<!-- Generator: Adobe Illustrator 18.0.0, SVG Export Plug-In . SVG Version: 6.00 Build 0)  -->
<!DOCTYPE svg PUBLIC "-//W3C//DTD SVG 1.1//EN" "http://www.w3.org/Graphics/SVG/1.1/DTD/svg11.dtd">
<svg version="1.1" id="Capa_1" xmlns="http://www.w3.org/2000/svg" xmlns:xlink="http://www.w3.org/1999/xlink" x="0px" y="0px"
	 viewBox="0 0 479.983 479.983" style="enable-background:new 0 0 479.983 479.983;" xml:space="preserve">
<g>
	<path d="M308.573,426.89H171.414c-14.655,0-26.548,11.883-26.548,26.546c0,14.664,11.893,26.547,26.548,26.547h137.159
		c14.656,0,26.549-11.883,26.549-26.547C335.122,438.772,323.229,426.89,308.573,426.89z"/>
	<path d="M411.655,226.869L281.272,6.23c-2.907-4.92-8.747-7.287-14.259-5.78c-5.512,1.507-9.335,6.515-9.335,12.23v181.143
		c25.112,7.63,43.517,30.693,43.517,58.304c0,33.808-27.408,61.208-61.201,61.208c-33.806,0-61.219-27.4-61.219-61.208
		c0-27.601,18.391-50.657,43.502-58.297V12.742c0-5.715-3.823-10.723-9.335-12.23c-5.512-1.507-11.352,0.86-14.259,5.78
		L68.335,226.869c-9.974,16.876-9.297,37.997,1.766,54.191l62.84,92.102c9.418,13.793,25.043,22.047,41.738,22.047H305.29
		c16.715,0,32.34-8.254,41.76-22.054l62.84-92.104C420.935,264.865,421.626,243.744,411.655,226.869z"/>
</g>
<g>
</g>
<g>
</g>
<g>
</g>
<g>
</g>
<g>
</g>
<g>
</g>
<g>
</g>
<g>
</g>
<g>
</g>
<g>
</g>
<g>
</g>
<g>
</g>
<g>
</g>
<g>
</g>
<g>
</g>
</svg>
