<?xml version="1.0" encoding="iso-8859-1"?>
<!-- Generator: Adobe Illustrator 18.0.0, SVG Export Plug-In . SVG Version: 6.00 Build 0)  -->
<!DOCTYPE svg PUBLIC "-//W3C//DTD SVG 1.1//EN" "http://www.w3.org/Graphics/SVG/1.1/DTD/svg11.dtd">
<svg version="1.1" id="Capa_1" xmlns="http://www.w3.org/2000/svg" xmlns:xlink="http://www.w3.org/1999/xlink" x="0px" y="0px"
	 viewBox="0 0 489.633 489.633" style="enable-background:new 0 0 489.633 489.633;" xml:space="preserve">
<g>
	<path d="M484.732,72.193L417.458,4.887C414.329,1.76,410.076,0,405.663,0c-4.414,0-8.663,1.76-11.79,4.887L356.34,42.424
		l90.868,90.872l37.524-37.522C491.244,89.26,491.244,78.707,484.732,72.193z"/>
	<polygon points="331.52,67.257 422.388,158.131 435.418,145.086 344.545,54.215 	"/>
	<path d="M294.878,103.885L38.874,359.902c-1.824,1.826-3.211,4.043-4.038,6.482L0.879,467.646c-2.002,6.01-0.457,12.619,4.025,17.1
		c3.173,3.18,7.44,4.887,11.79,4.887c1.774,0,3.567-0.277,5.309-0.863l101.246-33.973c2.456-0.83,4.673-2.196,6.494-4.021
		l256.003-256.018L294.878,103.885z M65.578,379.893c6.713,1.788,20.7,8.659,28.113,16.066c9.68,9.698,14.701,20.783,15.871,27.984
		l-66.407,22.551L65.578,379.893z"/>
	<polygon points="306.668,92.094 397.541,182.964 410.598,169.918 319.73,79.046 	"/>
</g>
<g>
</g>
<g>
</g>
<g>
</g>
<g>
</g>
<g>
</g>
<g>
</g>
<g>
</g>
<g>
</g>
<g>
</g>
<g>
</g>
<g>
</g>
<g>
</g>
<g>
</g>
<g>
</g>
<g>
</g>
</svg>
