<?xml version="1.0" encoding="iso-8859-1"?>
<!-- Generator: Adobe Illustrator 18.0.0, SVG Export Plug-In . SVG Version: 6.00 Build 0)  -->
<!DOCTYPE svg PUBLIC "-//W3C//DTD SVG 1.1//EN" "http://www.w3.org/Graphics/SVG/1.1/DTD/svg11.dtd">
<svg version="1.1" id="Capa_1" xmlns="http://www.w3.org/2000/svg" xmlns:xlink="http://www.w3.org/1999/xlink" x="0px" y="0px"
	 viewBox="0 0 495.295 495.295" style="enable-background:new 0 0 495.295 495.295;" xml:space="preserve">
<path d="M470.957,96.77H317.516V18.338C317.516,8.193,309.307,0,299.196,0H24.335C14.224,0,6.015,8.193,6.015,18.338v361.867
	c0,10.129,8.209,18.305,18.32,18.305h153.462v78.447c0,10.147,8.209,18.338,18.32,18.338h274.84
	c10.131,0,18.322-8.191,18.322-18.338V115.09C489.28,104.961,481.088,96.77,470.957,96.77z M42.675,361.883V36.643h238.201v325.24
	H42.675z M452.637,458.637H214.455v-0.355l95.607-63.479l-0.098-0.178c4.486-3.357,7.551-8.406,7.551-14.42V133.412h135.121V458.637
	z"/>
<g>
</g>
<g>
</g>
<g>
</g>
<g>
</g>
<g>
</g>
<g>
</g>
<g>
</g>
<g>
</g>
<g>
</g>
<g>
</g>
<g>
</g>
<g>
</g>
<g>
</g>
<g>
</g>
<g>
</g>
</svg>
