<?xml version="1.0" encoding="iso-8859-1"?>
<!-- Generator: Adobe Illustrator 18.0.0, SVG Export Plug-In . SVG Version: 6.00 Build 0)  -->
<!DOCTYPE svg PUBLIC "-//W3C//DTD SVG 1.1//EN" "http://www.w3.org/Graphics/SVG/1.1/DTD/svg11.dtd">
<svg version="1.1" id="Capa_1" xmlns="http://www.w3.org/2000/svg" xmlns:xlink="http://www.w3.org/1999/xlink" x="0px" y="0px"
	 viewBox="0 0 484.718 484.718" style="enable-background:new 0 0 484.718 484.718;" xml:space="preserve">
<path d="M444.705,20.55c-27.418-27.4-71.85-27.4-99.25,0L125.917,240.07c-8.062,8.066-9.291,20.016-4.339,29.627L24.277,367
	c-3.966,3.969-5.643,9.693-4.45,15.191l19.468,89.527c1.271,5.904,5.694,10.631,11.484,12.34c1.529,0.436,3.096,0.66,4.657,0.66
	c4.307,0,8.532-1.691,11.678-4.838l133.864-133.879c1.999,0.5,4.031,0.838,6.127,0.838c6.79,0,13.29-2.693,18.081-7.498
	l219.519-219.537c13.161-13.16,20.564-31.016,20.564-49.627C465.269,51.564,457.866,33.71,444.705,20.55z M65.147,435.14
	l-11.13-51.156l34.099-34.096l11.125,51.158L65.147,435.14z M120.049,380.224l-11.116-51.158l25.889-25.885l11.125,51.158
	L120.049,380.224z M166.769,333.501l-11.111-51.158l25.871-25.885l11.125,51.156L166.769,333.501z M213.494,286.794l-11.129-51.158
	l25.871-25.887l11.13,51.158L213.494,286.794z M260.2,240.085l-11.129-51.172l25.885-25.887l11.116,51.158L260.2,240.085z
	 M411.211,101.902c-1.47,6.676-4.726,13.047-9.923,18.242c-8.578,8.596-20.333,11.965-31.496,10.336l-62.885,62.883l-11.13-51.158
	l42.888-42.883c-1.631-11.162,1.723-22.902,10.319-31.498c5.196-5.195,11.567-8.453,18.242-9.904
	c11.904-2.613,24.821,0.645,34.08,9.92C410.547,77.08,413.804,90,411.211,101.902z"/>
<g>
</g>
<g>
</g>
<g>
</g>
<g>
</g>
<g>
</g>
<g>
</g>
<g>
</g>
<g>
</g>
<g>
</g>
<g>
</g>
<g>
</g>
<g>
</g>
<g>
</g>
<g>
</g>
<g>
</g>
</svg>
