<?xml version="1.0" encoding="iso-8859-1"?>
<!-- Generator: Adobe Illustrator 18.0.0, SVG Export Plug-In . SVG Version: 6.00 Build 0)  -->
<!DOCTYPE svg PUBLIC "-//W3C//DTD SVG 1.1//EN" "http://www.w3.org/Graphics/SVG/1.1/DTD/svg11.dtd">
<svg version="1.1" id="Capa_1" xmlns="http://www.w3.org/2000/svg" xmlns:xlink="http://www.w3.org/1999/xlink" x="0px" y="0px"
	 viewBox="0 0 488.978 488.978" style="enable-background:new 0 0 488.978 488.978;" xml:space="preserve">
<g>
	<path d="M430.021,0.003H58.964C26.455,0.003,0,26.448,0,58.963v371.051c0,32.516,26.455,58.961,58.964,58.961h371.057
		c32.503,0,58.958-26.445,58.958-58.961V58.963C488.978,26.448,462.523,0.003,430.021,0.003z M74.075,175.249
		c-13.796,0-24.991-11.184-24.991-24.989c0-13.796,11.195-24.99,24.991-24.99h39.194V86.069c0-13.805,11.192-24.99,24.986-24.99
		c13.801,0,24.993,11.185,24.993,24.99v39.192h39.223c13.801,0,24.996,11.187,24.996,24.99c0,13.797-11.195,24.992-24.996,24.992
		h-39.223v39.199c0,13.806-11.192,24.99-24.993,24.99c-13.794,0-24.986-11.184-24.986-24.99v-39.193H74.075z M438.999,430.014
		c0,4.954-4.033,8.98-8.978,8.98H58.964c-2.476,0-4.721-1.007-6.348-2.636L436.362,52.619c1.627,1.626,2.637,3.872,2.637,6.344
		V430.014z"/>
	<path d="M397.189,312.686l-128.4,0.009c-13.795,0-24.99,11.194-24.99,24.991c0,13.805,11.195,24.99,24.99,24.99l128.4-0.01
		c13.795,0,24.986-11.191,24.986-24.99C422.175,323.871,410.983,312.686,397.189,312.686z"/>
</g>
<g>
</g>
<g>
</g>
<g>
</g>
<g>
</g>
<g>
</g>
<g>
</g>
<g>
</g>
<g>
</g>
<g>
</g>
<g>
</g>
<g>
</g>
<g>
</g>
<g>
</g>
<g>
</g>
<g>
</g>
</svg>
