<?xml version="1.0" encoding="iso-8859-1"?>
<!-- Generator: Adobe Illustrator 18.0.0, SVG Export Plug-In . SVG Version: 6.00 Build 0)  -->
<!DOCTYPE svg PUBLIC "-//W3C//DTD SVG 1.1//EN" "http://www.w3.org/Graphics/SVG/1.1/DTD/svg11.dtd">
<svg version="1.1" id="Capa_1" xmlns="http://www.w3.org/2000/svg" xmlns:xlink="http://www.w3.org/1999/xlink" x="0px" y="0px"
	 viewBox="0 0 490.193 490.193" style="enable-background:new 0 0 490.193 490.193;" xml:space="preserve">
<g>
	<path d="M316.732,442.552c-47.642,0-141.067-11.027-179.498-15.818c-7.226-40.031-24.472-140.57-24.49-188.169
		c0-13.163-10.671-23.819-23.819-23.819c-13.166,0-23.823,10.671-23.823,23.819c0.017,64.41,27.282,207.974,28.461,214.05
		c1.921,10.082,10.079,17.791,20.252,19.154c5.645,0.746,139.173,18.424,202.917,18.424c13.148,0,23.819-10.669,23.819-23.82
		C340.551,453.222,329.88,442.552,316.732,442.552z"/>
	<path d="M419.333,52.447L359.905,3.58c-6.759-5.534-16.78-4.545-22.364,2.22l-9.6,11.724
		c-13.105,15.91-29.946,28.472-48.896,36.614c-19.729,8.499-47.707,29.002-64.95,49.952c-13.802,16.798-49.041,71.763-49.041,71.763
		c-8.84,10.775-7.286,26.685,3.476,35.514c2.543,2.123,5.444,3.611,8.388,4.557c-4.542,10.143-2.091,22.425,6.903,29.826
		c2.574,2.092,5.444,3.598,8.453,4.525c-4.59,10.145-2.156,22.427,6.886,29.855c9.224,7.581,22.22,7.459,31.327,0.495l-66.718,81.11
		c-8.829,10.764-7.308,26.674,3.458,35.546c10.761,8.841,26.671,7.275,35.512-3.491l125.51-152.617
		c4.56-5.555,11.651-8.375,18.75-7.459c2.374,0.292,4.407,1.811,5.335,3.983c0.962,2.188,0.684,4.699-0.71,6.623
		c-3.585,4.961-6.499,9.011-6.886,9.521l-33.871,43.41c-8.967,11.509-6.886,28.067,4.59,37.035
		c3.985,3.069,8.558,4.867,13.244,5.397c8.806,0.991,17.927-2.466,23.789-10.005c0,0,37.895-50.161,40.121-53.412
		c31.43-45.903,13.663-121.85,13.663-121.85c-1.986-12.576-3.257-20.564-3.257-20.564c-3.071-19.525,2.36-39.44,14.873-54.717
		l3.615-4.342C427.029,68.05,426.066,58.046,419.333,52.447z"/>
</g>
<g>
</g>
<g>
</g>
<g>
</g>
<g>
</g>
<g>
</g>
<g>
</g>
<g>
</g>
<g>
</g>
<g>
</g>
<g>
</g>
<g>
</g>
<g>
</g>
<g>
</g>
<g>
</g>
<g>
</g>
</svg>
