<?xml version="1.0" encoding="iso-8859-1"?>
<!-- Generator: Adobe Illustrator 18.0.0, SVG Export Plug-In . SVG Version: 6.00 Build 0)  -->
<!DOCTYPE svg PUBLIC "-//W3C//DTD SVG 1.1//EN" "http://www.w3.org/Graphics/SVG/1.1/DTD/svg11.dtd">
<svg version="1.1" id="Capa_1" xmlns="http://www.w3.org/2000/svg" xmlns:xlink="http://www.w3.org/1999/xlink" x="0px" y="0px"
	 viewBox="0 0 493.802 493.802" style="enable-background:new 0 0 493.802 493.802;" xml:space="preserve">
<path d="M427.472,125.237V43.57c0-24.019-19.542-43.563-43.557-43.563L109.915,0C98.32,0,87.4,4.519,79.101,12.763
	c-8.222,8.209-12.737,19.146-12.737,30.8v81.657c-35.223,18.419-59.285,55.243-59.285,97.74v61.148
	c0,13.006,10.533,23.55,23.543,23.55h35.742v142.588c0,24.013,19.539,43.556,43.551,43.556H312.42
	c7.047,0,13.811-2.774,18.828-7.722l88.238-87.019c5.11-5.039,7.986-11.916,7.986-19.092v-72.311h35.708
	c13.006,0,23.543-10.544,23.543-23.55V222.96C486.723,180.479,462.673,143.662,427.472,125.237z M393.058,366.412h-50.442
	c-6.003,0-11.732,1.219-16.941,3.428c-15.625,6.621-26.614,22.122-26.614,40.127v49.42H109.915c-5.038,0-9.141-4.101-9.141-9.142
	V307.658h292.284V366.412z M393.058,114.039c-5.444-0.824-10.974-1.387-16.656-1.387H117.393c-5.661,0-11.193,0.563-16.619,1.387
	V43.563c0-2.463,0.943-4.757,2.625-6.427c1.764-1.755,4.08-2.723,6.516-2.723l274.001,0.009c5.042,0,9.143,4.107,9.143,9.147
	V114.039z M410.267,262.674c-8.707,0-15.78-7.067-15.78-15.778c0-8.704,7.073-15.771,15.78-15.771
	c8.702,0,15.761,7.067,15.761,15.771C426.028,255.607,418.969,262.674,410.267,262.674z"/>
<g>
</g>
<g>
</g>
<g>
</g>
<g>
</g>
<g>
</g>
<g>
</g>
<g>
</g>
<g>
</g>
<g>
</g>
<g>
</g>
<g>
</g>
<g>
</g>
<g>
</g>
<g>
</g>
<g>
</g>
</svg>
