<?xml version="1.0" encoding="iso-8859-1"?>
<!-- Generator: Adobe Illustrator 18.0.0, SVG Export Plug-In . SVG Version: 6.00 Build 0)  -->
<!DOCTYPE svg PUBLIC "-//W3C//DTD SVG 1.1//EN" "http://www.w3.org/Graphics/SVG/1.1/DTD/svg11.dtd">
<svg version="1.1" id="Capa_1" xmlns="http://www.w3.org/2000/svg" xmlns:xlink="http://www.w3.org/1999/xlink" x="0px" y="0px"
	 viewBox="0 0 488.223 488.223" style="enable-background:new 0 0 488.223 488.223;" xml:space="preserve">
<g>
	<path d="M223.271,199.523c-9.233-7.408-23.028-11.113-42.374-11.113c-11.209,0-20.506,0.42-28.223,1.098
		c-8.009,0.715-14.137,7.443-14.137,15.465v107.604c0,8.576,6.938,15.528,15.525,15.528c8.576,0,15.53-6.952,15.53-15.528v-34.063
		c2.878,0.421,6.58,0.631,10.706,0.631c18.502,0,34.353-4.529,45.042-14.619c8.218-7.814,12.763-19.327,12.763-32.914
		C238.104,218.039,232.137,206.528,223.271,199.523z M180.07,255.064c-4.51,0-7.793-0.195-10.477-0.826v-40.932
		c2.262-0.617,6.58-1.248,12.952-1.248c15.64,0,24.488,7.634,24.488,20.377C207.033,246.637,196.75,255.064,180.07,255.064z"/>
	<path d="M306.471,212.9c6.551,0,12.262,0.9,17.017,2.167c6.841,1.776,13.828-2.251,15.702-9.045l0.227-0.822
		c0.871-3.169,0.436-6.554-1.194-9.412c-1.653-2.849-4.368-4.917-7.552-5.76c-6.518-1.696-14.351-2.864-23.603-2.864
		c-32.703,0-52.453,18.119-52.453,41.762c0,20.17,15.013,32.931,38.06,40.956c16.673,5.983,23.259,10.896,23.259,19.536
		c0,9.057-7.622,15.041-22.029,15.041c-7.489,0-14.846-1.361-21.333-3.301c-3.594-1.082-7.439-0.632-10.675,1.213
		c-3.25,1.861-5.581,4.966-6.485,8.573l-0.177,0.742c-1.521,6.179,2.065,12.472,8.148,14.282c8.058,2.441,18.325,4.189,28.68,4.189
		c38.06,0,55.942-19.746,55.942-42.991c0-19.55-11.499-32.298-35.984-41.372c-17.909-6.775-25.718-10.674-25.718-19.522
		C286.302,219.062,292.884,212.9,306.471,212.9z"/>
	<path d="M416.164,95.379l-90.33-88.79C321.538,2.366,315.756,0,309.732,0H105.171c-22.08,0-39.979,17.899-39.979,39.979v405.183
		c0,11.504,4.479,22.322,12.635,30.487c8.152,8.106,18.982,12.573,30.427,12.573h270.913c23.754,0,43.059-19.319,43.059-43.075
		l0.807-333.332C423.046,105.636,420.57,99.711,416.164,95.379z M329.293,57.75l34.509,34.16h-25.479
		c-4.978,0-9.029-4.052-9.029-9.046V57.75z M388.192,445.147c0,4.994-4.032,9.046-9.026,9.046H108.253
		c-2.411,0-4.711-0.972-6.418-2.665c-1.687-1.675-2.618-3.942-2.618-6.366V43.058c0-4.975,4.056-9.029,9.036-9.029h187.009v48.836
		c0,23.754,19.325,43.075,43.061,43.075h49.87V445.147z"/>
</g>
<g>
</g>
<g>
</g>
<g>
</g>
<g>
</g>
<g>
</g>
<g>
</g>
<g>
</g>
<g>
</g>
<g>
</g>
<g>
</g>
<g>
</g>
<g>
</g>
<g>
</g>
<g>
</g>
<g>
</g>
</svg>
