<?xml version="1.0" encoding="iso-8859-1"?>
<!-- Generator: Adobe Illustrator 18.0.0, SVG Export Plug-In . SVG Version: 6.00 Build 0)  -->
<!DOCTYPE svg PUBLIC "-//W3C//DTD SVG 1.1//EN" "http://www.w3.org/Graphics/SVG/1.1/DTD/svg11.dtd">
<svg version="1.1" id="Capa_1" xmlns="http://www.w3.org/2000/svg" xmlns:xlink="http://www.w3.org/1999/xlink" x="0px" y="0px"
	 viewBox="0 0 474.223 474.223" style="enable-background:new 0 0 474.223 474.223;" xml:space="preserve">
<g>
	<path d="M183.929,32.703c-5.571-9.447-15.837-15.324-27.023-15.541c-0.139-0.016-0.217-0.063-0.324-0.063
		c-0.078,0-0.14,0.047-0.232,0.047c-10.971,0.094-21.311,5.971-27.007,15.539L15.209,225.723
		c-10.91,18.332-10.184,41.666,1.869,59.522l38.088,55.787c-2.857,0.925-5.541,2.314-7.656,4.521
		c-3.487,3.612-5.34,8.501-5.154,13.502l3.704,97.376c0.383,9.938,8.532,17.793,18.474,17.793l184.113-0.015
		c9.941,0,18.086-7.857,18.474-17.793l3.722-97.361c0.184-5.001-1.672-9.89-5.158-13.502c-2.11-2.207-4.799-3.596-7.651-4.521
		l38.021-55.709c12.117-17.672,12.857-41.019,1.914-59.523L183.929,32.703z M230.842,437.231l-148.504,0.017l-2.3-60.401h153.116
		L230.842,437.231z M265.53,264.441l-45.972,67.359c-3.377,4.986-9.011,7.948-15.229,7.948c-0.019,0-0.019,0-0.019,0l-95.427,0.045
		c-6.219-0.015-11.792-2.978-15.296-8.055l-45.925-67.267c-4.01-5.987-4.288-13.764-0.664-19.892l91.094-154.069l0.02,111.199
		c-12.52,6.668-21.158,19.661-21.158,34.831c0,21.928,17.762,39.706,39.629,39.661c21.898,0.015,39.627-17.718,39.627-39.661
		c0.031-15.17-8.596-28.163-21.127-34.831l-0.014-111.261l91.065,154.178C269.806,250.814,269.573,258.563,265.53,264.441z"/>
	<path d="M438.983,0H292.167c-15.309,0-27.717,12.409-27.717,27.731c0,15.31,12.408,27.731,27.717,27.731h146.816
		c15.326,0,27.734-12.422,27.734-27.731C466.717,12.409,454.309,0,438.983,0z"/>
</g>
<g>
</g>
<g>
</g>
<g>
</g>
<g>
</g>
<g>
</g>
<g>
</g>
<g>
</g>
<g>
</g>
<g>
</g>
<g>
</g>
<g>
</g>
<g>
</g>
<g>
</g>
<g>
</g>
<g>
</g>
</svg>
