<?xml version="1.0" encoding="iso-8859-1"?>
<!-- Generator: Adobe Illustrator 18.0.0, SVG Export Plug-In . SVG Version: 6.00 Build 0)  -->
<!DOCTYPE svg PUBLIC "-//W3C//DTD SVG 1.1//EN" "http://www.w3.org/Graphics/SVG/1.1/DTD/svg11.dtd">
<svg version="1.1" id="Capa_1" xmlns="http://www.w3.org/2000/svg" xmlns:xlink="http://www.w3.org/1999/xlink" x="0px" y="0px"
	 viewBox="0 0 485.67 485.67" style="enable-background:new 0 0 485.67 485.67;" xml:space="preserve">
<g>
	<path d="M470.567,2.948h-223.01C110.848,2.948,0,113.778,0,250.49v217.115c0,8.359,6.773,15.117,15.117,15.117h97.051V186.487
		H92.993c-6.912,0-12.536-5.61-12.536-12.541V95.565c0-6.929,5.624-12.539,12.536-12.539h78.397c6.93,0,12.541,5.61,12.541,12.539
		v19.17h301.74v-96.67C485.67,9.705,478.898,2.948,470.567,2.948z"/>
	<path d="M183.931,173.946c0,6.931-5.61,12.541-12.541,12.541h-19.169v296.236h41.863c8.343,0,15.099-6.758,15.099-15.117V227.247
		c0-8.36,6.772-15.117,15.116-15.117h246.269c8.33,0,15.103-6.757,15.103-15.117v-42.221h-301.74V173.946z"/>
</g>
<g>
</g>
<g>
</g>
<g>
</g>
<g>
</g>
<g>
</g>
<g>
</g>
<g>
</g>
<g>
</g>
<g>
</g>
<g>
</g>
<g>
</g>
<g>
</g>
<g>
</g>
<g>
</g>
<g>
</g>
</svg>
