<?xml version="1.0" encoding="iso-8859-1"?>
<!-- Generator: Adobe Illustrator 18.0.0, SVG Export Plug-In . SVG Version: 6.00 Build 0)  -->
<!DOCTYPE svg PUBLIC "-//W3C//DTD SVG 1.1//EN" "http://www.w3.org/Graphics/SVG/1.1/DTD/svg11.dtd">
<svg version="1.1" id="Capa_1" xmlns="http://www.w3.org/2000/svg" xmlns:xlink="http://www.w3.org/1999/xlink" x="0px" y="0px"
	 viewBox="0 0 483.441 483.441" style="enable-background:new 0 0 483.441 483.441;" xml:space="preserve">
<path d="M483.396,55.048c0.423-5.841-49.075-18.459-49.075-18.459c-18.819-4.719-38.428-7.42-58.704-7.42
	c-15.107,0-29.841,1.547-44.159,4.218C304.9,18.387,274.32,9.72,241.715,9.72c-32.605,0-63.204,8.667-89.762,23.667
	c-14.336-2.671-29.083-4.218-44.177-4.218c-20.271,0-39.848,2.797-58.672,7.516c0,0-49.512,12.316-49.102,18.127
	c1.484,19.451,9.285,51.725,9.285,51.725c9.976,33.439,27.09,63.754,49.418,89.443c1.087,64.498,35.681,120.863,87.105,152.646
	c11.64,34.545,30.662,65.744,55.47,91.417c0,0,18.566,21.017,40.353,33.679c20.131-8.906,40.705-34.214,40.705-34.214
	c24.632-25.531,43.546-56.511,55.167-90.801c51.501-31.786,86.145-88.196,87.218-152.774c22.323-25.705,39.456-56.035,49.418-89.49
	C474.141,106.442,484.198,65.688,483.396,55.048z M139.732,82.077c21.962,3.743,42.775,10.912,61.58,21.378
	c-26.684,27.631-46.878,61.517-58.135,99.235c-18.571-11.132-34.941-25.421-48.759-41.904
	C101.115,129.966,117.314,102.73,139.732,82.077z M241.697,133.534c24.821,24.063,43.072,54.741,52.168,89.127
	c-16.628,4.754-34.071,7.405-52.182,7.405c-18.093,0-35.542-2.651-52.168-7.405C198.592,188.275,216.861,157.597,241.697,133.534z
	 M182.994,272.475c18.824,4.738,38.432,7.531,58.689,7.531c20.289,0,39.884-2.793,58.716-7.531
	c-0.076,22.279-4.167,43.577-11.256,63.473c-14.937,4.955-30.852,7.753-47.429,7.753c-16.596,0-32.542-2.798-47.479-7.768
	C187.165,316.038,183.088,294.755,182.994,272.475z M340.176,202.69c-11.23-37.719-31.438-71.604-58.09-99.235
	c18.788-10.481,39.632-17.649,61.607-21.378c22.404,20.637,38.603,47.873,45.314,78.693
	C375.176,177.269,358.787,191.558,340.176,202.69z M241.715,42.054c14.224,0,27.96,2.115,41.021,5.811
	c-14.418,6.033-28.186,13.264-41.039,21.82c-12.853-8.541-26.634-15.787-41.034-21.805
	C213.736,44.169,227.473,42.054,241.715,42.054z M98.179,79.442c-11.166,14.1-20.244,29.871-26.923,46.875
	c-6.552-12.518-11.937-25.767-15.63-39.723C69.285,82.692,83.509,80.231,98.179,79.442z M95.857,230.573
	c11.919,9.016,24.568,17.115,38.053,23.842c-0.397,5.732-0.871,11.477-0.871,17.382c0,9.22,0.65,18.27,1.66,27.222
	C116.177,280.338,102.63,256.814,95.857,230.573z M241.665,409.888c-11.193-10.849-20.902-23.162-29.209-36.41
	c9.556,1.531,19.279,2.559,29.259,2.559c9.961,0,19.658-1.012,29.191-2.559C262.572,386.741,252.863,399.039,241.665,409.888z
	 M348.668,299.097c1.028-8.982,1.673-18.063,1.673-27.3c0-5.904-0.474-11.649-0.866-17.382
	c13.498-6.742,26.174-14.842,38.111-23.872C380.799,256.814,367.234,280.401,348.668,299.097z M412.155,126.287
	c-6.665-17.004-15.757-32.761-26.936-46.86c14.684,0.742,28.956,3.076,42.599,6.914
	C424.124,100.379,418.739,113.688,412.155,126.287z"/>
<g>
</g>
<g>
</g>
<g>
</g>
<g>
</g>
<g>
</g>
<g>
</g>
<g>
</g>
<g>
</g>
<g>
</g>
<g>
</g>
<g>
</g>
<g>
</g>
<g>
</g>
<g>
</g>
<g>
</g>
</svg>
