<?xml version="1.0" encoding="iso-8859-1"?>
<!-- Generator: Adobe Illustrator 18.0.0, SVG Export Plug-In . SVG Version: 6.00 Build 0)  -->
<!DOCTYPE svg PUBLIC "-//W3C//DTD SVG 1.1//EN" "http://www.w3.org/Graphics/SVG/1.1/DTD/svg11.dtd">
<svg version="1.1" id="Capa_1" xmlns="http://www.w3.org/2000/svg" xmlns:xlink="http://www.w3.org/1999/xlink" x="0px" y="0px"
	 viewBox="0 0 490.833 490.833" style="enable-background:new 0 0 490.833 490.833;" xml:space="preserve">
<g>
	<path d="M483.298,116.943c-2.802-1.786-5.934-2.274-9.021-2.162l4.121-6.576c1.706-2.695,2.239-5.968,1.536-9.07
		c-0.704-3.115-2.631-5.81-5.339-7.516l-2.354-1.489l16.805-26.811c3.431-5.45,1.773-12.653-3.681-16.083L464.1,33.892
		c-2.617-1.644-5.796-2.177-8.801-1.488c-3.026,0.69-5.638,2.552-7.283,5.167l-16.822,26.813l-2.397-1.488
		c-2.692-1.69-5.982-2.252-9.065-1.537c-3.119,0.723-5.81,2.638-7.503,5.343L260.711,308.288c-0.989,1.584-1.601,3.352-1.786,5.215
		l-3.558,36.178L123.535,19.86c-1.174-2.96-3.478-5.342-6.421-6.594c-2.929-1.252-6.25-1.303-9.21-0.109L7.562,53.279
		c-6.17,2.46-9.161,9.461-6.703,15.631l160.702,402.064c1.877,4.699,6.403,7.566,11.18,7.566c1.474,0,2.991-0.267,4.447-0.863
		l100.355-40.09c2.96-1.174,5.326-3.494,6.597-6.421c1.249-2.93,1.298-6.249,0.11-9.21l-14.474-36.221
		c0.471-0.205,1.003-0.146,1.443-0.41l51.743-31.682c1.583-0.972,2.912-2.287,3.915-3.869l74.204-118.318
		c1.254,2.834,3.07,5.434,5.89,7.203c2.63,1.676,5.572,2.458,8.488,2.458c5.353,0,10.555-2.663,13.608-7.514l59.307-94.563
		C493.069,131.537,490.819,121.642,483.298,116.943z M179.444,450.879L27.658,71.149l78.022-31.197l12.029,30.116L93.809,79.62
		c-4.117,1.646-6.122,6.297-4.478,10.416c1.253,3.133,4.257,5.044,7.455,5.044c0.985,0,1.988-0.188,2.973-0.581l23.899-9.552
		l11.435,28.626l-23.899,9.556c-4.104,1.628-6.109,6.296-4.464,10.412c1.253,3.133,4.276,5.046,7.438,5.046
		c1.002,0,2.005-0.189,2.977-0.565l23.9-9.554l11.448,28.63l-23.917,9.554c-4.104,1.645-6.104,6.294-4.464,10.414
		c1.254,3.131,4.279,5.042,7.442,5.042c1.002,0,2.005-0.189,2.973-0.579l23.899-9.553l11.466,28.645l-23.899,9.555
		c-4.103,1.625-6.109,6.293-4.464,10.411c1.253,3.133,4.275,5.046,7.441,5.046c0.999,0,2.001-0.191,2.974-0.583l23.899-9.538
		l11.435,28.63l-23.898,9.568c-4.104,1.646-6.109,6.314-4.464,10.415c1.252,3.133,4.274,5.044,7.437,5.044
		c1.003,0,2.005-0.187,2.977-0.579l23.9-9.556l11.461,28.646l-23.913,9.568c-4.121,1.645-6.109,6.315-4.464,10.416
		c1.253,3.131,4.257,5.041,7.454,5.041c0.986,0,2.006-0.189,2.974-0.581l23.898-9.565l11.434,28.628l-23.899,9.538
		c-4.12,1.642-6.122,6.311-4.48,10.43c1.253,3.131,4.261,5.044,7.455,5.044c0.99,0,1.992-0.191,2.977-0.565l23.9-9.538
		l29.427,73.622L179.444,450.879z M426.214,89.676l25.417,15.943l-137.567,219.3l-25.399-15.941L426.214,89.676z M281.211,332.688
		l14.768,9.272l-16.695,10.228L281.211,332.688z"/>
	<path d="M217.861,401.332c-2.489-6.173-9.491-9.194-15.679-6.735c-6.202,2.506-9.192,9.49-6.733,15.708
		c2.476,6.186,9.491,9.176,15.693,6.704C217.329,414.532,220.319,407.532,217.861,401.332z"/>
</g>
<g>
</g>
<g>
</g>
<g>
</g>
<g>
</g>
<g>
</g>
<g>
</g>
<g>
</g>
<g>
</g>
<g>
</g>
<g>
</g>
<g>
</g>
<g>
</g>
<g>
</g>
<g>
</g>
<g>
</g>
</svg>
