<?xml version="1.0" encoding="iso-8859-1"?>
<!-- Generator: Adobe Illustrator 18.0.0, SVG Export Plug-In . SVG Version: 6.00 Build 0)  -->
<!DOCTYPE svg PUBLIC "-//W3C//DTD SVG 1.1//EN" "http://www.w3.org/Graphics/SVG/1.1/DTD/svg11.dtd">
<svg version="1.1" id="Capa_1" xmlns="http://www.w3.org/2000/svg" xmlns:xlink="http://www.w3.org/1999/xlink" x="0px" y="0px"
	 viewBox="0 0 495.883 495.883" style="enable-background:new 0 0 495.883 495.883;" xml:space="preserve">
<g>
	<path d="M430.311,93.243h24.788V17.215c0-6.781-4.597-12.7-11.176-14.386c-6.578-1.677-13.451,1.308-16.708,7.258L173.519,473.684
		c-2.515,4.604-2.418,10.192,0.258,14.7c2.677,4.517,7.518,7.28,12.774,7.28l245.455-0.007c12.756,0,23.079-10.336,23.079-23.088
		v-15.999l-24.756,0.008c-4.565,0-8.26-3.694-8.26-8.257c0-4.556,3.694-8.258,8.26-8.258l24.756-0.009v-33.022l-24.756-0.007
		c-4.565,0-8.26-3.702-8.26-8.257c0-4.565,3.694-8.26,8.26-8.26l24.756,0.009v-33.039l-24.756,0.009c-4.565,0-8.26-3.694-8.26-8.26
		c0-4.556,3.694-8.257,8.26-8.257l24.756-0.007v-33.023l-24.756-0.007c-4.565,0-8.26-3.702-8.26-8.26
		c0-4.563,3.694-8.257,8.26-8.257l24.756,0.009l0.014-33.032h-24.77c-4.565,0-8.26-3.692-8.26-8.258c0-4.563,3.694-8.257,8.26-8.257
		h24.77v-33.03l-24.77-0.009c-4.565,0-8.26-3.701-8.26-8.257c0-4.563,3.694-8.257,8.26-8.257l24.77,0.009v-33.031h-24.77
		c-4.565,0-8.26-3.692-8.26-8.258c0-4.563,3.694-8.257,8.26-8.257h24.77v-33.03h-24.788c-4.547,0-8.255-3.694-8.255-8.257
		C422.056,96.938,425.764,93.243,430.311,93.243z"/>
	<path d="M107.654,0H55.622c-8.191,0-14.838,6.642-14.838,14.854v466.175c0,8.202,6.647,14.854,14.838,14.854h52.032
		c8.19,0,14.838-6.652,14.838-14.854v-26.652l-20.647,0.007c-4.547,0-8.255-3.692-8.255-8.258c0-4.556,3.708-8.257,8.255-8.257
		l20.647-0.007v-33.032h-20.647c-4.547,0-8.255-3.702-8.255-8.258c0-4.563,3.708-8.257,8.255-8.257h20.647v-33.03l-20.647,0.007
		c-4.547,0-8.255-3.692-8.255-8.257c0-4.556,3.708-8.257,8.255-8.257l20.647-0.007V305.74h-20.647c-4.547,0-8.255-3.702-8.255-8.258
		c0-4.563,3.708-8.257,8.255-8.257h20.647v-33.022h-20.647c-4.547,0-8.255-3.692-8.255-8.257c0-4.565,3.708-8.258,8.255-8.258
		h20.647v-33.039h-20.647c-4.547,0-8.255-3.702-8.255-8.257c0-4.566,3.708-8.257,8.255-8.257h20.647v-33.023h-20.647
		c-4.547,0-8.255-3.694-8.255-8.257c0-4.565,3.708-8.258,8.255-8.258h20.647v-33.032h-20.647c-4.561,0-8.255-3.692-8.255-8.257
		c0-4.563,3.694-8.257,8.255-8.257h20.647v-33.03h-20.647c-4.561,0-8.255-3.694-8.255-8.257c0-4.565,3.694-8.257,8.255-8.257h20.647
		V14.854C122.491,6.642,115.844,0,107.654,0z"/>
</g>
<g>
</g>
<g>
</g>
<g>
</g>
<g>
</g>
<g>
</g>
<g>
</g>
<g>
</g>
<g>
</g>
<g>
</g>
<g>
</g>
<g>
</g>
<g>
</g>
<g>
</g>
<g>
</g>
<g>
</g>
</svg>
