<?xml version="1.0" encoding="iso-8859-1"?>
<!-- Generator: Adobe Illustrator 18.0.0, SVG Export Plug-In . SVG Version: 6.00 Build 0)  -->
<!DOCTYPE svg PUBLIC "-//W3C//DTD SVG 1.1//EN" "http://www.w3.org/Graphics/SVG/1.1/DTD/svg11.dtd">
<svg version="1.1" id="Capa_1" xmlns="http://www.w3.org/2000/svg" xmlns:xlink="http://www.w3.org/1999/xlink" x="0px" y="0px"
	 viewBox="0 0 495.963 495.963" style="enable-background:new 0 0 495.963 495.963;" xml:space="preserve">
<g>
	<path d="M322.516,166.609h-0.859V147.24c0-16.313-10.565-30.068-25.18-35.133l-25.712-95.15C268.078,7.021,259.017,0.033,248.661,0
		c-10.23,0-19.292,6.893-22.04,16.73L200,111.946c-14.87,4.918-25.693,18.788-25.693,35.294v19.369h-0.878
		c-22.831,0-41.408,18.56-41.408,41.408v246.533c0,22.832,18.577,41.412,41.408,41.412h149.088c22.849,0,41.427-18.58,41.427-41.412
		V208.018C363.943,185.169,345.365,166.609,322.516,166.609z M248.629,29.191l21.813,80.715h-44.372L248.629,29.191z
		 M198.855,147.24c0-7.04,5.725-12.768,12.764-12.768h72.724c7.04,0,12.765,5.728,12.765,12.768v13.689h-98.253V147.24z
		 M331.186,454.551c0,4.773-3.881,8.656-8.67,8.656H173.428c-4.772,0-8.657-3.883-8.657-8.656V208.018
		c0-4.789,3.885-8.672,8.657-8.672h149.088c4.789,0,8.67,3.883,8.67,8.672V454.551z"/>
	<path d="M294.713,288.848h-93.463c-8.108,0-14.665,6.538-14.665,14.646v49.741c0,8.107,6.557,14.662,14.665,14.662h93.463
		c8.107,0,14.661-6.555,14.661-14.662v-49.741C309.373,295.386,302.82,288.848,294.713,288.848z"/>
</g>
<g>
</g>
<g>
</g>
<g>
</g>
<g>
</g>
<g>
</g>
<g>
</g>
<g>
</g>
<g>
</g>
<g>
</g>
<g>
</g>
<g>
</g>
<g>
</g>
<g>
</g>
<g>
</g>
<g>
</g>
</svg>
