<?xml version="1.0" encoding="iso-8859-1"?>
<!-- Generator: Adobe Illustrator 18.0.0, SVG Export Plug-In . SVG Version: 6.00 Build 0)  -->
<!DOCTYPE svg PUBLIC "-//W3C//DTD SVG 1.1//EN" "http://www.w3.org/Graphics/SVG/1.1/DTD/svg11.dtd">
<svg version="1.1" id="Capa_1" xmlns="http://www.w3.org/2000/svg" xmlns:xlink="http://www.w3.org/1999/xlink" x="0px" y="0px"
	 viewBox="0 0 484.996 484.996" style="enable-background:new 0 0 484.996 484.996;" xml:space="preserve">
<path d="M481.482,27.725c-3.314-3.3-8.225-4.388-12.568-2.807l-86.883,31.419c-1.656,0.594-3.158,1.547-4.407,2.797L233.823,202.928
	l-90.665-97.842c-2.094-2.259-5.002-3.531-8.051-3.727l-4.393-23.269c-1.921-10.316-9.753-18.672-19.928-21.289L21.744,33.907
	c-0.982-0.26-3.326-0.556-4.344-0.556c-4.645,0-9.02,1.815-12.351,5.137C0.768,42.8-0.971,49.154,0.531,55.104l22.887,89.032
	c2.594,10.16,10.927,17.982,21.244,19.938l22.187,4.988c0.082,3.239,1.469,6.306,3.841,8.509l97.837,90.651L63.436,373.306
	c-9.675,9.685-15.006,22.55-15.006,36.22c0,13.678,5.344,26.543,15.038,36.244c9.676,9.684,22.556,15.013,36.232,15.013
	c13.68,0,26.562-5.329,36.236-15.013l107.828-107.831l122.258,113.278c6.658,6.174,15.32,9.575,24.401,9.575
	c9.599,0,18.631-3.744,25.431-10.544c13.727-13.725,14.132-35.616,0.94-49.85L303.542,278.17l146.564-146.572
	c1.251-1.244,2.205-2.752,2.8-4.409l31.375-86.898C485.858,35.907,484.781,31.013,481.482,27.725z M82.557,146.746l-33.426-6.26
	c-1.187-0.228-2.156-1.127-2.451-2.306L30.486,75.176l25.884,25.878c-1.438,5.416-0.296,11.388,3.954,15.631
	c6.346,6.354,16.649,6.347,22.981,0c6.346-6.347,6.362-16.634,0-22.987c-4.236-4.244-10.193-5.385-15.6-3.954L41.799,63.848
	l63.014,16.212c1.176,0.297,2.081,1.257,2.301,2.462l6.205,32.857c0.189,1-0.143,2.025-0.875,2.766l-27.655,27.669
	C84.181,146.409,83.382,146.746,82.557,146.746z M80.443,428.794c-5.156-5.168-8.006-12.006-8.006-19.268
	c0-5.376,1.644-10.669,4.601-15.116l37.749,37.744C104.332,438.914,89.449,437.797,80.443,428.794z M132.169,415.585l-38.53-38.525
	l92.507-92.511l40.001,37.064L132.169,415.585z M399.193,416.716c4.381,4.731,4.238,12-0.313,16.556
	c-4.393,4.4-11.988,4.573-16.537,0.335L96.156,168.434l37.875-37.882L399.193,416.716z M287.209,260.545l-37.063-39.995
	L386.112,84.592l38.531,38.519L287.209,260.545z M436.744,101.264l-28.782-28.778l24.25-8.753l13.283,13.294L436.744,101.264z"/>
<g>
</g>
<g>
</g>
<g>
</g>
<g>
</g>
<g>
</g>
<g>
</g>
<g>
</g>
<g>
</g>
<g>
</g>
<g>
</g>
<g>
</g>
<g>
</g>
<g>
</g>
<g>
</g>
<g>
</g>
</svg>
