<?xml version="1.0" encoding="iso-8859-1"?>
<!-- Generator: Adobe Illustrator 18.0.0, SVG Export Plug-In . SVG Version: 6.00 Build 0)  -->
<!DOCTYPE svg PUBLIC "-//W3C//DTD SVG 1.1//EN" "http://www.w3.org/Graphics/SVG/1.1/DTD/svg11.dtd">
<svg version="1.1" id="Capa_1" xmlns="http://www.w3.org/2000/svg" xmlns:xlink="http://www.w3.org/1999/xlink" x="0px" y="0px"
	 viewBox="0 0 485.075 485.075" style="enable-background:new 0 0 485.075 485.075;" xml:space="preserve">
<g>
	<path d="M414.252,463.823l-4.701-70.348c-0.871-13.037-6.735-25.221-16.376-34.039c-20.956-19.168-35.664-64.244-35.664-116.904
		c0-42.937,9.796-80.824,24.772-103.762c6.008-9.204,8.878-20.119,8.143-31.085l-5.37-80.078C384.015,12.07,371.108,0,355.537,0
		h-34.88v314.473c0,28.014-22.71,50.724-50.724,50.724c-28.015,0-50.725-22.711-50.725-50.725V0h-89.673
		c-15.573,0-28.479,12.072-29.52,27.61l-5.358,80.086c-0.736,10.992,2.116,21.842,8.137,31.069
		c14.966,22.935,24.763,60.821,24.763,103.767c0,52.665-14.717,97.742-35.658,116.907c-9.63,8.813-15.494,20.999-16.366,34.024
		l-4.71,70.357c-0.368,5.503,1.562,10.912,5.329,14.94c3.767,4.028,9.036,6.314,14.551,6.314h303.669
		c5.515,0,10.783-2.286,14.55-6.314C412.69,474.734,414.62,469.325,414.252,463.823z"/>
	<path d="M269.93,249.294c20.94,0,37.869-16.954,37.869-37.871c0-20.915-16.929-37.868-37.869-37.868
		c-20.908,0-37.868,16.953-37.868,37.868C232.062,232.34,249.022,249.294,269.93,249.294z"/>
</g>
<g>
</g>
<g>
</g>
<g>
</g>
<g>
</g>
<g>
</g>
<g>
</g>
<g>
</g>
<g>
</g>
<g>
</g>
<g>
</g>
<g>
</g>
<g>
</g>
<g>
</g>
<g>
</g>
<g>
</g>
</svg>
