<?xml version="1.0" encoding="iso-8859-1"?>
<!-- Generator: Adobe Illustrator 18.0.0, SVG Export Plug-In . SVG Version: 6.00 Build 0)  -->
<!DOCTYPE svg PUBLIC "-//W3C//DTD SVG 1.1//EN" "http://www.w3.org/Graphics/SVG/1.1/DTD/svg11.dtd">
<svg version="1.1" id="Capa_1" xmlns="http://www.w3.org/2000/svg" xmlns:xlink="http://www.w3.org/1999/xlink" x="0px" y="0px"
	 viewBox="0 0 490.577 490.577" style="enable-background:new 0 0 490.577 490.577;" xml:space="preserve">
<g>
	<path d="M248.723,83.88c4.066-2.21,6.356-6.697,5.88-11.232c-0.532-4.631-3.735-8.494-8.096-9.727L33.906,0.469
		c-4.067-1.201-8.409-0.047-11.281,2.885c-2.968,2.951-4.085,7.309-2.886,11.297l62.499,212.492
		c1.234,4.439,5.126,7.627,9.727,8.156c4.517,0.479,8.959-1.809,11.218-5.816l51.745-93.844L248.723,83.88z"/>
	<g>
		<path d="M470.954,79.458c-0.945-3.124-3.077-5.737-5.959-7.293L363.843,17.906c-6.011-3.222-13.46-0.945-16.666,5.032
			L233.322,235.026c-1.54,2.87-1.876,6.251-0.933,9.375c0.356,1.186,1.045,2.212,1.717,3.238L116.611,466.395
			c-3.715,6.921-2,15.512,4.069,20.477c3.028,2.469,6.715,3.705,10.387,3.705c3.731,0,7.465-1.266,10.493-3.797l187.99-156.568
			c1.619-1.342,2.965-2.996,3.955-4.853l9.876-18.395c5.354,0.78,10.617-1.876,13.176-6.643l105.964-197.415
			C471.561,85.966,471.899,82.581,470.954,79.458z M306.104,307.043L185.519,407.454l75.411-140.409l51.711,27.788L306.104,307.043z
			"/>
	</g>
</g>
<g>
</g>
<g>
</g>
<g>
</g>
<g>
</g>
<g>
</g>
<g>
</g>
<g>
</g>
<g>
</g>
<g>
</g>
<g>
</g>
<g>
</g>
<g>
</g>
<g>
</g>
<g>
</g>
<g>
</g>
</svg>
