<?xml version="1.0" encoding="iso-8859-1"?>
<!-- Generator: Adobe Illustrator 18.0.0, SVG Export Plug-In . SVG Version: 6.00 Build 0)  -->
<!DOCTYPE svg PUBLIC "-//W3C//DTD SVG 1.1//EN" "http://www.w3.org/Graphics/SVG/1.1/DTD/svg11.dtd">
<svg version="1.1" id="Capa_1" xmlns="http://www.w3.org/2000/svg" xmlns:xlink="http://www.w3.org/1999/xlink" x="0px" y="0px"
	 viewBox="0 0 490.846 490.846" style="enable-background:new 0 0 490.846 490.846;" xml:space="preserve">
<path d="M471.381,19.456c-12.536-12.543-29.2-19.442-46.92-19.442l-1.863,0.022c-18.158,0.499-35.513,8.549-47.629,22.086
	L236.495,176.877c-15.555,17.394-17.806,42.042-7.585,61.773l-91.846,91.849H60.576c-8.388,0-15.843,5.35-18.54,13.295
	L1.026,465.006c-2.379,7.046-0.546,14.839,4.71,20.101c5.252,5.254,13.045,7.078,20.099,4.693l121.222-40.992
	c7.937-2.692,13.286-10.146,13.286-18.535V353.75l91.831-91.831c7.745,4.025,16.264,6.394,25.23,6.394
	c13.497,0,26.479-4.963,36.569-13.98l154.772-138.485c13.529-12.106,21.579-29.46,22.075-47.609
	C491.322,50.091,484.232,32.302,471.381,19.456z M446.793,91.33L292.025,229.806c-8.389,7.528-22.206,7.124-30.161-0.835
	c-8.245-8.235-8.597-21.478-0.853-30.146L399.489,44.071c6.105-6.827,14.865-10.886,24.972-11.15c8.935,0,17.337,3.479,23.649,9.8
	c6.495,6.485,10.059,15.458,9.82,24.618C457.673,76.482,453.625,85.222,446.793,91.33z"/>
<g>
</g>
<g>
</g>
<g>
</g>
<g>
</g>
<g>
</g>
<g>
</g>
<g>
</g>
<g>
</g>
<g>
</g>
<g>
</g>
<g>
</g>
<g>
</g>
<g>
</g>
<g>
</g>
<g>
</g>
</svg>
