<?xml version="1.0" encoding="iso-8859-1"?>
<!-- Generator: Adobe Illustrator 18.0.0, SVG Export Plug-In . SVG Version: 6.00 Build 0)  -->
<!DOCTYPE svg PUBLIC "-//W3C//DTD SVG 1.1//EN" "http://www.w3.org/Graphics/SVG/1.1/DTD/svg11.dtd">
<svg version="1.1" id="Capa_1" xmlns="http://www.w3.org/2000/svg" xmlns:xlink="http://www.w3.org/1999/xlink" x="0px" y="0px"
	 viewBox="0 0 493.947 493.947" style="enable-background:new 0 0 493.947 493.947;" xml:space="preserve">
<g>
	<path d="M115.178,198.344v265.238c0,16.772,41.469,30.365,92.613,30.365c51.148,0,92.617-13.593,92.617-30.365V198.344
		c-20.196,13.829-56.479,20.292-92.617,20.292C171.653,218.635,135.374,212.173,115.178,198.344z M263.037,342.625
		c0,35.221-24.737,63.774-55.246,63.774c-30.506,0-55.242-28.553-55.242-63.774c0-35.219,24.736-63.775,55.242-63.775
		C238.3,278.85,263.037,307.406,263.037,342.625z"/>
	<path d="M283.785,154.747l-23.124-24.134l-8.84-9.213h-88.06l-8.84,9.213l-23.119,24.134
		c-10.458,4.912-16.624,10.882-16.624,17.326c0,16.773,41.469,30.365,92.613,30.365c51.148,0,92.617-13.592,92.617-30.365
		C300.408,165.629,294.237,159.66,283.785,154.747z"/>
	<path d="M241.196,75.822c-5.267-0.269-9.491-6.421-9.491-14.076c0-7.655,4.224-13.807,9.491-14.076V29.673
		c0-2.466-1.283-4.768-3.37-6.08c-2.087-1.315-4.712-1.448-6.93-0.373l-52.459,25.43c-2.48,1.204-4.047,3.709-4.047,6.453v45.106
		h66.806V75.822z"/>
	<path d="M370.674,53.648H276.62c-4.477,0-8.1,3.623-8.1,8.098c0,4.477,3.623,8.097,8.1,8.097h94.054
		c4.477,0,8.095-3.621,8.095-8.097C378.769,57.271,375.151,53.648,370.674,53.648z"/>
	<path d="M276.62,37.454c0.872,0,1.757-0.142,2.643-0.442l61.661-21.256c4.224-1.455,6.469-6.065,5.014-10.295
		c-1.454-4.224-6.07-6.478-10.295-5.014l-61.664,21.256c-4.219,1.455-6.469,6.064-5.014,10.295
		C270.12,35.351,273.25,37.454,276.62,37.454z"/>
	<path d="M340.341,102.503l-61.665-16.194c-4.318-1.124-8.746,1.445-9.884,5.771c-1.138,4.326,1.454,8.755,5.773,9.887
		l61.665,16.194c0.696,0.18,1.391,0.269,2.055,0.269c3.605,0,6.88-2.403,7.829-6.042
		C347.252,108.061,344.673,103.632,340.341,102.503z"/>
</g>
<g>
</g>
<g>
</g>
<g>
</g>
<g>
</g>
<g>
</g>
<g>
</g>
<g>
</g>
<g>
</g>
<g>
</g>
<g>
</g>
<g>
</g>
<g>
</g>
<g>
</g>
<g>
</g>
<g>
</g>
</svg>
