<?xml version="1.0" encoding="iso-8859-1"?>
<!-- Generator: Adobe Illustrator 18.0.0, SVG Export Plug-In . SVG Version: 6.00 Build 0)  -->
<!DOCTYPE svg PUBLIC "-//W3C//DTD SVG 1.1//EN" "http://www.w3.org/Graphics/SVG/1.1/DTD/svg11.dtd">
<svg version="1.1" id="Capa_1" xmlns="http://www.w3.org/2000/svg" xmlns:xlink="http://www.w3.org/1999/xlink" x="0px" y="0px"
	 viewBox="0 0 489.676 489.676" style="enable-background:new 0 0 489.676 489.676;" xml:space="preserve">
<g>
	<path d="M17.346,125.063h90.378c9.579,0,17.342-7.759,17.342-17.34V17.344c0-9.578-7.763-17.342-17.342-17.342H17.346
		C7.762,0.002,0,7.766,0,17.344v90.379C0,117.304,7.762,125.063,17.346,125.063z"/>
	<path d="M260.427,125.063h90.378c9.566,0,17.341-7.759,17.341-17.34V17.344c0-9.578-7.775-17.342-17.341-17.342h-90.378
		c-9.597,0-17.341,7.764-17.341,17.342v90.379C243.085,117.304,250.83,125.063,260.427,125.063z"/>
	<path d="M121.525,229.263c0,9.583,7.78,17.345,17.346,17.345h90.379c9.597,0,17.341-7.762,17.341-17.345v-90.378
		c0-9.58-7.744-17.344-17.341-17.344h-90.379c-9.565,0-17.346,7.764-17.346,17.344V229.263z"/>
	<path d="M472.33,121.542h-90.378c-9.579,0-17.342,7.764-17.342,17.344v90.378c0,9.583,7.763,17.345,17.342,17.345h90.378
		c9.584,0,17.346-7.762,17.346-17.345v-90.378C489.676,129.305,481.914,121.542,472.33,121.542z"/>
	<path d="M125.066,260.413c0-9.582-7.763-17.344-17.342-17.344H17.346C7.762,243.069,0,250.831,0,260.413v90.378
		c0,9.58,7.762,17.343,17.346,17.343h90.378c9.579,0,17.342-7.763,17.342-17.343V260.413z"/>
	<path d="M368.146,260.413c0-9.582-7.775-17.344-17.341-17.344h-90.378c-9.597,0-17.341,7.762-17.341,17.344v90.378
		c0,9.58,7.745,17.343,17.341,17.343h90.378c9.566,0,17.341-7.763,17.341-17.343V260.413z"/>
	<path d="M229.249,364.609h-90.379c-9.565,0-17.346,7.763-17.346,17.348v90.378c0,9.576,7.78,17.339,17.346,17.339h90.379
		c9.597,0,17.341-7.763,17.341-17.339v-90.378C246.59,372.372,238.847,364.609,229.249,364.609z"/>
	<path d="M472.33,364.609h-90.378c-9.579,0-17.342,7.763-17.342,17.348v90.378c0,9.576,7.763,17.339,17.342,17.339h90.378
		c9.584,0,17.346-7.763,17.346-17.339v-90.378C489.676,372.372,481.914,364.609,472.33,364.609z"/>
</g>
<g>
</g>
<g>
</g>
<g>
</g>
<g>
</g>
<g>
</g>
<g>
</g>
<g>
</g>
<g>
</g>
<g>
</g>
<g>
</g>
<g>
</g>
<g>
</g>
<g>
</g>
<g>
</g>
<g>
</g>
</svg>
