<?xml version="1.0" encoding="iso-8859-1"?>
<!-- Generator: Adobe Illustrator 18.0.0, SVG Export Plug-In . SVG Version: 6.00 Build 0)  -->
<!DOCTYPE svg PUBLIC "-//W3C//DTD SVG 1.1//EN" "http://www.w3.org/Graphics/SVG/1.1/DTD/svg11.dtd">
<svg version="1.1" id="Capa_1" xmlns="http://www.w3.org/2000/svg" xmlns:xlink="http://www.w3.org/1999/xlink" x="0px" y="0px"
	 viewBox="0 0 493.65 493.65" style="enable-background:new 0 0 493.65 493.65;" xml:space="preserve">
<g>
	<path d="M468.881,377.431h-41.113V116.204h39.818c13.678,0,24.775-11.096,24.775-24.773c0-13.676-11.098-24.773-24.775-24.773
		h-39.818V25.272c0-13.676-11.094-24.771-24.771-24.771c-13.676,0-24.773,11.096-24.773,24.771v41.385H115.432V25.563
		c0-13.678-11.096-24.773-24.773-24.773c-13.678,0-24.775,11.096-24.775,24.773v41.094H24.773C11.098,66.657,0,77.755,0,91.431
		c0,13.678,11.098,24.773,24.773,24.773h41.109v261.227H26.064c-13.678,0-24.775,11.096-24.775,24.773
		c0,13.676,11.098,24.771,24.775,24.771h39.818v41.402c0,13.678,11.098,24.772,24.775,24.772c13.678,0,24.773-11.094,24.773-24.772
		v-41.402h262.791v41.111c0,13.678,11.098,24.773,24.773,24.773c13.678,0,24.771-11.096,24.771-24.773v-41.111h41.113
		c13.672,0,24.77-11.096,24.77-24.771C493.65,388.526,482.553,377.431,468.881,377.431z M115.432,377.431V116.204h262.791v261.227
		H115.432z"/>
	<rect x="152.248" y="156.169" width="187.863" height="181.57"/>
</g>
<g>
</g>
<g>
</g>
<g>
</g>
<g>
</g>
<g>
</g>
<g>
</g>
<g>
</g>
<g>
</g>
<g>
</g>
<g>
</g>
<g>
</g>
<g>
</g>
<g>
</g>
<g>
</g>
<g>
</g>
</svg>
