<?xml version="1.0" encoding="iso-8859-1"?>
<!-- Generator: Adobe Illustrator 18.0.0, SVG Export Plug-In . SVG Version: 6.00 Build 0)  -->
<!DOCTYPE svg PUBLIC "-//W3C//DTD SVG 1.1//EN" "http://www.w3.org/Graphics/SVG/1.1/DTD/svg11.dtd">
<svg version="1.1" id="Capa_1" xmlns="http://www.w3.org/2000/svg" xmlns:xlink="http://www.w3.org/1999/xlink" x="0px" y="0px"
	 viewBox="0 0 493.589 493.589" style="enable-background:new 0 0 493.589 493.589;" xml:space="preserve">
<path d="M402.476,0H91.115C40.874,0,0.001,40.871,0.001,91.112v311.364c0,50.242,40.873,91.112,91.114,91.112h311.36
	c50.244,0,91.112-40.87,91.112-91.112V91.112C493.588,40.871,452.72,0,402.476,0z M261.948,48.797h140.527
	c23.336,0,42.316,18.98,42.316,42.315v139.956H261.948V48.797z M91.115,48.797h138.302v181.189H48.802V91.112
	C48.802,67.777,67.782,48.797,91.115,48.797z M402.476,444.793H261.57V263.6h183.222v138.877
	C444.792,425.811,425.811,444.793,402.476,444.793z"/>
<g>
</g>
<g>
</g>
<g>
</g>
<g>
</g>
<g>
</g>
<g>
</g>
<g>
</g>
<g>
</g>
<g>
</g>
<g>
</g>
<g>
</g>
<g>
</g>
<g>
</g>
<g>
</g>
<g>
</g>
</svg>
