<?xml version="1.0" encoding="iso-8859-1"?>
<!-- Generator: Adobe Illustrator 18.0.0, SVG Export Plug-In . SVG Version: 6.00 Build 0)  -->
<!DOCTYPE svg PUBLIC "-//W3C//DTD SVG 1.1//EN" "http://www.w3.org/Graphics/SVG/1.1/DTD/svg11.dtd">
<svg version="1.1" id="Capa_1" xmlns="http://www.w3.org/2000/svg" xmlns:xlink="http://www.w3.org/1999/xlink" x="0px" y="0px"
	 viewBox="0 0 495.194 495.194" style="enable-background:new 0 0 495.194 495.194;" xml:space="preserve">
<path d="M437.878,27.687C437.878,12.394,425.484,0,410.193,0H84.983C69.685,0,57.296,12.394,57.296,27.687l0.031,145.461
	c0,4.6,3.228,8.556,7.727,9.474c4.506,0.921,9.023-1.451,10.828-5.664l35.502-82.937h78.896v161.838H94.857
	c-13.682,0-24.782,11.101-24.782,24.784c0,13.683,11.101,24.783,24.782,24.783h95.424v133.566c0,31.031,25.17,56.202,56.201,56.202
	c31.044,0,56.2-25.154,56.2-56.202V305.426h97.681c13.688,0,24.787-11.101,24.787-24.783c0-13.684-11.1-24.784-24.787-24.784
	h-97.681V94.021h81.173l35.487,82.937c1.807,4.213,6.325,6.585,10.81,5.664c4.517-0.918,7.746-4.891,7.746-9.474L437.878,27.687z"/>
<g>
</g>
<g>
</g>
<g>
</g>
<g>
</g>
<g>
</g>
<g>
</g>
<g>
</g>
<g>
</g>
<g>
</g>
<g>
</g>
<g>
</g>
<g>
</g>
<g>
</g>
<g>
</g>
<g>
</g>
</svg>
