<?xml version="1.0" encoding="iso-8859-1"?>
<!-- Generator: Adobe Illustrator 18.0.0, SVG Export Plug-In . SVG Version: 6.00 Build 0)  -->
<!DOCTYPE svg PUBLIC "-//W3C//DTD SVG 1.1//EN" "http://www.w3.org/Graphics/SVG/1.1/DTD/svg11.dtd">
<svg version="1.1" id="Capa_1" xmlns="http://www.w3.org/2000/svg" xmlns:xlink="http://www.w3.org/1999/xlink" x="0px" y="0px"
	 viewBox="0 0 491.465 491.465" style="enable-background:new 0 0 491.465 491.465;" xml:space="preserve">
<path d="M491.465,65.536c0-11.911-4.639-23.101-13.063-31.525c-16.818-16.854-46.235-16.854-63.054,0L217.141,232.22
	c0,0.008-0.02,0.016-0.02,0.025l-95.761,95.769c-2.301,2.302-3.598,5.429-3.598,8.682c0,1.177,0.351,2.288,0.67,3.39L2.398,456.121
	c-2.764,2.774-3.197,7.113-0.992,10.368c1.553,2.309,4.13,3.604,6.782,3.604c1.069,0,2.155-0.207,3.196-0.654l144.797-61.528
	c0.975-0.406,1.853-0.997,2.588-1.742l12.393-12.396c1.472,0.583,3.019,0.887,4.571,0.887c3.151,0,6.284-1.201,8.681-3.598
	l95.779-95.796l0.019-0.023l198.19-198.179C486.826,88.638,491.465,77.449,491.465,65.536z M147.466,336.631l11.48-11.487
	l-0.05,11.503L147.466,336.631z M225.759,258.335l0.03,12.565l-12.452-0.136L225.759,258.335z M225.822,287.271l0.03,16.195h-16.899
	V287.09L225.822,287.271z M192.582,291.51v11.949h-11.939L192.582,291.51z M175.349,319.83h17.253v16.881l-17.33-0.031
	L175.349,319.83z M208.971,331.779v-11.941h11.941L208.971,331.779z M242.211,298.518l-0.02-11.063l10.968,0.127L242.211,298.518z
	 M148.316,393.468L43.792,437.887l82.778-82.782l30.044,30.065L148.316,393.468z M175.733,365.019l-0.608-0.609l0.064-11.359
	l12.485,0.016L175.733,365.019z M461.04,79.702L271.513,269.223l-22.909-22.903l-5.421-5.421L432.71,51.372
	c7.581-7.577,20.754-7.577,28.33,0c3.791,3.791,5.868,8.817,5.868,14.165S464.831,75.912,461.04,79.702z"/>
<g>
</g>
<g>
</g>
<g>
</g>
<g>
</g>
<g>
</g>
<g>
</g>
<g>
</g>
<g>
</g>
<g>
</g>
<g>
</g>
<g>
</g>
<g>
</g>
<g>
</g>
<g>
</g>
<g>
</g>
</svg>
