<?xml version="1.0" encoding="iso-8859-1"?>
<!-- Generator: Adobe Illustrator 18.0.0, SVG Export Plug-In . SVG Version: 6.00 Build 0)  -->
<!DOCTYPE svg PUBLIC "-//W3C//DTD SVG 1.1//EN" "http://www.w3.org/Graphics/SVG/1.1/DTD/svg11.dtd">
<svg version="1.1" id="Capa_1" xmlns="http://www.w3.org/2000/svg" xmlns:xlink="http://www.w3.org/1999/xlink" x="0px" y="0px"
	 viewBox="0 0 471.319 471.319" style="enable-background:new 0 0 471.319 471.319;" xml:space="preserve">
<g>
	<path d="M256.599,300.421c0-7.043,5.713-12.756,12.76-12.756l14.533,0.001c-4.573-17.271-18.192-30.895-35.463-35.469v14.553
		c0,7.043-5.717,12.758-12.758,12.758c-7.047,0-12.76-5.715-12.76-12.758v-14.552c-17.275,4.574-30.906,18.2-35.482,35.474h14.567
		c7.045,0,12.758,5.715,12.758,12.759c0,7.043-5.713,12.756-12.758,12.756H187.43c4.575,17.274,18.206,30.902,35.482,35.477v-14.552
		c0-7.043,5.713-12.759,12.76-12.759c7.041,0,12.758,5.715,12.758,12.759v14.552c17.274-4.574,30.896-18.205,35.467-35.481
		l-14.537-0.002C262.312,313.18,256.599,307.465,256.599,300.421z"/>
	<path d="M323.178,132.262c-29.47,0-53.455-23.98-53.455-53.449V0H95.11C80.177,0,68.072,12.106,68.072,27.038v417.244
		c0,14.932,12.105,27.038,27.038,27.038h281.099c14.934,0,27.039-12.105,27.039-27.038V132.262H323.178z M327.302,313.187
		l-17.333-0.002c-5.369,31.372-30.169,56.181-61.54,61.553v17.314c0,7.043-5.717,12.759-12.758,12.759
		c-7.047,0-12.76-5.715-12.76-12.759v-17.315c-31.373-5.372-56.185-30.18-61.557-61.551h-17.3c-7.043,0-12.754-5.713-12.754-12.756
		c0-7.044,5.711-12.759,12.754-12.759h17.301c5.372-31.372,30.183-56.176,61.556-61.548v-17.317c0-7.041,5.713-12.756,12.76-12.756
		c7.041,0,12.758,5.715,12.758,12.756v17.316c31.369,5.372,56.168,30.176,61.539,61.547l17.334,0.002
		c7.041,0,12.754,5.715,12.754,12.759C340.056,307.474,334.343,313.187,327.302,313.187z"/>
	<path d="M323.178,106.745h73.392L295.241,6.477v72.336C295.241,94.212,307.782,106.745,323.178,106.745z"/>
</g>
<g>
</g>
<g>
</g>
<g>
</g>
<g>
</g>
<g>
</g>
<g>
</g>
<g>
</g>
<g>
</g>
<g>
</g>
<g>
</g>
<g>
</g>
<g>
</g>
<g>
</g>
<g>
</g>
<g>
</g>
</svg>
