<?xml version="1.0" encoding="iso-8859-1"?>
<!-- Generator: Adobe Illustrator 18.0.0, SVG Export Plug-In . SVG Version: 6.00 Build 0)  -->
<!DOCTYPE svg PUBLIC "-//W3C//DTD SVG 1.1//EN" "http://www.w3.org/Graphics/SVG/1.1/DTD/svg11.dtd">
<svg version="1.1" id="Capa_1" xmlns="http://www.w3.org/2000/svg" xmlns:xlink="http://www.w3.org/1999/xlink" x="0px" y="0px"
	 viewBox="0 0 492.677 492.677" style="enable-background:new 0 0 492.677 492.677;" xml:space="preserve">
<g>
	<path d="M246.316,82.71l34.34-0.015v164.849h24.582V74.501c0-1.809-0.418-3.584-1.186-5.215L274.574,6.487
		c-4.049-8.658-18.21-8.641-22.242,0l-29.446,62.799c-0.768,1.631-1.154,3.406-1.154,5.215l-0.015,173.043h24.579L246.316,82.71z
		 M263.47,40.638l12.048,25.667l-24.084,0.018L263.47,40.638z"/>
	<path d="M141.031,247.544h22.097l-14.178-46.185l25.19-6.706l11.904,52.891h25.19l-21.396-95.029
		c-0.719-3.248-2.768-6.08-5.618-7.805c-2.844-1.717-6.305-2.195-9.519-1.363l-51.692,13.73c-3.232,0.849-5.968,2.994-7.6,5.906
		c-1.618,2.928-1.986,6.383-0.993,9.57l23.109,75.344C138.707,247.813,139.83,247.544,141.031,247.544z"/>
	<path d="M174.202,129.632c2.53-0.671,4.417-2.768,4.835-5.361c0,0,15.803-99.789,16.116-102.451
		c0.55-4.672-14.39-5.332-33.531-2.945l0.48,24.293l0.355,16.531c0,0.385-0.287,0.718-0.674,0.769
		c-0.382,0.063-0.751-0.192-0.831-0.577l-3.631-14.912l-5.986-24.582c-10.741,1.758-22.647,4.256-35.288,7.617
		c-1.438,0.384-2.751,0.801-4.162,1.184l4.93,28.102l6.674,37.959c0.063,0.385-0.162,0.752-0.53,0.864
		c-0.35,0.112-0.768-0.046-0.926-0.4L105.23,60.032L93.356,34.798C63.43,44.653,42.658,55.695,44.289,61.874l0.018,0.017h-0.018
		l64.846,80.943c1.631,2.05,4.319,2.929,6.849,2.26L174.202,129.632z"/>
	<path d="M435.757,55.727c-12.48-22.324-33.071-40.339-52.243-44.803c-2.019-0.479-4.478-1.046-6.136-0.675
		c-4.342,0.972-12.278,5.784-15.361,8.993c-7.311,7.609,0.481,17.411,3.075,21.3c5.55,8.288,9.248,15.476,2.4,26.164
		c-1.668,2.609-6.305,4.835-11.654,7.394c-9.919,4.771-23.522,11.298-31.365,27.51c-7.28,15.058-7.649,30.979-1.024,44.873
		c2.818,5.89,7.154,10.943,12.161,15.539c-1.313,0.32-2.607,0.738-3.775,1.49c-2.786,1.807-4.737,4.686-5.375,7.967l-14.692,76.064
		h25.028l5.537-28.615l33.221,7.746l-5.712,20.869h12.049c4.485,0,8.805,0.654,12.998,1.648l15.873-58.062
		c0.899-3.231,0.417-6.673-1.281-9.539c-1.312-2.174-3.357-3.679-5.649-4.702c17.878-6.815,32.649-22.103,39.418-42.328
		C454.547,100.683,445.425,72.996,435.757,55.727z M412.172,124.173c-5.573,16.615-20.534,26.6-35.306,23.176
		c-12.099-2.834-20.56-8.145-23.828-14.995c-2.894-6.032-1.07-12.293,0.944-16.485c2.723-5.615,7.617-8.176,16.035-12.211
		c3.568-1.713,7.523-3.71,11.396-6.176c2.657,1.874,5.425,4.863,8.05,10.002c5.055,9.874,14.915,13.761,24.147,11.281
		C413.16,120.558,412.778,122.335,412.172,124.173z"/>
	<path d="M381.89,280.319H141.031c-13.172,0-23.846,10.672-23.846,23.842V380.1c0,62.168,50.393,112.576,112.583,112.576h63.372
		c62.185,0,112.596-50.408,112.596-112.576v-75.939C405.736,290.991,395.049,280.319,381.89,280.319z"/>
</g>
<g>
</g>
<g>
</g>
<g>
</g>
<g>
</g>
<g>
</g>
<g>
</g>
<g>
</g>
<g>
</g>
<g>
</g>
<g>
</g>
<g>
</g>
<g>
</g>
<g>
</g>
<g>
</g>
<g>
</g>
</svg>
