<?xml version="1.0" encoding="iso-8859-1"?>
<!-- Generator: Adobe Illustrator 18.0.0, SVG Export Plug-In . SVG Version: 6.00 Build 0)  -->
<!DOCTYPE svg PUBLIC "-//W3C//DTD SVG 1.1//EN" "http://www.w3.org/Graphics/SVG/1.1/DTD/svg11.dtd">
<svg version="1.1" id="Capa_1" xmlns="http://www.w3.org/2000/svg" xmlns:xlink="http://www.w3.org/1999/xlink" x="0px" y="0px"
	 viewBox="0 0 491.795 491.795" style="enable-background:new 0 0 491.795 491.795;" xml:space="preserve">
<g>
	<path d="M230.741,219.75H70.604c-14.047,0-25.437,11.39-25.437,25.447c0,11.689,7.97,21.867,19.312,24.675l14.255,3.538
		c27.205,6.721,44.54,33.389,39.652,60.985l-17.398,98.151c-2.598,14.689,1.428,29.786,11.004,41.213
		c9.593,11.429,23.744,18.035,38.666,18.035c14.932,0,29.086-6.607,38.664-18.035c9.591-11.427,13.613-26.508,11.022-41.197
		l-17.387-98.167c-4.868-27.58,12.448-54.231,39.64-60.972l14.267-3.535c11.347-2.806,19.312-13.003,19.312-24.707
		C256.176,231.14,244.782,219.75,230.741,219.75z"/>
	<path d="M410.998,219.75h-63.319c-19.282,0-34.917,15.629-34.917,34.93c0,10.974,5.228,21.245,14.09,27.741
		c15.86,11.62,24.574,31.473,20.941,51.975l-17.401,98.151c-2.598,14.689,1.428,29.786,11.006,41.213
		c9.593,11.429,23.745,18.035,38.664,18.035c14.932,0,29.086-6.607,38.662-18.035c9.593-11.427,13.618-26.508,11.024-41.197
		l-17.384-98.167c-3.59-20.308,4.951-39.98,20.534-51.653c8.634-6.443,13.73-16.603,13.73-27.367
		C446.628,235.701,430.673,219.75,410.998,219.75z"/>
	<path d="M237.044,13.327C237.011,5.975,231.084,0.017,223.698,0h-20.274l0.019,0.017l-6.459,59.346
		c-0.113,1.038-0.992,1.799-2.014,1.784c-1.039,0-1.883-0.797-1.981-1.836L188.147,0l-66.496,0.017l-10.242,80.526
		c-0.132,1.008-1.007,1.754-2.016,1.754c-1.021-0.018-1.865-0.799-1.979-1.804L99.038,0.017H77.675
		c-7.37,0.015-13.322,5.989-13.322,13.327v114.402h172.671L237.044,13.327z"/>
	<rect x="64.353" y="144.367" width="172.658" height="41.02"/>
	<polygon points="430.039,144.336 335.376,144.351 335.376,185.387 430.039,185.387 	"/>
	<path d="M430.039,21.135C430.039,9.465,420.576,0,408.906,0h-2.438l-6.148,56.551c-0.116,1.041-0.99,1.805-2.016,1.788
		c-1.04,0-1.884-0.811-1.978-1.834L391.718,0h-35.211c-11.668,0-21.131,9.465-21.131,21.135v106.592l94.663-0.014V21.135z"/>
</g>
<g>
</g>
<g>
</g>
<g>
</g>
<g>
</g>
<g>
</g>
<g>
</g>
<g>
</g>
<g>
</g>
<g>
</g>
<g>
</g>
<g>
</g>
<g>
</g>
<g>
</g>
<g>
</g>
<g>
</g>
</svg>
