<?xml version="1.0" encoding="iso-8859-1"?>
<!-- Generator: Adobe Illustrator 18.0.0, SVG Export Plug-In . SVG Version: 6.00 Build 0)  -->
<!DOCTYPE svg PUBLIC "-//W3C//DTD SVG 1.1//EN" "http://www.w3.org/Graphics/SVG/1.1/DTD/svg11.dtd">
<svg version="1.1" id="Capa_1" xmlns="http://www.w3.org/2000/svg" xmlns:xlink="http://www.w3.org/1999/xlink" x="0px" y="0px"
	 viewBox="0 0 482.813 482.813" style="enable-background:new 0 0 482.813 482.813;" xml:space="preserve">
<g>
	<path d="M153.668,357.985c8.163,0,14.799-6.632,14.799-14.802V147.648c0-8.174-6.636-14.802-14.799-14.802h-44.074
		c-8.167,0-14.804,6.627-14.804,14.802v195.535c0,8.17,6.637,14.802,14.804,14.802H153.668z"/>
	<path d="M263.441,357.985c8.167,0,14.786-6.632,14.786-14.802v-195.52c0-8.174-6.619-14.802-14.786-14.802h-44.074
		c-8.163,0-14.799,6.628-14.799,14.802v195.52c0,8.17,6.636,14.802,14.799,14.802H263.441z"/>
	<path d="M373.218,357.985c8.163,0,14.786-6.632,14.786-14.802V147.648c0-8.174-6.623-14.802-14.786-14.802h-44.074
		c-8.181,0-14.817,6.627-14.817,14.802v195.535c0,8.17,6.636,14.802,14.817,14.802H373.218z"/>
	<path d="M79.69,105.645h323.383c3.328,0,6.227-2.239,7.06-5.446c0.851-3.209-0.568-6.58-3.467-8.212L245.963,1.208
		c-2.855-1.611-6.322-1.611-9.163,0L76.115,91.987c-2.904,1.632-4.322,5.003-3.485,8.212
		C73.463,103.407,76.367,105.645,79.69,105.645z"/>
	<path d="M74.616,395.869c0,11.146,9.032,20.177,20.175,20.177h293.213c11.162,0,20.175-9.031,20.175-20.177
		c0-11.144-9.014-20.175-20.175-20.175H94.791C83.648,375.694,74.616,384.725,74.616,395.869z"/>
	<path d="M419.372,434.387H63.441c-13.385,0-24.214,10.837-24.214,24.211c0,13.376,10.829,24.215,24.214,24.215h355.931
		c13.368,0,24.214-10.839,24.214-24.215C443.586,445.224,432.74,434.387,419.372,434.387z"/>
</g>
<g>
</g>
<g>
</g>
<g>
</g>
<g>
</g>
<g>
</g>
<g>
</g>
<g>
</g>
<g>
</g>
<g>
</g>
<g>
</g>
<g>
</g>
<g>
</g>
<g>
</g>
<g>
</g>
<g>
</g>
</svg>
