<?xml version="1.0" encoding="iso-8859-1"?>
<!-- Generator: Adobe Illustrator 18.0.0, SVG Export Plug-In . SVG Version: 6.00 Build 0)  -->
<!DOCTYPE svg PUBLIC "-//W3C//DTD SVG 1.1//EN" "http://www.w3.org/Graphics/SVG/1.1/DTD/svg11.dtd">
<svg version="1.1" id="Capa_1" xmlns="http://www.w3.org/2000/svg" xmlns:xlink="http://www.w3.org/1999/xlink" x="0px" y="0px"
	 viewBox="0 0 485.677 485.677" style="enable-background:new 0 0 485.677 485.677;" xml:space="preserve">
<g>
	<path d="M337.888,252.735l-20.506-22.146c-1.458-1.567-3.468-2.486-5.6-2.585l-4.449-17.893
		c-1.363-7.431-7.011-13.448-14.355-15.343l-61.095-15.714l24.196-24.197l1.427,1.427c1.381,1.395,3.265,2.172,5.234,2.172
		c1.967,0,3.851-0.777,5.231-2.172l14.317-14.31c1.381-1.397,2.174-3.275,2.174-5.243c-0.014-1.966-0.793-3.845-2.174-5.231
		l-14.335-14.319c-2.884-2.887-7.577-2.887-10.462,0.007l-14.305,14.313c-2.884,2.885-2.884,7.58,0,10.465l1.41,1.411
		l-67.866,67.884l-1.413-1.417c-2.887-2.888-7.578-2.895-10.468,0L150.52,224.16c-1.381,1.386-2.161,3.265-2.161,5.231
		c0,1.968,0.78,3.845,2.161,5.243l14.331,14.319c2.89,2.885,7.581,2.885,10.468,0l14.321-14.328c2.885-2.885,2.885-7.58,0-10.465
		l-1.427-1.42l24.213-24.213l15.68,61.088c1.871,7.294,7.881,12.925,15.336,14.36l17.938,4.523c0.116,2.103,1.031,4.086,2.581,5.522
		l22.14,20.52c1.553,1.443,3.531,2.163,5.515,2.163c2.08,0,4.153-0.793,5.74-2.378l40.31-40.333
		C340.758,260.908,340.854,255.937,337.888,252.735z M271.859,262.763l-25.373-4.733c-1.317-0.253-2.331-1.195-2.648-2.457
		l-11.624-45.218l19.409,19.394c-0.19,3.361,0.887,6.771,3.46,9.349c4.801,4.803,12.586,4.788,17.359,0
		c4.807-4.796,4.807-12.569,0-17.372c-2.548-2.577-5.978-3.655-9.338-3.458l-19.408-19.408l45.225,11.638
		c1.268,0.317,2.221,1.333,2.46,2.602l4.675,24.856c0.207,1.037-0.141,2.156-0.903,2.917l-20.933,20.916
		C273.603,262.423,272.762,262.763,271.859,262.763z M291.395,287.318l-10.214-9.475l30.02-30.025l9.466,10.221L291.395,287.318z"/>
	<path d="M69.646,342.969H416.03c8.977,0,16.242-7.27,16.242-16.237V88.579c0-8.965-7.266-16.237-16.242-16.237H69.646
		c-8.975,0-16.236,7.272-16.236,16.237v238.153C53.409,335.699,60.671,342.969,69.646,342.969z M85.884,104.819h313.908v205.675
		H85.884V104.819z"/>
	<path d="M461.323,364.623H24.359C10.911,364.623,0,375.525,0,388.98c0,13.454,10.911,24.355,24.359,24.355h436.964
		c13.442,0,24.353-10.902,24.353-24.355C485.677,375.525,474.766,364.623,461.323,364.623z"/>
</g>
<g>
</g>
<g>
</g>
<g>
</g>
<g>
</g>
<g>
</g>
<g>
</g>
<g>
</g>
<g>
</g>
<g>
</g>
<g>
</g>
<g>
</g>
<g>
</g>
<g>
</g>
<g>
</g>
<g>
</g>
</svg>
