<?xml version="1.0" encoding="iso-8859-1"?>
<!-- Generator: Adobe Illustrator 18.0.0, SVG Export Plug-In . SVG Version: 6.00 Build 0)  -->
<!DOCTYPE svg PUBLIC "-//W3C//DTD SVG 1.1//EN" "http://www.w3.org/Graphics/SVG/1.1/DTD/svg11.dtd">
<svg version="1.1" id="Capa_1" xmlns="http://www.w3.org/2000/svg" xmlns:xlink="http://www.w3.org/1999/xlink" x="0px" y="0px"
	 viewBox="0 0 494.408 494.408" style="enable-background:new 0 0 494.408 494.408;" xml:space="preserve">
<path d="M470.853,311.103l-23.944-256.96c-2.604-27.942-24.654-50.167-52.583-52.903c-64.832-6.351-179.346,10.055-273.172,87.505
	C4.417,185.095-6.003,350.822,79.027,437.874c85.029,87.054,241.728,71.885,350.017-33.877c0.001-0.001,8.987-9.872,19.371-22.04
	C465.155,362.337,473.246,336.782,470.853,311.103z M173.897,114.713c24.774,0,44.85,20.078,44.85,44.859
	c0,24.772-20.076,44.853-44.85,44.853s-44.869-20.081-44.869-44.853C129.028,134.791,149.123,114.713,173.897,114.713z
	 M117.544,336.547c-24.774,0-44.836-20.08-44.836-44.852c0-24.781,20.062-44.861,44.836-44.861c24.788,0,44.869,20.08,44.869,44.861
	C162.413,316.467,142.332,336.547,117.544,336.547z M195.603,444.451c-24.77,0-44.85-20.078-44.85-44.853
	c0-24.779,20.08-44.859,44.85-44.859c24.774,0,44.869,20.081,44.869,44.859C240.472,424.373,220.377,444.451,195.603,444.451z
	 M259.778,82.504c0-24.779,20.081-44.859,44.855-44.859c24.77,0,44.868,20.08,44.868,44.859c0,24.774-20.099,44.853-44.868,44.853
	C279.859,127.356,259.778,107.278,259.778,82.504z M327.436,416.035c-24.774,0-44.869-20.08-44.869-44.853
	c0-24.781,20.094-44.861,44.869-44.861c24.775,0,44.854,20.08,44.854,44.861C372.29,395.955,352.21,416.035,327.436,416.035z"/>
<g>
</g>
<g>
</g>
<g>
</g>
<g>
</g>
<g>
</g>
<g>
</g>
<g>
</g>
<g>
</g>
<g>
</g>
<g>
</g>
<g>
</g>
<g>
</g>
<g>
</g>
<g>
</g>
<g>
</g>
</svg>
