<?xml version="1.0" encoding="iso-8859-1"?>
<!-- Generator: Adobe Illustrator 18.0.0, SVG Export Plug-In . SVG Version: 6.00 Build 0)  -->
<!DOCTYPE svg PUBLIC "-//W3C//DTD SVG 1.1//EN" "http://www.w3.org/Graphics/SVG/1.1/DTD/svg11.dtd">
<svg version="1.1" id="Capa_1" xmlns="http://www.w3.org/2000/svg" xmlns:xlink="http://www.w3.org/1999/xlink" x="0px" y="0px"
	 viewBox="0 0 486.129 486.129" style="enable-background:new 0 0 486.129 486.129;" xml:space="preserve">
<path d="M402.696,0H83.438C68.42,0,56.254,12.161,56.254,27.182v142.795c0,4.501,3.172,8.395,7.589,9.301
	c4.403,0.899,8.856-1.428,10.627-5.563l34.834-81.417h77.49v338.66c0,30.459,24.71,55.171,55.185,55.171
	c30.476,0,55.169-24.712,55.169-55.171V92.298h79.662l34.848,81.417c1.774,4.135,6.21,6.462,10.614,5.563
	c4.435-0.906,7.602-4.8,7.602-9.301V27.182C429.875,12.161,417.709,0,402.696,0z"/>
<g>
</g>
<g>
</g>
<g>
</g>
<g>
</g>
<g>
</g>
<g>
</g>
<g>
</g>
<g>
</g>
<g>
</g>
<g>
</g>
<g>
</g>
<g>
</g>
<g>
</g>
<g>
</g>
<g>
</g>
</svg>
