<?xml version="1.0" encoding="iso-8859-1"?>
<!-- Generator: Adobe Illustrator 18.0.0, SVG Export Plug-In . SVG Version: 6.00 Build 0)  -->
<!DOCTYPE svg PUBLIC "-//W3C//DTD SVG 1.1//EN" "http://www.w3.org/Graphics/SVG/1.1/DTD/svg11.dtd">
<svg version="1.1" id="Capa_1" xmlns="http://www.w3.org/2000/svg" xmlns:xlink="http://www.w3.org/1999/xlink" x="0px" y="0px"
	 viewBox="0 0 494.335 494.335" style="enable-background:new 0 0 494.335 494.335;" xml:space="preserve">
<g>
	<path d="M114.615,298.154l-97.734,97.73c-22.498,22.515-22.516,59.036,0,81.561c22.531,22.522,59.045,22.515,81.574,0l97.66-97.665
		c-16.658-9.611-32.166-21.466-46.129-35.432C135.882,330.242,124.102,314.682,114.615,298.154z"/>
	<path d="M439.259,55.065C403.745,19.557,356.523,0.002,306.296,0.002c-50.221,0-97.43,19.564-132.941,55.079
		c-73.32,73.317-73.32,192.601,0,265.911c35.512,35.524,82.721,55.086,132.941,55.086c50.227,0,97.432-19.562,132.949-55.077
		c35.525-35.505,55.09-82.721,55.09-132.952C494.335,137.818,474.771,90.594,439.259,55.065z M404.21,285.963
		c-26.156,26.159-60.932,40.57-97.914,40.57c-36.98,0-71.752-14.412-97.912-40.57c-53.996-53.997-53.996-141.857,0-195.853
		c26.16-26.152,60.932-40.561,97.912-40.561c37.002,0,71.771,14.402,97.934,40.554c26.16,26.168,40.561,60.948,40.561,97.946
		C444.79,225.038,430.39,259.811,404.21,285.963z"/>
	<path d="M369.956,163.268l-127.281,0.009c-13.678,0-24.775,11.095-24.775,24.772c0,13.684,11.098,24.772,24.775,24.772
		l127.281-0.007c13.678,0,24.773-11.097,24.773-24.774C394.73,174.356,383.634,163.268,369.956,163.268z"/>
</g>
<g>
</g>
<g>
</g>
<g>
</g>
<g>
</g>
<g>
</g>
<g>
</g>
<g>
</g>
<g>
</g>
<g>
</g>
<g>
</g>
<g>
</g>
<g>
</g>
<g>
</g>
<g>
</g>
<g>
</g>
</svg>
